  0
SECTION
  2
HEADER
  9
$ACADVER
  1
AC1024
  9
$ACADMAINTVER
 70
6
  9
$DWGCODEPAGE
  3
ANSI_1252
  9
$LASTSAVEDBY
  1
ezdxf
  9
$INSBASE
 10
0.0
 20
0.0
 30
0.0
  9
$EXTMIN
 10
1e+20
 20
1e+20
 30
1e+20
  9
$EXTMAX
 10
-1e+20
 20
-1e+20
 30
-1e+20
  9
$LIMMIN
 10
0.0
 20
0.0
  9
$LIMMAX
 10
420.0
 20
297.0
  9
$ORTHOMODE
 70
0
  9
$REGENMODE
 70
1
  9
$FILLMODE
 70
1
  9
$QTEXTMODE
 70
0
  9
$MIRRTEXT
 70
1
  9
$LTSCALE
 40
1.0
  9
$ATTMODE
 70
1
  9
$TEXTSIZE
 40
2.5
  9
$TRACEWID
 40
1.0
  9
$TEXTSTYLE
  7
Standard
  9
$CLAYER
  8
0
  9
$CELTYPE
  6
ByLayer
  9
$CECOLOR
 62
256
  9
$CELTSCALE
 40
1.0
  9
$DISPSILH
 70
0
  9
$DIMSCALE
 40
1.0
  9
$DIMASZ
 40
2.5
  9
$DIMEXO
 40
0.625
  9
$DIMDLI
 40
3.75
  9
$DIMRND
 40
0.0
  9
$DIMDLE
 40
0.0
  9
$DIMEXE
 40
1.25
  9
$DIMTP
 40
0.0
  9
$DIMTM
 40
0.0
  9
$DIMTXT
 40
2.5
  9
$DIMCEN
 40
2.5
  9
$DIMTSZ
 40
0.0
  9
$DIMTOL
 70
0
  9
$DIMLIM
 70
0
  9
$DIMTIH
 70
0
  9
$DIMTOH
 70
0
  9
$DIMSE1
 70
0
  9
$DIMSE2
 70
0
  9
$DIMTAD
 70
1
  9
$DIMZIN
 70
8
  9
$DIMBLK
  1

  9
$DIMASO
 70
1
  9
$DIMSHO
 70
1
  9
$DIMPOST
  1

  9
$DIMAPOST
  1

  9
$DIMALT
 70
0
  9
$DIMALTD
 70
3
  9
$DIMALTF
 40
0.03937007874
  9
$DIMLFAC
 40
1.0
  9
$DIMTOFL
 70
1
  9
$DIMTVP
 40
0.0
  9
$DIMTIX
 70
0
  9
$DIMSOXD
 70
0
  9
$DIMSAH
 70
0
  9
$DIMBLK1
  1

  9
$DIMBLK2
  1

  9
$DIMSTYLE
  2
ISO-25
  9
$DIMCLRD
 70
0
  9
$DIMCLRE
 70
0
  9
$DIMCLRT
 70
0
  9
$DIMTFAC
 40
1.0
  9
$DIMGAP
 40
0.625
  9
$DIMJUST
 70
0
  9
$DIMSD1
 70
0
  9
$DIMSD2
 70
0
  9
$DIMTOLJ
 70
0
  9
$DIMTZIN
 70
8
  9
$DIMALTZ
 70
0
  9
$DIMALTTZ
 70
0
  9
$DIMUPT
 70
0
  9
$DIMDEC
 70
2
  9
$DIMTDEC
 70
2
  9
$DIMALTU
 70
2
  9
$DIMALTTD
 70
3
  9
$DIMTXSTY
  7
Standard
  9
$DIMAUNIT
 70
0
  9
$DIMADEC
 70
0
  9
$DIMALTRND
 40
0.0
  9
$DIMAZIN
 70
0
  9
$DIMDSEP
 70
44
  9
$DIMATFIT
 70
3
  9
$DIMFRAC
 70
0
  9
$DIMLDRBLK
  1

  9
$DIMLUNIT
 70
2
  9
$DIMLWD
 70
-2
  9
$DIMLWE
 70
-2
  9
$DIMTMOVE
 70
0
  9
$DIMFXL
 40
1.0
  9
$DIMFXLON
 70
0
  9
$DIMJOGANG
 40
0.785398163397
  9
$DIMTFILL
 70
0
  9
$DIMTFILLCLR
 70
0
  9
$DIMARCSYM
 70
0
  9
$DIMLTYPE
  6

  9
$DIMLTEX1
  6

  9
$DIMLTEX2
  6

  9
$DIMTXTDIRECTION
 70
0
  9
$LUNITS
 70
2
  9
$LUPREC
 70
4
  9
$SKETCHINC
 40
1.0
  9
$FILLETRAD
 40
10.0
  9
$AUNITS
 70
0
  9
$AUPREC
 70
2
  9
$MENU
  1
.
  9
$ELEVATION
 40
0.0
  9
$PELEVATION
 40
0.0
  9
$THICKNESS
 40
0.0
  9
$LIMCHECK
 70
0
  9
$CHAMFERA
 40
0.0
  9
$CHAMFERB
 40
0.0
  9
$CHAMFERC
 40
0.0
  9
$CHAMFERD
 40
0.0
  9
$SKPOLY
 70
0
  9
$TDCREATE
 40
2460821.862361111
  9
$TDUCREATE
 40
2458532.153996898
  9
$TDUPDATE
 40
2460821.862372685
  9
$TDUUPDATE
 40
2458532.1544311
  9
$TDINDWG
 40
0.0
  9
$TDUSRTIMER
 40
0.0
  9
$USRTIMER
 70
1
  9
$ANGBASE
 50
0.0
  9
$ANGDIR
 70
0
  9
$PDMODE
 70
0
  9
$PDSIZE
 40
0.0
  9
$PLINEWID
 40
0.0
  9
$SPLFRAME
 70
0
  9
$SPLINETYPE
 70
6
  9
$SPLINESEGS
 70
8
  9
$HANDSEED
  5
C0
  9
$SURFTAB1
 70
6
  9
$SURFTAB2
 70
6
  9
$SURFTYPE
 70
6
  9
$SURFU
 70
6
  9
$SURFV
 70
6
  9
$UCSBASE
  2

  9
$UCSNAME
  2

  9
$UCSORG
 10
0.0
 20
0.0
 30
0.0
  9
$UCSXDIR
 10
1.0
 20
0.0
 30
0.0
  9
$UCSYDIR
 10
0.0
 20
1.0
 30
0.0
  9
$UCSORTHOREF
  2

  9
$UCSORTHOVIEW
 70
0
  9
$UCSORGTOP
 10
0.0
 20
0.0
 30
0.0
  9
$UCSORGBOTTOM
 10
0.0
 20
0.0
 30
0.0
  9
$UCSORGLEFT
 10
0.0
 20
0.0
 30
0.0
  9
$UCSORGRIGHT
 10
0.0
 20
0.0
 30
0.0
  9
$UCSORGFRONT
 10
0.0
 20
0.0
 30
0.0
  9
$UCSORGBACK
 10
0.0
 20
0.0
 30
0.0
  9
$PUCSBASE
  2

  9
$PUCSNAME
  2

  9
$PUCSORG
 10
0.0
 20
0.0
 30
0.0
  9
$PUCSXDIR
 10
1.0
 20
0.0
 30
0.0
  9
$PUCSYDIR
 10
0.0
 20
1.0
 30
0.0
  9
$PUCSORTHOREF
  2

  9
$PUCSORTHOVIEW
 70
0
  9
$PUCSORGTOP
 10
0.0
 20
0.0
 30
0.0
  9
$PUCSORGBOTTOM
 10
0.0
 20
0.0
 30
0.0
  9
$PUCSORGLEFT
 10
0.0
 20
0.0
 30
0.0
  9
$PUCSORGRIGHT
 10
0.0
 20
0.0
 30
0.0
  9
$PUCSORGFRONT
 10
0.0
 20
0.0
 30
0.0
  9
$PUCSORGBACK
 10
0.0
 20
0.0
 30
0.0
  9
$USERI1
 70
0
  9
$USERI2
 70
0
  9
$USERI3
 70
0
  9
$USERI4
 70
0
  9
$USERI5
 70
0
  9
$USERR1
 40
0.0
  9
$USERR2
 40
0.0
  9
$USERR3
 40
0.0
  9
$USERR4
 40
0.0
  9
$USERR5
 40
0.0
  9
$WORLDVIEW
 70
1
  9
$SHADEDGE
 70
3
  9
$SHADEDIF
 70
70
  9
$TILEMODE
 70
1
  9
$MAXACTVP
 70
64
  9
$PINSBASE
 10
0.0
 20
0.0
 30
0.0
  9
$PLIMCHECK
 70
0
  9
$PEXTMIN
 10
1e+20
 20
1e+20
 30
1e+20
  9
$PEXTMAX
 10
-1e+20
 20
-1e+20
 30
-1e+20
  9
$PLIMMIN
 10
0.0
 20
0.0
  9
$PLIMMAX
 10
420.0
 20
297.0
  9
$UNITMODE
 70
0
  9
$VISRETAIN
 70
1
  9
$PLINEGEN
 70
0
  9
$PSLTSCALE
 70
1
  9
$TREEDEPTH
 70
3020
  9
$CMLSTYLE
  2
Standard
  9
$CMLJUST
 70
0
  9
$CMLSCALE
 40
20.0
  9
$PROXYGRAPHICS
 70
1
  9
$MEASUREMENT
 70
1
  9
$CELWEIGHT
370
-1
  9
$ENDCAPS
280
0
  9
$JOINSTYLE
280
0
  9
$LWDISPLAY
290
0
  9
$INSUNITS
 70
6
  9
$HYPERLINKBASE
  1

  9
$STYLESHEET
  1

  9
$XEDIT
290
1
  9
$CEPSNTYPE
380
0
  9
$PSTYLEMODE
290
1
  9
$FINGERPRINTGUID
  2
{119C36C4-60DD-4084-BD1E-6F3DDB712D38}
  9
$VERSIONGUID
  2
{B2D37FA1-E476-49E2-818D-FCDD5BD70171}
  9
$EXTNAMES
290
1
  9
$PSVPSCALE
 40
0.0
  9
$OLESTARTUP
290
0
  9
$SORTENTS
280
127
  9
$INDEXCTL
280
0
  9
$HIDETEXT
280
1
  9
$XCLIPFRAME
280
1
  9
$HALOGAP
280
0
  9
$OBSCOLOR
 70
257
  9
$OBSLTYPE
280
0
  9
$INTERSECTIONDISPLAY
280
0
  9
$INTERSECTIONCOLOR
 70
257
  9
$DIMASSOC
280
2
  9
$PROJECTNAME
  1

  9
$CAMERADISPLAY
290
0
  9
$LENSLENGTH
 40
50.0
  9
$CAMERAHEIGHT
 40
0.0
  9
$STEPSPERSEC
 40
24.0
  9
$STEPSIZE
 40
100.0
  9
$3DDWFPREC
 40
2.0
  9
$PSOLWIDTH
 40
0.005
  9
$PSOLHEIGHT
 40
0.08
  9
$LOFTANG1
 40
1.570796326795
  9
$LOFTANG2
 40
1.570796326795
  9
$LOFTMAG1
 40
0.0
  9
$LOFTMAG2
 40
0.0
  9
$LOFTPARAM
 70
7
  9
$LOFTNORMALS
280
1
  9
$LATITUDE
 40
37.795
  9
$LONGITUDE
 40
-122.394
  9
$NORTHDIRECTION
 40
0.0
  9
$TIMEZONE
 70
-8000
  9
$LIGHTGLYPHDISPLAY
280
1
  9
$TILEMODELIGHTSYNCH
280
1
  9
$CMATERIAL
347
20
  9
$SOLIDHIST
280
0
  9
$SHOWHIST
280
1
  9
$DWFFRAME
280
2
  9
$DGNFRAME
280
2
  9
$REALWORLDSCALE
290
1
  9
$INTERFERECOLOR
 62
256
  9
$CSHADOW
280
0
  9
$SHADOWPLANELOCATION
 40
0.0
  0
ENDSEC
  0
SECTION
  2
CLASSES
  0
CLASS
  1
ACDBDICTIONARYWDFLT
  2
AcDbDictionaryWithDefault
  3
ObjectDBX Classes
 90
0
 91
0
280
0
281
0
  0
CLASS
  1
SUN
  2
AcDbSun
  3
SCENEOE
 90
1153
 91
0
280
0
281
0
  0
CLASS
  1
VISUALSTYLE
  2
AcDbVisualStyle
  3
ObjectDBX Classes
 90
4095
 91
0
280
0
281
0
  0
CLASS
  1
MATERIAL
  2
AcDbMaterial
  3
ObjectDBX Classes
 90
1153
 91
0
280
0
281
0
  0
CLASS
  1
SCALE
  2
AcDbScale
  3
ObjectDBX Classes
 90
1153
 91
0
280
0
281
0
  0
CLASS
  1
TABLESTYLE
  2
AcDbTableStyle
  3
ObjectDBX Classes
 90
4095
 91
0
280
0
281
0
  0
CLASS
  1
MLEADERSTYLE
  2
AcDbMLeaderStyle
  3
ACDB_MLEADERSTYLE_CLASS
 90
4095
 91
0
280
0
281
0
  0
CLASS
  1
DICTIONARYVAR
  2
AcDbDictionaryVar
  3
ObjectDBX Classes
 90
0
 91
0
280
0
281
0
  0
CLASS
  1
CELLSTYLEMAP
  2
AcDbCellStyleMap
  3
ObjectDBX Classes
 90
1152
 91
0
280
0
281
0
  0
CLASS
  1
MENTALRAYRENDERSETTINGS
  2
AcDbMentalRayRenderSettings
  3
SCENEOE
 90
1024
 91
0
280
0
281
0
  0
CLASS
  1
ACDBDETAILVIEWSTYLE
  2
AcDbDetailViewStyle
  3
ObjectDBX Classes
 90
1025
 91
0
280
0
281
0
  0
CLASS
  1
ACDBSECTIONVIEWSTYLE
  2
AcDbSectionViewStyle
  3
ObjectDBX Classes
 90
1025
 91
0
280
0
281
0
  0
CLASS
  1
RASTERVARIABLES
  2
AcDbRasterVariables
  3
ISM
 90
0
 91
0
280
0
281
0
  0
CLASS
  1
LAYOUT
  2
AcDbLayout
  3
ObjectDBX Classes
 90
0
 91
0
280
0
281
0
  0
CLASS
  1
ACDBPLACEHOLDER
  2
AcDbPlaceHolder
  3
ObjectDBX Classes
 90
0
 91
0
280
0
281
0
  0
ENDSEC
  0
SECTION
  2
TABLES
  0
TABLE
  2
VPORT
  5
8
330
0
100
AcDbSymbolTable
 70
1
  0
VPORT
  5
23
330
8
100
AcDbSymbolTableRecord
100
AcDbViewportTableRecord
  2
*Active
 70
0
 10
0.0
 20
0.0
 11
1.0
 21
1.0
 12
0.0
 22
0.0
 13
0.0
 23
0.0
 14
0.5
 24
0.5
 15
0.5
 25
0.5
 16
0.0
 26
0.0
 36
1.0
 17
0.0
 27
0.0
 37
0.0
 40
1000.0
 41
1.34
 42
50.0
 43
0.0
 44
0.0
 50
0.0
 51
0.0
 71
0
 72
1000
 73
1
 74
3
 75
0
 76
0
 77
0
 78
0
281
0
 65
0
146
0.0
  0
ENDTAB
  0
TABLE
  2
LTYPE
  5
2
330
0
100
AcDbSymbolTable
 70
4
  0
LTYPE
  5
24
330
2
100
AcDbSymbolTableRecord
100
AcDbLinetypeTableRecord
  2
ByBlock
 70
0
  3

 72
65
 73
0
 40
0.0
  0
LTYPE
  5
25
330
2
100
AcDbSymbolTableRecord
100
AcDbLinetypeTableRecord
  2
ByLayer
 70
0
  3

 72
65
 73
0
 40
0.0
  0
LTYPE
  5
26
330
2
100
AcDbSymbolTableRecord
100
AcDbLinetypeTableRecord
  2
Continuous
 70
0
  3

 72
65
 73
0
 40
0.0
  0
LTYPE
  5
55
330
2
100
AcDbSymbolTableRecord
100
AcDbLinetypeTableRecord
  2
DASHED
 70
0
  3
Dashed ----  ----  ----  ----  ----
 72
65
 73
2
 40
1.2
 49
0.5
 74
0
 49
-0.7
 74
0
  0
ENDTAB
  0
TABLE
  2
LAYER
  5
1
330
0
100
AcDbSymbolTable
 70
18
  0
LAYER
  5
27
330
1
100
AcDbSymbolTableRecord
100
AcDbLayerTableRecord
  2
0
 70
0
 62
7
  6
Continuous
370
-3
390
13
347
21
  0
LAYER
  5
28
330
1
100
AcDbSymbolTableRecord
100
AcDbLayerTableRecord
  2
Defpoints
 70
0
 62
7
  6
Continuous
290
0
370
-3
390
13
347
21
  0
LAYER
  5
2F
330
1
100
AcDbSymbolTableRecord
100
AcDbLayerTableRecord
  2
commercial_buildings
 70
0
 62
30
  6
Continuous
370
-3
390
13
347
21
  0
LAYER
  5
33
330
1
100
AcDbSymbolTableRecord
100
AcDbLayerTableRecord
  2
residential_buildings
 70
0
 62
211
  6
Continuous
370
-3
390
13
347
21
  0
LAYER
  5
36
330
1
100
AcDbSymbolTableRecord
100
AcDbLayerTableRecord
  2
industrial_buildings
 70
0
 62
8
  6
Continuous
370
-3
390
13
347
21
  0
LAYER
  5
39
330
1
100
AcDbSymbolTableRecord
100
AcDbLayerTableRecord
  2
public_buildings
 70
0
 62
5
  6
Continuous
370
-3
390
13
347
21
  0
LAYER
  5
3C
330
1
100
AcDbSymbolTableRecord
100
AcDbLayerTableRecord
  2
recreational_facilities
 70
0
 62
3
  6
Continuous
370
-3
390
13
347
21
  0
LAYER
  5
3F
330
1
100
AcDbSymbolTableRecord
100
AcDbLayerTableRecord
  2
healthcare_facilities
 70
0
 62
1
  6
Continuous
370
-3
390
13
347
21
  0
LAYER
  5
42
330
1
100
AcDbSymbolTableRecord
100
AcDbLayerTableRecord
  2
educational_facilities
 70
0
 62
4
  6
Continuous
370
-3
390
13
347
21
  0
LAYER
  5
45
330
1
100
AcDbSymbolTableRecord
100
AcDbLayerTableRecord
  2
all_buildings
 70
0
 62
30
  6
Continuous
370
-3
390
13
347
21
  0
LAYER
  5
54
330
1
100
AcDbSymbolTableRecord
100
AcDbLayerTableRecord
  2
main_roads
 70
0
 62
200
  6
Continuous
370
-3
390
13
347
21
  0
LAYER
  5
56
330
1
100
AcDbSymbolTableRecord
100
AcDbLayerTableRecord
  2
bike_paths
 70
0
 62
200
  6
Continuous
370
-3
390
13
347
21
  0
LAYER
  5
57
330
1
100
AcDbSymbolTableRecord
100
AcDbLayerTableRecord
  2
parks
 70
0
 62
84
  6
Continuous
370
-3
390
13
347
21
  0
LAYER
  5
58
330
1
100
AcDbSymbolTableRecord
100
AcDbLayerTableRecord
  2
transit_stops
 70
0
 62
6
  6
Continuous
370
-3
390
13
347
21
  0
LAYER
  5
59
330
1
100
AcDbSymbolTableRecord
100
AcDbLayerTableRecord
  2
amenities
 70
0
 62
2
  6
Continuous
370
-3
390
13
347
21
  0
LAYER
  5
5A
330
1
100
AcDbSymbolTableRecord
100
AcDbLayerTableRecord
  2
buffered_commercial
 70
0
 62
30
  6
Continuous
370
-3
390
13
347
21
  0
LAYER
  5
5D
330
1
100
AcDbSymbolTableRecord
100
AcDbLayerTableRecord
  2
merged_buildings_roads
 70
0
 62
30
  6
Continuous
370
-3
390
13
347
21
  0
LAYER
  5
5E
330
1
100
AcDbSymbolTableRecord
100
AcDbLayerTableRecord
  2
study_area_boundary
 70
0
 62
30
  6
Continuous
370
-3
390
13
347
21
  0
ENDTAB
  0
TABLE
  2
STYLE
  5
5
330
0
100
AcDbSymbolTable
 70
2
  0
STYLE
  5
29
330
5
100
AcDbSymbolTableRecord
100
AcDbTextStyleTableRecord
  2
Standard
 70
0
 40
0.0
 41
1.0
 50
0.0
 71
0
 42
2.5
  3
txt
  4

  0
STYLE
  5
31
330
5
100
AcDbSymbolTableRecord
100
AcDbTextStyleTableRecord
  2
Arial
 70
0
 40
0.0
 41
1.0
 50
0.0
 71
0
 42
2.5
  3
txt
  4

  0
ENDTAB
  0
TABLE
  2
VIEW
  5
7
330
0
100
AcDbSymbolTable
 70
0
  0
ENDTAB
  0
TABLE
  2
UCS
  5
6
330
0
100
AcDbSymbolTable
 70
0
  0
ENDTAB
  0
TABLE
  2
APPID
  5
3
330
0
100
AcDbSymbolTable
 70
3
  0
APPID
  5
2A
330
3
100
AcDbSymbolTableRecord
100
AcDbRegAppTableRecord
  2
ACAD
 70
0
  0
APPID
  5
60
330
3
100
AcDbSymbolTableRecord
100
AcDbRegAppTableRecord
  2
HATCHBACKGROUNDCOLOR
 70
0
  0
APPID
  5
61
330
3
100
AcDbSymbolTableRecord
100
AcDbRegAppTableRecord
  2
EZDXF
 70
0
  0
ENDTAB
  0
TABLE
  2
DIMSTYLE
  5
4
330
0
100
AcDbSymbolTable
 70
1
100
AcDbDimStyleTable
  0
DIMSTYLE
105
2B
330
4
100
AcDbSymbolTableRecord
100
AcDbDimStyleTableRecord
  2
Standard
 70
0
 40
1.0
 41
2.5
 42
0.625
 43
3.75
 44
1.25
 45
0.0
 46
0.0
 47
0.0
 48
0.0
 49
2.5
140
2.5
141
2.5
142
0.0
143
0.03937007874
144
1.0
145
0.0
146
1.0
147
0.625
148
0.0
 69
0
 70
0
 71
0
 72
0
 73
0
 74
0
 75
0
 76
0
 77
1
 78
8
 79
3
170
0
171
3
172
1
173
0
174
0
175
0
176
0
177
0
178
0
179
2
271
2
272
2
273
2
274
3
275
0
276
0
277
2
278
44
279
0
280
0
281
0
282
0
283
0
284
8
285
0
286
0
288
0
289
3
290
0
371
-2
372
-2
  0
ENDTAB
  0
TABLE
  2
BLOCK_RECORD
  5
9
330
0
100
AcDbSymbolTable
 70
2
  0
BLOCK_RECORD
  5
17
330
9
100
AcDbSymbolTableRecord
100
AcDbBlockTableRecord
  2
*Model_Space
340
1A
 70
0
280
1
281
0
  0
BLOCK_RECORD
  5
1B
330
9
100
AcDbSymbolTableRecord
100
AcDbBlockTableRecord
  2
*Paper_Space
340
1E
 70
0
280
1
281
0
  0
ENDTAB
  0
ENDSEC
  0
SECTION
  2
BLOCKS
  0
BLOCK
  5
18
330
17
100
AcDbEntity
  8
0
100
AcDbBlockBegin
  2
*Model_Space
 70
0
 10
0.0
 20
0.0
 30
0.0
  3
*Model_Space
  1

  0
ENDBLK
  5
19
330
17
100
AcDbEntity
  8
0
100
AcDbBlockEnd
  0
BLOCK
  5
1C
330
1B
100
AcDbEntity
  8
0
100
AcDbBlockBegin
  2
*Paper_Space
 70
0
 10
0.0
 20
0.0
 30
0.0
  3
*Paper_Space
  1

  0
ENDBLK
  5
1D
330
1B
100
AcDbEntity
  8
0
100
AcDbBlockEnd
  0
ENDSEC
  0
SECTION
  2
ENTITIES
  0
LWPOLYLINE
  5
30
330
17
100
AcDbEntity
  8
commercial_buildings
  6
Continuous
 62
30
370
60
100
AcDbPolyline
 90
5
 70
1
 10
-74.006
 20
40.7128
 10
-74.005
 20
40.7128
 10
-74.005
 20
40.7138
 10
-74.006
 20
40.7138
 10
-74.006
 20
40.7128
  0
TEXT
  5
32
330
17
100
AcDbEntity
  8
commercial_buildings
  6
Continuous
 62
7
370
60
100
AcDbText
 10
-74.0055
 20
40.713300000000004
 30
0.0
 40
4.0
  1
Commercial Building A
  7
Arial
 72
1
 11
-74.0055
 21
40.713300000000004
 31
0.0
100
AcDbText
 73
2
  0
LWPOLYLINE
  5
34
330
17
100
AcDbEntity
  8
residential_buildings
  6
Continuous
 62
211
370
50
100
AcDbPolyline
 90
5
 70
1
 10
-74.007
 20
40.7148
 10
-74.006
 20
40.7148
 10
-74.006
 20
40.7158
 10
-74.007
 20
40.7158
 10
-74.007
 20
40.7148
  0
TEXT
  5
35
330
17
100
AcDbEntity
  8
residential_buildings
  6
Continuous
 62
0
370
50
100
AcDbText
 10
-74.0065
 20
40.7153
 30
0.0
 40
3.5
  1
3
  7
Arial
 72
1
 11
-74.0065
 21
40.7153
 31
0.0
100
AcDbText
 73
2
  0
LWPOLYLINE
  5
37
330
17
100
AcDbEntity
  8
industrial_buildings
  6
Continuous
 62
8
370
70
100
AcDbPolyline
 90
5
 70
1
 10
-74.008
 20
40.7168
 10
-74.007
 20
40.7168
 10
-74.007
 20
40.7178
 10
-74.008
 20
40.7178
 10
-74.008
 20
40.7168
  0
TEXT
  5
38
330
17
100
AcDbEntity
  8
industrial_buildings
  6
Continuous
 62
2
370
70
100
AcDbText
 10
-74.0075
 20
40.717299999999994
 30
0.0
 40
3.0
  1
5000
  7
Arial
 72
1
 11
-74.0075
 21
40.717299999999994
 31
0.0
100
AcDbText
 73
2
  0
LWPOLYLINE
  5
3A
330
17
100
AcDbEntity
  8
public_buildings
  6
Continuous
 62
5
370
60
100
AcDbPolyline
 90
5
 70
1
 10
-74.009
 20
40.7188
 10
-74.008
 20
40.7188
 10
-74.008
 20
40.7198
 10
-74.009
 20
40.7198
 10
-74.009
 20
40.7188
  0
TEXT
  5
3B
330
17
100
AcDbEntity
  8
public_buildings
  6
Continuous
 62
7
370
60
100
AcDbText
 10
-74.0085
 20
40.719300000000004
 30
0.0
 40
4.0
  1
City Library
  7
Arial
 72
1
 11
-74.0085
 21
40.719300000000004
 31
0.0
100
AcDbText
 73
2
  0
LWPOLYLINE
  5
3D
330
17
100
AcDbEntity
  8
recreational_facilities
  6
Continuous
 62
3
370
50
100
AcDbPolyline
 90
5
 70
1
 10
-74.01
 20
40.7208
 10
-74.009
 20
40.7208
 10
-74.009
 20
40.7218
 10
-74.01
 20
40.7218
 10
-74.01
 20
40.7208
  0
TEXT
  5
3E
330
17
100
AcDbEntity
  8
recreational_facilities
  6
Continuous
 62
7
370
50
100
AcDbText
 10
-74.0095
 20
40.7213
 30
0.0
 40
3.5
  1
Sports Complex
  7
Arial
 72
1
 11
-74.0095
 21
40.7213
 31
0.0
100
AcDbText
 73
2
  0
LWPOLYLINE
  5
40
330
17
100
AcDbEntity
  8
healthcare_facilities
  6
Continuous
 62
1
370
70
100
AcDbPolyline
 90
5
 70
1
 10
-74.011
 20
40.7228
 10
-74.01
 20
40.7228
 10
-74.01
 20
40.7238
 10
-74.011
 20
40.7238
 10
-74.011
 20
40.7228
  0
TEXT
  5
41
330
17
100
AcDbEntity
  8
healthcare_facilities
  6
Continuous
 62
7
370
70
100
AcDbText
 10
-74.01050000000001
 20
40.723299999999995
 30
0.0
 40
3.5
  1
Medical Center
  7
Arial
 72
1
 11
-74.01050000000001
 21
40.723299999999995
 31
0.0
100
AcDbText
 73
2
  0
LWPOLYLINE
  5
43
330
17
100
AcDbEntity
  8
educational_facilities
  6
Continuous
 62
4
370
60
100
AcDbPolyline
 90
5
 70
1
 10
-74.012
 20
40.7248
 10
-74.011
 20
40.7248
 10
-74.011
 20
40.7258
 10
-74.012
 20
40.7258
 10
-74.012
 20
40.7248
  0
TEXT
  5
44
330
17
100
AcDbEntity
  8
educational_facilities
  6
Continuous
 62
0
370
60
100
AcDbText
 10
-74.0115
 20
40.725300000000004
 30
0.0
 40
3.5
  1
School Campus
  7
Arial
 72
1
 11
-74.0115
 21
40.725300000000004
 31
0.0
100
AcDbText
 73
2
  0
LWPOLYLINE
  5
46
330
17
100
AcDbEntity
  8
all_buildings
  6
Continuous
 62
30
370
60
100
AcDbPolyline
 90
5
 70
1
 10
-74.006
 20
40.7128
 10
-74.005
 20
40.7128
 10
-74.005
 20
40.7138
 10
-74.006
 20
40.7138
 10
-74.006
 20
40.7128
  0
TEXT
  5
47
330
17
100
AcDbEntity
  8
all_buildings
  6
Continuous
 62
7
370
60
100
AcDbText
 10
-74.0055
 20
40.713300000000004
 30
0.0
 40
4.0
  1
123 Main St
  7
Arial
 72
1
 11
-74.0055
 21
40.713300000000004
 31
0.0
100
AcDbText
 73
2
  0
LWPOLYLINE
  5
48
330
17
100
AcDbEntity
  8
all_buildings
  6
Continuous
 62
30
370
60
100
AcDbPolyline
 90
5
 70
1
 10
-74.007
 20
40.7148
 10
-74.006
 20
40.7148
 10
-74.006
 20
40.7158
 10
-74.007
 20
40.7158
 10
-74.007
 20
40.7148
  0
TEXT
  5
49
330
17
100
AcDbEntity
  8
all_buildings
  6
Continuous
 62
7
370
60
100
AcDbText
 10
-74.0065
 20
40.7153
 30
0.0
 40
4.0
  1
456 Oak Ave
  7
Arial
 72
1
 11
-74.0065
 21
40.7153
 31
0.0
100
AcDbText
 73
2
  0
LWPOLYLINE
  5
4A
330
17
100
AcDbEntity
  8
all_buildings
  6
Continuous
 62
30
370
60
100
AcDbPolyline
 90
5
 70
1
 10
-74.008
 20
40.7168
 10
-74.007
 20
40.7168
 10
-74.007
 20
40.7178
 10
-74.008
 20
40.7178
 10
-74.008
 20
40.7168
  0
TEXT
  5
4B
330
17
100
AcDbEntity
  8
all_buildings
  6
Continuous
 62
7
370
60
100
AcDbText
 10
-74.0075
 20
40.717299999999994
 30
0.0
 40
4.0
  1
789 Industrial Blvd
  7
Arial
 72
1
 11
-74.0075
 21
40.717299999999994
 31
0.0
100
AcDbText
 73
2
  0
LWPOLYLINE
  5
4C
330
17
100
AcDbEntity
  8
all_buildings
  6
Continuous
 62
30
370
60
100
AcDbPolyline
 90
5
 70
1
 10
-74.009
 20
40.7188
 10
-74.008
 20
40.7188
 10
-74.008
 20
40.7198
 10
-74.009
 20
40.7198
 10
-74.009
 20
40.7188
  0
TEXT
  5
4D
330
17
100
AcDbEntity
  8
all_buildings
  6
Continuous
 62
7
370
60
100
AcDbText
 10
-74.0085
 20
40.719300000000004
 30
0.0
 40
4.0
  1
321 Library St
  7
Arial
 72
1
 11
-74.0085
 21
40.719300000000004
 31
0.0
100
AcDbText
 73
2
  0
LWPOLYLINE
  5
4E
330
17
100
AcDbEntity
  8
all_buildings
  6
Continuous
 62
30
370
60
100
AcDbPolyline
 90
5
 70
1
 10
-74.01
 20
40.7208
 10
-74.009
 20
40.7208
 10
-74.009
 20
40.7218
 10
-74.01
 20
40.7218
 10
-74.01
 20
40.7208
  0
TEXT
  5
4F
330
17
100
AcDbEntity
  8
all_buildings
  6
Continuous
 62
7
370
60
100
AcDbText
 10
-74.0095
 20
40.7213
 30
0.0
 40
4.0
  1
654 Sports Way
  7
Arial
 72
1
 11
-74.0095
 21
40.7213
 31
0.0
100
AcDbText
 73
2
  0
LWPOLYLINE
  5
50
330
17
100
AcDbEntity
  8
all_buildings
  6
Continuous
 62
30
370
60
100
AcDbPolyline
 90
5
 70
1
 10
-74.011
 20
40.7228
 10
-74.01
 20
40.7228
 10
-74.01
 20
40.7238
 10
-74.011
 20
40.7238
 10
-74.011
 20
40.7228
  0
TEXT
  5
51
330
17
100
AcDbEntity
  8
all_buildings
  6
Continuous
 62
7
370
60
100
AcDbText
 10
-74.01050000000001
 20
40.723299999999995
 30
0.0
 40
4.0
  1
987 Health Ave
  7
Arial
 72
1
 11
-74.01050000000001
 21
40.723299999999995
 31
0.0
100
AcDbText
 73
2
  0
LWPOLYLINE
  5
52
330
17
100
AcDbEntity
  8
all_buildings
  6
Continuous
 62
30
370
60
100
AcDbPolyline
 90
5
 70
1
 10
-74.012
 20
40.7248
 10
-74.011
 20
40.7248
 10
-74.011
 20
40.7258
 10
-74.012
 20
40.7258
 10
-74.012
 20
40.7248
  0
TEXT
  5
53
330
17
100
AcDbEntity
  8
all_buildings
  6
Continuous
 62
7
370
60
100
AcDbText
 10
-74.0115
 20
40.725300000000004
 30
0.0
 40
4.0
  1
147 Education Dr
  7
Arial
 72
1
 11
-74.0115
 21
40.725300000000004
 31
0.0
100
AcDbText
 73
2
  0
LWPOLYLINE
  5
5B
330
17
100
AcDbEntity
  8
buffered_commercial
  6
Continuous
 62
30
370
60
100
AcDbPolyline
 90
68
 70
1
 10
-84.006
 20
40.7128
 10
-84.006
 20
40.7138
 10
-83.95784726672197
 20
41.693971403295606
 10
-83.81385280403231
 20
42.664703220161286
 10
-83.57540335732209
 20
43.61664677254463
 10
-83.24479532511288
 20
44.5406343236509
 10
-82.82521264348355
 20
45.42776736825998
 10
-82.32069612302546
 20
46.26950233019602
 10
-81.73610453362737
 20
47.05773284163645
 10
-81.07706781186548
 20
47.784867811865475
 10
-80.34993284163646
 20
48.44390453362737
 10
-79.56170233019603
 20
49.028496123025455
 10
-78.71996736825997
 20
49.53301264348355
 10
-77.8328343236509
 20
49.95259532511287
 10
-76.90884677254462
 20
50.28320335732209
 10
-75.95690322016128
 20
50.5216528040323
 10
-74.9861714032956
 20
50.66564726672197
 10
-74.006
 20
50.7138
 10
-74.005
 20
50.7138
 10
-73.02482859670438
 20
50.66564726672197
 10
-72.05409677983872
 20
50.5216528040323
 10
-71.10215322745537
 20
50.28320335732209
 10
-70.1781656763491
 20
49.95259532511287
 10
-69.29103263174002
 20
49.533012643483545
 10
-68.44929766980397
 20
49.02849612302545
 10
-67.66106715836354
 20
48.44390453362737
 10
-66.93393218813452
 20
47.784867811865475
 10
-66.27489546637263
 20
47.05773284163645
 10
-65.69030387697454
 20
46.26950233019602
 10
-65.18578735651644
 20
45.42776736825998
 10
-64.76620467488712
 20
44.5406343236509
 10
-64.43559664267791
 20
43.61664677254462
 10
-64.19714719596769
 20
42.66470322016128
 10
-64.05315273327803
 20
41.693971403295606
 10
-64.005
 20
40.7128
 10
-64.05315273327803
 20
39.732628596704394
 10
-64.19714719596769
 20
38.76189677983872
 10
-64.43559664267791
 20
37.80995322745538
 10
-64.76620467488712
 20
36.8859656763491
 10
-65.18578735651644
 20
35.99883263174002
 10
-65.69030387697454
 20
35.15709766980398
 10
-66.27489546637263
 20
34.36886715836354
 10
-66.93393218813452
 20
33.641732188134526
 10
-67.66106715836354
 20
32.98269546637263
 10
-68.44929766980397
 20
32.398103876974545
 10
-69.29103263174002
 20
31.893587356516452
 10
-70.1781656763491
 20
31.474004674887134
 10
-71.10215322745537
 20
31.143396642677914
 10
-72.05409677983872
 20
30.904947195967697
 10
-73.02482859670438
 20
30.76095273327803
 10
-74.005
 20
30.7128
 10
-74.006
 20
30.7128
 10
-74.9861714032956
 20
30.76095273327803
 10
-75.95690322016128
 20
30.904947195967697
 10
-76.90884677254462
 20
31.143396642677914
 10
-77.8328343236509
 20
31.474004674887134
 10
-78.71996736825997
 20
31.89358735651645
 10
-79.56170233019603
 20
32.398103876974545
 10
-80.34993284163646
 20
32.98269546637263
 10
-81.07706781186548
 20
33.641732188134526
 10
-81.73610453362737
 20
34.36886715836354
 10
-82.32069612302546
 20
35.15709766980398
 10
-82.82521264348355
 20
35.99883263174002
 10
-83.24479532511288
 20
36.8859656763491
 10
-83.57540335732209
 20
37.80995322745538
 10
-83.81385280403231
 20
38.761896779838715
 10
-83.95784726672197
 20
39.732628596704394
 10
-84.006
 20
40.7128
  0
TEXT
  5
5C
330
17
100
AcDbEntity
  8
buffered_commercial
  6
Continuous
 62
7
370
60
100
AcDbText
 10
-74.00551226919504
 20
40.713300000000004
 30
0.0
 40
4.0
  1
Commercial Building A
  7
Arial
 72
1
 11
-74.00551226919504
 21
40.713300000000004
 31
0.0
100
AcDbText
 73
2
  0
LWPOLYLINE
  5
5F
330
17
100
AcDbEntity
  8
study_area_boundary
  6
Continuous
 62
30
370
60
100
AcDbPolyline
 90
5
 70
1
 10
-59.004999999999995
 20
25.7128
 10
-59.004999999999995
 20
55.7258
 10
-89.012
 20
55.7258
 10
-89.012
 20
25.7128
 10
-59.004999999999995
 20
25.7128
  0
LWPOLYLINE
  5
63
330
17
100
AcDbEntity
  8
commercial_buildings
  6
Continuous
 62
30
370
60
100
AcDbPolyline
 90
5
 70
1
 10
-74.006
 20
40.7128
 10
-74.005
 20
40.7128
 10
-74.005
 20
40.7138
 10
-74.006
 20
40.7138
 10
-74.006
 20
40.7128
  0
TEXT
  5
64
330
17
100
AcDbEntity
  8
commercial_buildings
  6
Continuous
 62
7
370
60
100
AcDbText
 10
-74.0055
 20
40.713300000000004
 30
0.0
 40
4.0
  1
Commercial Building A
  7
Arial
 72
1
 11
-74.0055
 21
40.713300000000004
 31
0.0
100
AcDbText
 73
2
  0
LWPOLYLINE
  5
65
330
17
100
AcDbEntity
  8
residential_buildings
  6
Continuous
 62
211
370
50
100
AcDbPolyline
 90
5
 70
1
 10
-74.007
 20
40.7148
 10
-74.006
 20
40.7148
 10
-74.006
 20
40.7158
 10
-74.007
 20
40.7158
 10
-74.007
 20
40.7148
  0
TEXT
  5
66
330
17
100
AcDbEntity
  8
residential_buildings
  6
Continuous
 62
0
370
50
100
AcDbText
 10
-74.0065
 20
40.7153
 30
0.0
 40
3.5
  1
3
  7
Arial
 72
1
 11
-74.0065
 21
40.7153
 31
0.0
100
AcDbText
 73
2
  0
LWPOLYLINE
  5
67
330
17
100
AcDbEntity
  8
industrial_buildings
  6
Continuous
 62
8
370
70
100
AcDbPolyline
 90
5
 70
1
 10
-74.008
 20
40.7168
 10
-74.007
 20
40.7168
 10
-74.007
 20
40.7178
 10
-74.008
 20
40.7178
 10
-74.008
 20
40.7168
  0
TEXT
  5
68
330
17
100
AcDbEntity
  8
industrial_buildings
  6
Continuous
 62
2
370
70
100
AcDbText
 10
-74.0075
 20
40.717299999999994
 30
0.0
 40
3.0
  1
5000
  7
Arial
 72
1
 11
-74.0075
 21
40.717299999999994
 31
0.0
100
AcDbText
 73
2
  0
LWPOLYLINE
  5
69
330
17
100
AcDbEntity
  8
public_buildings
  6
Continuous
 62
5
370
60
100
AcDbPolyline
 90
5
 70
1
 10
-74.009
 20
40.7188
 10
-74.008
 20
40.7188
 10
-74.008
 20
40.7198
 10
-74.009
 20
40.7198
 10
-74.009
 20
40.7188
  0
TEXT
  5
6A
330
17
100
AcDbEntity
  8
public_buildings
  6
Continuous
 62
7
370
60
100
AcDbText
 10
-74.0085
 20
40.719300000000004
 30
0.0
 40
4.0
  1
City Library
  7
Arial
 72
1
 11
-74.0085
 21
40.719300000000004
 31
0.0
100
AcDbText
 73
2
  0
LWPOLYLINE
  5
6B
330
17
100
AcDbEntity
  8
recreational_facilities
  6
Continuous
 62
3
370
50
100
AcDbPolyline
 90
5
 70
1
 10
-74.01
 20
40.7208
 10
-74.009
 20
40.7208
 10
-74.009
 20
40.7218
 10
-74.01
 20
40.7218
 10
-74.01
 20
40.7208
  0
TEXT
  5
6C
330
17
100
AcDbEntity
  8
recreational_facilities
  6
Continuous
 62
7
370
50
100
AcDbText
 10
-74.0095
 20
40.7213
 30
0.0
 40
3.5
  1
Sports Complex
  7
Arial
 72
1
 11
-74.0095
 21
40.7213
 31
0.0
100
AcDbText
 73
2
  0
LWPOLYLINE
  5
6D
330
17
100
AcDbEntity
  8
healthcare_facilities
  6
Continuous
 62
1
370
70
100
AcDbPolyline
 90
5
 70
1
 10
-74.011
 20
40.7228
 10
-74.01
 20
40.7228
 10
-74.01
 20
40.7238
 10
-74.011
 20
40.7238
 10
-74.011
 20
40.7228
  0
TEXT
  5
6E
330
17
100
AcDbEntity
  8
healthcare_facilities
  6
Continuous
 62
7
370
70
100
AcDbText
 10
-74.01050000000001
 20
40.723299999999995
 30
0.0
 40
3.5
  1
Medical Center
  7
Arial
 72
1
 11
-74.01050000000001
 21
40.723299999999995
 31
0.0
100
AcDbText
 73
2
  0
LWPOLYLINE
  5
6F
330
17
100
AcDbEntity
  8
educational_facilities
  6
Continuous
 62
4
370
60
100
AcDbPolyline
 90
5
 70
1
 10
-74.012
 20
40.7248
 10
-74.011
 20
40.7248
 10
-74.011
 20
40.7258
 10
-74.012
 20
40.7258
 10
-74.012
 20
40.7248
  0
TEXT
  5
70
330
17
100
AcDbEntity
  8
educational_facilities
  6
Continuous
 62
0
370
60
100
AcDbText
 10
-74.0115
 20
40.725300000000004
 30
0.0
 40
3.5
  1
School Campus
  7
Arial
 72
1
 11
-74.0115
 21
40.725300000000004
 31
0.0
100
AcDbText
 73
2
  0
LWPOLYLINE
  5
71
330
17
100
AcDbEntity
  8
all_buildings
  6
Continuous
 62
30
370
60
100
AcDbPolyline
 90
5
 70
1
 10
-74.006
 20
40.7128
 10
-74.005
 20
40.7128
 10
-74.005
 20
40.7138
 10
-74.006
 20
40.7138
 10
-74.006
 20
40.7128
  0
TEXT
  5
72
330
17
100
AcDbEntity
  8
all_buildings
  6
Continuous
 62
7
370
60
100
AcDbText
 10
-74.0055
 20
40.713300000000004
 30
0.0
 40
4.0
  1
123 Main St
  7
Arial
 72
1
 11
-74.0055
 21
40.713300000000004
 31
0.0
100
AcDbText
 73
2
  0
LWPOLYLINE
  5
73
330
17
100
AcDbEntity
  8
all_buildings
  6
Continuous
 62
30
370
60
100
AcDbPolyline
 90
5
 70
1
 10
-74.007
 20
40.7148
 10
-74.006
 20
40.7148
 10
-74.006
 20
40.7158
 10
-74.007
 20
40.7158
 10
-74.007
 20
40.7148
  0
TEXT
  5
74
330
17
100
AcDbEntity
  8
all_buildings
  6
Continuous
 62
7
370
60
100
AcDbText
 10
-74.0065
 20
40.7153
 30
0.0
 40
4.0
  1
456 Oak Ave
  7
Arial
 72
1
 11
-74.0065
 21
40.7153
 31
0.0
100
AcDbText
 73
2
  0
LWPOLYLINE
  5
75
330
17
100
AcDbEntity
  8
all_buildings
  6
Continuous
 62
30
370
60
100
AcDbPolyline
 90
5
 70
1
 10
-74.008
 20
40.7168
 10
-74.007
 20
40.7168
 10
-74.007
 20
40.7178
 10
-74.008
 20
40.7178
 10
-74.008
 20
40.7168
  0
TEXT
  5
76
330
17
100
AcDbEntity
  8
all_buildings
  6
Continuous
 62
7
370
60
100
AcDbText
 10
-74.0075
 20
40.717299999999994
 30
0.0
 40
4.0
  1
789 Industrial Blvd
  7
Arial
 72
1
 11
-74.0075
 21
40.717299999999994
 31
0.0
100
AcDbText
 73
2
  0
LWPOLYLINE
  5
77
330
17
100
AcDbEntity
  8
all_buildings
  6
Continuous
 62
30
370
60
100
AcDbPolyline
 90
5
 70
1
 10
-74.009
 20
40.7188
 10
-74.008
 20
40.7188
 10
-74.008
 20
40.7198
 10
-74.009
 20
40.7198
 10
-74.009
 20
40.7188
  0
TEXT
  5
78
330
17
100
AcDbEntity
  8
all_buildings
  6
Continuous
 62
7
370
60
100
AcDbText
 10
-74.0085
 20
40.719300000000004
 30
0.0
 40
4.0
  1
321 Library St
  7
Arial
 72
1
 11
-74.0085
 21
40.719300000000004
 31
0.0
100
AcDbText
 73
2
  0
LWPOLYLINE
  5
79
330
17
100
AcDbEntity
  8
all_buildings
  6
Continuous
 62
30
370
60
100
AcDbPolyline
 90
5
 70
1
 10
-74.01
 20
40.7208
 10
-74.009
 20
40.7208
 10
-74.009
 20
40.7218
 10
-74.01
 20
40.7218
 10
-74.01
 20
40.7208
  0
TEXT
  5
7A
330
17
100
AcDbEntity
  8
all_buildings
  6
Continuous
 62
7
370
60
100
AcDbText
 10
-74.0095
 20
40.7213
 30
0.0
 40
4.0
  1
654 Sports Way
  7
Arial
 72
1
 11
-74.0095
 21
40.7213
 31
0.0
100
AcDbText
 73
2
  0
LWPOLYLINE
  5
7B
330
17
100
AcDbEntity
  8
all_buildings
  6
Continuous
 62
30
370
60
100
AcDbPolyline
 90
5
 70
1
 10
-74.011
 20
40.7228
 10
-74.01
 20
40.7228
 10
-74.01
 20
40.7238
 10
-74.011
 20
40.7238
 10
-74.011
 20
40.7228
  0
TEXT
  5
7C
330
17
100
AcDbEntity
  8
all_buildings
  6
Continuous
 62
7
370
60
100
AcDbText
 10
-74.01050000000001
 20
40.723299999999995
 30
0.0
 40
4.0
  1
987 Health Ave
  7
Arial
 72
1
 11
-74.01050000000001
 21
40.723299999999995
 31
0.0
100
AcDbText
 73
2
  0
LWPOLYLINE
  5
7D
330
17
100
AcDbEntity
  8
all_buildings
  6
Continuous
 62
30
370
60
100
AcDbPolyline
 90
5
 70
1
 10
-74.012
 20
40.7248
 10
-74.011
 20
40.7248
 10
-74.011
 20
40.7258
 10
-74.012
 20
40.7258
 10
-74.012
 20
40.7248
  0
TEXT
  5
7E
330
17
100
AcDbEntity
  8
all_buildings
  6
Continuous
 62
7
370
60
100
AcDbText
 10
-74.0115
 20
40.725300000000004
 30
0.0
 40
4.0
  1
147 Education Dr
  7
Arial
 72
1
 11
-74.0115
 21
40.725300000000004
 31
0.0
100
AcDbText
 73
2
  0
LWPOLYLINE
  5
7F
330
17
100
AcDbEntity
  8
buffered_commercial
  6
Continuous
 62
30
370
60
100
AcDbPolyline
 90
68
 70
1
 10
-84.006
 20
40.7128
 10
-84.006
 20
40.7138
 10
-83.95784726672197
 20
41.693971403295606
 10
-83.81385280403231
 20
42.664703220161286
 10
-83.57540335732209
 20
43.61664677254463
 10
-83.24479532511288
 20
44.5406343236509
 10
-82.82521264348355
 20
45.42776736825998
 10
-82.32069612302546
 20
46.26950233019602
 10
-81.73610453362737
 20
47.05773284163645
 10
-81.07706781186548
 20
47.784867811865475
 10
-80.34993284163646
 20
48.44390453362737
 10
-79.56170233019603
 20
49.028496123025455
 10
-78.71996736825997
 20
49.53301264348355
 10
-77.8328343236509
 20
49.95259532511287
 10
-76.90884677254462
 20
50.28320335732209
 10
-75.95690322016128
 20
50.5216528040323
 10
-74.9861714032956
 20
50.66564726672197
 10
-74.006
 20
50.7138
 10
-74.005
 20
50.7138
 10
-73.02482859670438
 20
50.66564726672197
 10
-72.05409677983872
 20
50.5216528040323
 10
-71.10215322745537
 20
50.28320335732209
 10
-70.1781656763491
 20
49.95259532511287
 10
-69.29103263174002
 20
49.533012643483545
 10
-68.44929766980397
 20
49.02849612302545
 10
-67.66106715836354
 20
48.44390453362737
 10
-66.93393218813452
 20
47.784867811865475
 10
-66.27489546637263
 20
47.05773284163645
 10
-65.69030387697454
 20
46.26950233019602
 10
-65.18578735651644
 20
45.42776736825998
 10
-64.76620467488712
 20
44.5406343236509
 10
-64.43559664267791
 20
43.61664677254462
 10
-64.19714719596769
 20
42.66470322016128
 10
-64.05315273327803
 20
41.693971403295606
 10
-64.005
 20
40.7128
 10
-64.05315273327803
 20
39.732628596704394
 10
-64.19714719596769
 20
38.76189677983872
 10
-64.43559664267791
 20
37.80995322745538
 10
-64.76620467488712
 20
36.8859656763491
 10
-65.18578735651644
 20
35.99883263174002
 10
-65.69030387697454
 20
35.15709766980398
 10
-66.27489546637263
 20
34.36886715836354
 10
-66.93393218813452
 20
33.641732188134526
 10
-67.66106715836354
 20
32.98269546637263
 10
-68.44929766980397
 20
32.398103876974545
 10
-69.29103263174002
 20
31.893587356516452
 10
-70.1781656763491
 20
31.474004674887134
 10
-71.10215322745537
 20
31.143396642677914
 10
-72.05409677983872
 20
30.904947195967697
 10
-73.02482859670438
 20
30.76095273327803
 10
-74.005
 20
30.7128
 10
-74.006
 20
30.7128
 10
-74.9861714032956
 20
30.76095273327803
 10
-75.95690322016128
 20
30.904947195967697
 10
-76.90884677254462
 20
31.143396642677914
 10
-77.8328343236509
 20
31.474004674887134
 10
-78.71996736825997
 20
31.89358735651645
 10
-79.56170233019603
 20
32.398103876974545
 10
-80.34993284163646
 20
32.98269546637263
 10
-81.07706781186548
 20
33.641732188134526
 10
-81.73610453362737
 20
34.36886715836354
 10
-82.32069612302546
 20
35.15709766980398
 10
-82.82521264348355
 20
35.99883263174002
 10
-83.24479532511288
 20
36.8859656763491
 10
-83.57540335732209
 20
37.80995322745538
 10
-83.81385280403231
 20
38.761896779838715
 10
-83.95784726672197
 20
39.732628596704394
 10
-84.006
 20
40.7128
  0
TEXT
  5
80
330
17
100
AcDbEntity
  8
buffered_commercial
  6
Continuous
 62
7
370
60
100
AcDbText
 10
-74.00551226919504
 20
40.713300000000004
 30
0.0
 40
4.0
  1
Commercial Building A
  7
Arial
 72
1
 11
-74.00551226919504
 21
40.713300000000004
 31
0.0
100
AcDbText
 73
2
  0
LWPOLYLINE
  5
81
330
17
100
AcDbEntity
  8
study_area_boundary
  6
Continuous
 62
30
370
60
100
AcDbPolyline
 90
5
 70
1
 10
-59.004999999999995
 20
25.7128
 10
-59.004999999999995
 20
55.7258
 10
-89.012
 20
55.7258
 10
-89.012
 20
25.7128
 10
-59.004999999999995
 20
25.7128
  0
LWPOLYLINE
  5
82
330
17
100
AcDbEntity
  8
commercial_buildings
  6
Continuous
 62
30
370
60
100
AcDbPolyline
 90
5
 70
1
 10
-74.006
 20
40.7128
 10
-74.005
 20
40.7128
 10
-74.005
 20
40.7138
 10
-74.006
 20
40.7138
 10
-74.006
 20
40.7128
  0
TEXT
  5
83
330
17
100
AcDbEntity
  8
commercial_buildings
  6
Continuous
 62
7
370
60
100
AcDbText
 10
-74.0055
 20
40.713300000000004
 30
0.0
 40
4.0
  1
Commercial Building A
  7
Arial
 72
1
 11
-74.0055
 21
40.713300000000004
 31
0.0
100
AcDbText
 73
2
  0
LWPOLYLINE
  5
84
330
17
100
AcDbEntity
  8
residential_buildings
  6
Continuous
 62
211
370
50
100
AcDbPolyline
 90
5
 70
1
 10
-74.007
 20
40.7148
 10
-74.006
 20
40.7148
 10
-74.006
 20
40.7158
 10
-74.007
 20
40.7158
 10
-74.007
 20
40.7148
  0
TEXT
  5
85
330
17
100
AcDbEntity
  8
residential_buildings
  6
Continuous
 62
0
370
50
100
AcDbText
 10
-74.0065
 20
40.7153
 30
0.0
 40
3.5
  1
3
  7
Arial
 72
1
 11
-74.0065
 21
40.7153
 31
0.0
100
AcDbText
 73
2
  0
LWPOLYLINE
  5
86
330
17
100
AcDbEntity
  8
industrial_buildings
  6
Continuous
 62
8
370
70
100
AcDbPolyline
 90
5
 70
1
 10
-74.008
 20
40.7168
 10
-74.007
 20
40.7168
 10
-74.007
 20
40.7178
 10
-74.008
 20
40.7178
 10
-74.008
 20
40.7168
  0
TEXT
  5
87
330
17
100
AcDbEntity
  8
industrial_buildings
  6
Continuous
 62
2
370
70
100
AcDbText
 10
-74.0075
 20
40.717299999999994
 30
0.0
 40
3.0
  1
5000
  7
Arial
 72
1
 11
-74.0075
 21
40.717299999999994
 31
0.0
100
AcDbText
 73
2
  0
LWPOLYLINE
  5
88
330
17
100
AcDbEntity
  8
public_buildings
  6
Continuous
 62
5
370
60
100
AcDbPolyline
 90
5
 70
1
 10
-74.009
 20
40.7188
 10
-74.008
 20
40.7188
 10
-74.008
 20
40.7198
 10
-74.009
 20
40.7198
 10
-74.009
 20
40.7188
  0
TEXT
  5
89
330
17
100
AcDbEntity
  8
public_buildings
  6
Continuous
 62
7
370
60
100
AcDbText
 10
-74.0085
 20
40.719300000000004
 30
0.0
 40
4.0
  1
City Library
  7
Arial
 72
1
 11
-74.0085
 21
40.719300000000004
 31
0.0
100
AcDbText
 73
2
  0
LWPOLYLINE
  5
8A
330
17
100
AcDbEntity
  8
recreational_facilities
  6
Continuous
 62
3
370
50
100
AcDbPolyline
 90
5
 70
1
 10
-74.01
 20
40.7208
 10
-74.009
 20
40.7208
 10
-74.009
 20
40.7218
 10
-74.01
 20
40.7218
 10
-74.01
 20
40.7208
  0
TEXT
  5
8B
330
17
100
AcDbEntity
  8
recreational_facilities
  6
Continuous
 62
7
370
50
100
AcDbText
 10
-74.0095
 20
40.7213
 30
0.0
 40
3.5
  1
Sports Complex
  7
Arial
 72
1
 11
-74.0095
 21
40.7213
 31
0.0
100
AcDbText
 73
2
  0
LWPOLYLINE
  5
8C
330
17
100
AcDbEntity
  8
healthcare_facilities
  6
Continuous
 62
1
370
70
100
AcDbPolyline
 90
5
 70
1
 10
-74.011
 20
40.7228
 10
-74.01
 20
40.7228
 10
-74.01
 20
40.7238
 10
-74.011
 20
40.7238
 10
-74.011
 20
40.7228
  0
TEXT
  5
8D
330
17
100
AcDbEntity
  8
healthcare_facilities
  6
Continuous
 62
7
370
70
100
AcDbText
 10
-74.01050000000001
 20
40.723299999999995
 30
0.0
 40
3.5
  1
Medical Center
  7
Arial
 72
1
 11
-74.01050000000001
 21
40.723299999999995
 31
0.0
100
AcDbText
 73
2
  0
LWPOLYLINE
  5
8E
330
17
100
AcDbEntity
  8
educational_facilities
  6
Continuous
 62
4
370
60
100
AcDbPolyline
 90
5
 70
1
 10
-74.012
 20
40.7248
 10
-74.011
 20
40.7248
 10
-74.011
 20
40.7258
 10
-74.012
 20
40.7258
 10
-74.012
 20
40.7248
  0
TEXT
  5
8F
330
17
100
AcDbEntity
  8
educational_facilities
  6
Continuous
 62
0
370
60
100
AcDbText
 10
-74.0115
 20
40.725300000000004
 30
0.0
 40
3.5
  1
School Campus
  7
Arial
 72
1
 11
-74.0115
 21
40.725300000000004
 31
0.0
100
AcDbText
 73
2
  0
LWPOLYLINE
  5
90
330
17
100
AcDbEntity
  8
all_buildings
  6
Continuous
 62
30
370
60
100
AcDbPolyline
 90
5
 70
1
 10
-74.006
 20
40.7128
 10
-74.005
 20
40.7128
 10
-74.005
 20
40.7138
 10
-74.006
 20
40.7138
 10
-74.006
 20
40.7128
  0
TEXT
  5
91
330
17
100
AcDbEntity
  8
all_buildings
  6
Continuous
 62
7
370
60
100
AcDbText
 10
-74.0055
 20
40.713300000000004
 30
0.0
 40
4.0
  1
123 Main St
  7
Arial
 72
1
 11
-74.0055
 21
40.713300000000004
 31
0.0
100
AcDbText
 73
2
  0
LWPOLYLINE
  5
92
330
17
100
AcDbEntity
  8
all_buildings
  6
Continuous
 62
30
370
60
100
AcDbPolyline
 90
5
 70
1
 10
-74.007
 20
40.7148
 10
-74.006
 20
40.7148
 10
-74.006
 20
40.7158
 10
-74.007
 20
40.7158
 10
-74.007
 20
40.7148
  0
TEXT
  5
93
330
17
100
AcDbEntity
  8
all_buildings
  6
Continuous
 62
7
370
60
100
AcDbText
 10
-74.0065
 20
40.7153
 30
0.0
 40
4.0
  1
456 Oak Ave
  7
Arial
 72
1
 11
-74.0065
 21
40.7153
 31
0.0
100
AcDbText
 73
2
  0
LWPOLYLINE
  5
94
330
17
100
AcDbEntity
  8
all_buildings
  6
Continuous
 62
30
370
60
100
AcDbPolyline
 90
5
 70
1
 10
-74.008
 20
40.7168
 10
-74.007
 20
40.7168
 10
-74.007
 20
40.7178
 10
-74.008
 20
40.7178
 10
-74.008
 20
40.7168
  0
TEXT
  5
95
330
17
100
AcDbEntity
  8
all_buildings
  6
Continuous
 62
7
370
60
100
AcDbText
 10
-74.0075
 20
40.717299999999994
 30
0.0
 40
4.0
  1
789 Industrial Blvd
  7
Arial
 72
1
 11
-74.0075
 21
40.717299999999994
 31
0.0
100
AcDbText
 73
2
  0
LWPOLYLINE
  5
96
330
17
100
AcDbEntity
  8
all_buildings
  6
Continuous
 62
30
370
60
100
AcDbPolyline
 90
5
 70
1
 10
-74.009
 20
40.7188
 10
-74.008
 20
40.7188
 10
-74.008
 20
40.7198
 10
-74.009
 20
40.7198
 10
-74.009
 20
40.7188
  0
TEXT
  5
97
330
17
100
AcDbEntity
  8
all_buildings
  6
Continuous
 62
7
370
60
100
AcDbText
 10
-74.0085
 20
40.719300000000004
 30
0.0
 40
4.0
  1
321 Library St
  7
Arial
 72
1
 11
-74.0085
 21
40.719300000000004
 31
0.0
100
AcDbText
 73
2
  0
LWPOLYLINE
  5
98
330
17
100
AcDbEntity
  8
all_buildings
  6
Continuous
 62
30
370
60
100
AcDbPolyline
 90
5
 70
1
 10
-74.01
 20
40.7208
 10
-74.009
 20
40.7208
 10
-74.009
 20
40.7218
 10
-74.01
 20
40.7218
 10
-74.01
 20
40.7208
  0
TEXT
  5
99
330
17
100
AcDbEntity
  8
all_buildings
  6
Continuous
 62
7
370
60
100
AcDbText
 10
-74.0095
 20
40.7213
 30
0.0
 40
4.0
  1
654 Sports Way
  7
Arial
 72
1
 11
-74.0095
 21
40.7213
 31
0.0
100
AcDbText
 73
2
  0
LWPOLYLINE
  5
9A
330
17
100
AcDbEntity
  8
all_buildings
  6
Continuous
 62
30
370
60
100
AcDbPolyline
 90
5
 70
1
 10
-74.011
 20
40.7228
 10
-74.01
 20
40.7228
 10
-74.01
 20
40.7238
 10
-74.011
 20
40.7238
 10
-74.011
 20
40.7228
  0
TEXT
  5
9B
330
17
100
AcDbEntity
  8
all_buildings
  6
Continuous
 62
7
370
60
100
AcDbText
 10
-74.01050000000001
 20
40.723299999999995
 30
0.0
 40
4.0
  1
987 Health Ave
  7
Arial
 72
1
 11
-74.01050000000001
 21
40.723299999999995
 31
0.0
100
AcDbText
 73
2
  0
LWPOLYLINE
  5
9C
330
17
100
AcDbEntity
  8
all_buildings
  6
Continuous
 62
30
370
60
100
AcDbPolyline
 90
5
 70
1
 10
-74.012
 20
40.7248
 10
-74.011
 20
40.7248
 10
-74.011
 20
40.7258
 10
-74.012
 20
40.7258
 10
-74.012
 20
40.7248
  0
TEXT
  5
9D
330
17
100
AcDbEntity
  8
all_buildings
  6
Continuous
 62
7
370
60
100
AcDbText
 10
-74.0115
 20
40.725300000000004
 30
0.0
 40
4.0
  1
147 Education Dr
  7
Arial
 72
1
 11
-74.0115
 21
40.725300000000004
 31
0.0
100
AcDbText
 73
2
  0
LWPOLYLINE
  5
9E
330
17
100
AcDbEntity
  8
buffered_commercial
  6
Continuous
 62
30
370
60
100
AcDbPolyline
 90
68
 70
1
 10
-84.006
 20
40.7128
 10
-84.006
 20
40.7138
 10
-83.95784726672197
 20
41.693971403295606
 10
-83.81385280403231
 20
42.664703220161286
 10
-83.57540335732209
 20
43.61664677254463
 10
-83.24479532511288
 20
44.5406343236509
 10
-82.82521264348355
 20
45.42776736825998
 10
-82.32069612302546
 20
46.26950233019602
 10
-81.73610453362737
 20
47.05773284163645
 10
-81.07706781186548
 20
47.784867811865475
 10
-80.34993284163646
 20
48.44390453362737
 10
-79.56170233019603
 20
49.028496123025455
 10
-78.71996736825997
 20
49.53301264348355
 10
-77.8328343236509
 20
49.95259532511287
 10
-76.90884677254462
 20
50.28320335732209
 10
-75.95690322016128
 20
50.5216528040323
 10
-74.9861714032956
 20
50.66564726672197
 10
-74.006
 20
50.7138
 10
-74.005
 20
50.7138
 10
-73.02482859670438
 20
50.66564726672197
 10
-72.05409677983872
 20
50.5216528040323
 10
-71.10215322745537
 20
50.28320335732209
 10
-70.1781656763491
 20
49.95259532511287
 10
-69.29103263174002
 20
49.533012643483545
 10
-68.44929766980397
 20
49.02849612302545
 10
-67.66106715836354
 20
48.44390453362737
 10
-66.93393218813452
 20
47.784867811865475
 10
-66.27489546637263
 20
47.05773284163645
 10
-65.69030387697454
 20
46.26950233019602
 10
-65.18578735651644
 20
45.42776736825998
 10
-64.76620467488712
 20
44.5406343236509
 10
-64.43559664267791
 20
43.61664677254462
 10
-64.19714719596769
 20
42.66470322016128
 10
-64.05315273327803
 20
41.693971403295606
 10
-64.005
 20
40.7128
 10
-64.05315273327803
 20
39.732628596704394
 10
-64.19714719596769
 20
38.76189677983872
 10
-64.43559664267791
 20
37.80995322745538
 10
-64.76620467488712
 20
36.8859656763491
 10
-65.18578735651644
 20
35.99883263174002
 10
-65.69030387697454
 20
35.15709766980398
 10
-66.27489546637263
 20
34.36886715836354
 10
-66.93393218813452
 20
33.641732188134526
 10
-67.66106715836354
 20
32.98269546637263
 10
-68.44929766980397
 20
32.398103876974545
 10
-69.29103263174002
 20
31.893587356516452
 10
-70.1781656763491
 20
31.474004674887134
 10
-71.10215322745537
 20
31.143396642677914
 10
-72.05409677983872
 20
30.904947195967697
 10
-73.02482859670438
 20
30.76095273327803
 10
-74.005
 20
30.7128
 10
-74.006
 20
30.7128
 10
-74.9861714032956
 20
30.76095273327803
 10
-75.95690322016128
 20
30.904947195967697
 10
-76.90884677254462
 20
31.143396642677914
 10
-77.8328343236509
 20
31.474004674887134
 10
-78.71996736825997
 20
31.89358735651645
 10
-79.56170233019603
 20
32.398103876974545
 10
-80.34993284163646
 20
32.98269546637263
 10
-81.07706781186548
 20
33.641732188134526
 10
-81.73610453362737
 20
34.36886715836354
 10
-82.32069612302546
 20
35.15709766980398
 10
-82.82521264348355
 20
35.99883263174002
 10
-83.24479532511288
 20
36.8859656763491
 10
-83.57540335732209
 20
37.80995322745538
 10
-83.81385280403231
 20
38.761896779838715
 10
-83.95784726672197
 20
39.732628596704394
 10
-84.006
 20
40.7128
  0
TEXT
  5
9F
330
17
100
AcDbEntity
  8
buffered_commercial
  6
Continuous
 62
7
370
60
100
AcDbText
 10
-74.00551226919504
 20
40.713300000000004
 30
0.0
 40
4.0
  1
Commercial Building A
  7
Arial
 72
1
 11
-74.00551226919504
 21
40.713300000000004
 31
0.0
100
AcDbText
 73
2
  0
LWPOLYLINE
  5
A0
330
17
100
AcDbEntity
  8
study_area_boundary
  6
Continuous
 62
30
370
60
100
AcDbPolyline
 90
5
 70
1
 10
-59.004999999999995
 20
25.7128
 10
-59.004999999999995
 20
55.7258
 10
-89.012
 20
55.7258
 10
-89.012
 20
25.7128
 10
-59.004999999999995
 20
25.7128
  0
LWPOLYLINE
  5
A1
330
17
100
AcDbEntity
  8
commercial_buildings
100
AcDbPolyline
 90
5
 70
1
 10
-74.006
 20
40.7128
 10
-74.005
 20
40.7128
 10
-74.005
 20
40.7138
 10
-74.006
 20
40.7138
 10
-74.006
 20
40.7128
  0
TEXT
  5
A2
330
17
100
AcDbEntity
  8
commercial_buildings
 62
7
100
AcDbText
 10
-74.0055
 20
40.713300000000004
 30
0.0
 40
4.0
  1
Commercial Building A
  7
Arial
 72
1
 11
-74.0055
 21
40.713300000000004
 31
0.0
100
AcDbText
 73
2
  0
LWPOLYLINE
  5
A3
330
17
100
AcDbEntity
  8
residential_buildings
100
AcDbPolyline
 90
5
 70
1
 10
-74.007
 20
40.7148
 10
-74.006
 20
40.7148
 10
-74.006
 20
40.7158
 10
-74.007
 20
40.7158
 10
-74.007
 20
40.7148
  0
TEXT
  5
A4
330
17
100
AcDbEntity
  8
residential_buildings
 62
0
100
AcDbText
 10
-74.0065
 20
40.7153
 30
0.0
 40
3.5
  1
3
  7
Arial
 72
1
 11
-74.0065
 21
40.7153
 31
0.0
100
AcDbText
 73
2
  0
LWPOLYLINE
  5
A5
330
17
100
AcDbEntity
  8
industrial_buildings
100
AcDbPolyline
 90
5
 70
1
 10
-74.008
 20
40.7168
 10
-74.007
 20
40.7168
 10
-74.007
 20
40.7178
 10
-74.008
 20
40.7178
 10
-74.008
 20
40.7168
  0
TEXT
  5
A6
330
17
100
AcDbEntity
  8
industrial_buildings
 62
2
100
AcDbText
 10
-74.0075
 20
40.717299999999994
 30
0.0
 40
3.0
  1
5000
  7
Arial
 72
1
 11
-74.0075
 21
40.717299999999994
 31
0.0
100
AcDbText
 73
2
  0
LWPOLYLINE
  5
A7
330
17
100
AcDbEntity
  8
public_buildings
100
AcDbPolyline
 90
5
 70
1
 10
-74.009
 20
40.7188
 10
-74.008
 20
40.7188
 10
-74.008
 20
40.7198
 10
-74.009
 20
40.7198
 10
-74.009
 20
40.7188
  0
TEXT
  5
A8
330
17
100
AcDbEntity
  8
public_buildings
 62
7
100
AcDbText
 10
-74.0085
 20
40.719300000000004
 30
0.0
 40
4.0
  1
City Library
  7
Arial
 72
1
 11
-74.0085
 21
40.719300000000004
 31
0.0
100
AcDbText
 73
2
  0
LWPOLYLINE
  5
A9
330
17
100
AcDbEntity
  8
recreational_facilities
100
AcDbPolyline
 90
5
 70
1
 10
-74.01
 20
40.7208
 10
-74.009
 20
40.7208
 10
-74.009
 20
40.7218
 10
-74.01
 20
40.7218
 10
-74.01
 20
40.7208
  0
TEXT
  5
AA
330
17
100
AcDbEntity
  8
recreational_facilities
 62
7
100
AcDbText
 10
-74.0095
 20
40.7213
 30
0.0
 40
3.5
  1
Sports Complex
  7
Arial
 72
1
 11
-74.0095
 21
40.7213
 31
0.0
100
AcDbText
 73
2
  0
LWPOLYLINE
  5
AB
330
17
100
AcDbEntity
  8
healthcare_facilities
100
AcDbPolyline
 90
5
 70
1
 10
-74.011
 20
40.7228
 10
-74.01
 20
40.7228
 10
-74.01
 20
40.7238
 10
-74.011
 20
40.7238
 10
-74.011
 20
40.7228
  0
TEXT
  5
AC
330
17
100
AcDbEntity
  8
healthcare_facilities
 62
7
100
AcDbText
 10
-74.01050000000001
 20
40.723299999999995
 30
0.0
 40
3.5
  1
Medical Center
  7
Arial
 72
1
 11
-74.01050000000001
 21
40.723299999999995
 31
0.0
100
AcDbText
 73
2
  0
LWPOLYLINE
  5
AD
330
17
100
AcDbEntity
  8
educational_facilities
100
AcDbPolyline
 90
5
 70
1
 10
-74.012
 20
40.7248
 10
-74.011
 20
40.7248
 10
-74.011
 20
40.7258
 10
-74.012
 20
40.7258
 10
-74.012
 20
40.7248
  0
TEXT
  5
AE
330
17
100
AcDbEntity
  8
educational_facilities
 62
0
100
AcDbText
 10
-74.0115
 20
40.725300000000004
 30
0.0
 40
3.5
  1
School Campus
  7
Arial
 72
1
 11
-74.0115
 21
40.725300000000004
 31
0.0
100
AcDbText
 73
2
  0
LWPOLYLINE
  5
AF
330
17
100
AcDbEntity
  8
all_buildings
100
AcDbPolyline
 90
5
 70
1
 10
-74.006
 20
40.7128
 10
-74.005
 20
40.7128
 10
-74.005
 20
40.7138
 10
-74.006
 20
40.7138
 10
-74.006
 20
40.7128
  0
TEXT
  5
B0
330
17
100
AcDbEntity
  8
all_buildings
 62
7
100
AcDbText
 10
-74.0055
 20
40.713300000000004
 30
0.0
 40
4.0
  1
123 Main St
  7
Arial
 72
1
 11
-74.0055
 21
40.713300000000004
 31
0.0
100
AcDbText
 73
2
  0
LWPOLYLINE
  5
B1
330
17
100
AcDbEntity
  8
all_buildings
100
AcDbPolyline
 90
5
 70
1
 10
-74.007
 20
40.7148
 10
-74.006
 20
40.7148
 10
-74.006
 20
40.7158
 10
-74.007
 20
40.7158
 10
-74.007
 20
40.7148
  0
TEXT
  5
B2
330
17
100
AcDbEntity
  8
all_buildings
 62
7
100
AcDbText
 10
-74.0065
 20
40.7153
 30
0.0
 40
4.0
  1
456 Oak Ave
  7
Arial
 72
1
 11
-74.0065
 21
40.7153
 31
0.0
100
AcDbText
 73
2
  0
LWPOLYLINE
  5
B3
330
17
100
AcDbEntity
  8
all_buildings
100
AcDbPolyline
 90
5
 70
1
 10
-74.008
 20
40.7168
 10
-74.007
 20
40.7168
 10
-74.007
 20
40.7178
 10
-74.008
 20
40.7178
 10
-74.008
 20
40.7168
  0
TEXT
  5
B4
330
17
100
AcDbEntity
  8
all_buildings
 62
7
100
AcDbText
 10
-74.0075
 20
40.717299999999994
 30
0.0
 40
4.0
  1
789 Industrial Blvd
  7
Arial
 72
1
 11
-74.0075
 21
40.717299999999994
 31
0.0
100
AcDbText
 73
2
  0
LWPOLYLINE
  5
B5
330
17
100
AcDbEntity
  8
all_buildings
100
AcDbPolyline
 90
5
 70
1
 10
-74.009
 20
40.7188
 10
-74.008
 20
40.7188
 10
-74.008
 20
40.7198
 10
-74.009
 20
40.7198
 10
-74.009
 20
40.7188
  0
TEXT
  5
B6
330
17
100
AcDbEntity
  8
all_buildings
 62
7
100
AcDbText
 10
-74.0085
 20
40.719300000000004
 30
0.0
 40
4.0
  1
321 Library St
  7
Arial
 72
1
 11
-74.0085
 21
40.719300000000004
 31
0.0
100
AcDbText
 73
2
  0
LWPOLYLINE
  5
B7
330
17
100
AcDbEntity
  8
all_buildings
100
AcDbPolyline
 90
5
 70
1
 10
-74.01
 20
40.7208
 10
-74.009
 20
40.7208
 10
-74.009
 20
40.7218
 10
-74.01
 20
40.7218
 10
-74.01
 20
40.7208
  0
TEXT
  5
B8
330
17
100
AcDbEntity
  8
all_buildings
 62
7
100
AcDbText
 10
-74.0095
 20
40.7213
 30
0.0
 40
4.0
  1
654 Sports Way
  7
Arial
 72
1
 11
-74.0095
 21
40.7213
 31
0.0
100
AcDbText
 73
2
  0
LWPOLYLINE
  5
B9
330
17
100
AcDbEntity
  8
all_buildings
100
AcDbPolyline
 90
5
 70
1
 10
-74.011
 20
40.7228
 10
-74.01
 20
40.7228
 10
-74.01
 20
40.7238
 10
-74.011
 20
40.7238
 10
-74.011
 20
40.7228
  0
TEXT
  5
BA
330
17
100
AcDbEntity
  8
all_buildings
 62
7
100
AcDbText
 10
-74.01050000000001
 20
40.723299999999995
 30
0.0
 40
4.0
  1
987 Health Ave
  7
Arial
 72
1
 11
-74.01050000000001
 21
40.723299999999995
 31
0.0
100
AcDbText
 73
2
  0
LWPOLYLINE
  5
BB
330
17
100
AcDbEntity
  8
all_buildings
100
AcDbPolyline
 90
5
 70
1
 10
-74.012
 20
40.7248
 10
-74.011
 20
40.7248
 10
-74.011
 20
40.7258
 10
-74.012
 20
40.7258
 10
-74.012
 20
40.7248
  0
TEXT
  5
BC
330
17
100
AcDbEntity
  8
all_buildings
 62
7
100
AcDbText
 10
-74.0115
 20
40.725300000000004
 30
0.0
 40
4.0
  1
147 Education Dr
  7
Arial
 72
1
 11
-74.0115
 21
40.725300000000004
 31
0.0
100
AcDbText
 73
2
  0
LWPOLYLINE
  5
BD
330
17
100
AcDbEntity
  8
buffered_commercial
100
AcDbPolyline
 90
68
 70
1
 10
-84.006
 20
40.7128
 10
-84.006
 20
40.7138
 10
-83.95784726672197
 20
41.693971403295606
 10
-83.81385280403231
 20
42.664703220161286
 10
-83.57540335732209
 20
43.61664677254463
 10
-83.24479532511288
 20
44.5406343236509
 10
-82.82521264348355
 20
45.42776736825998
 10
-82.32069612302546
 20
46.26950233019602
 10
-81.73610453362737
 20
47.05773284163645
 10
-81.07706781186548
 20
47.784867811865475
 10
-80.34993284163646
 20
48.44390453362737
 10
-79.56170233019603
 20
49.028496123025455
 10
-78.71996736825997
 20
49.53301264348355
 10
-77.8328343236509
 20
49.95259532511287
 10
-76.90884677254462
 20
50.28320335732209
 10
-75.95690322016128
 20
50.5216528040323
 10
-74.9861714032956
 20
50.66564726672197
 10
-74.006
 20
50.7138
 10
-74.005
 20
50.7138
 10
-73.02482859670438
 20
50.66564726672197
 10
-72.05409677983872
 20
50.5216528040323
 10
-71.10215322745537
 20
50.28320335732209
 10
-70.1781656763491
 20
49.95259532511287
 10
-69.29103263174002
 20
49.533012643483545
 10
-68.44929766980397
 20
49.02849612302545
 10
-67.66106715836354
 20
48.44390453362737
 10
-66.93393218813452
 20
47.784867811865475
 10
-66.27489546637263
 20
47.05773284163645
 10
-65.69030387697454
 20
46.26950233019602
 10
-65.18578735651644
 20
45.42776736825998
 10
-64.76620467488712
 20
44.5406343236509
 10
-64.43559664267791
 20
43.61664677254462
 10
-64.19714719596769
 20
42.66470322016128
 10
-64.05315273327803
 20
41.693971403295606
 10
-64.005
 20
40.7128
 10
-64.05315273327803
 20
39.732628596704394
 10
-64.19714719596769
 20
38.76189677983872
 10
-64.43559664267791
 20
37.80995322745538
 10
-64.76620467488712
 20
36.8859656763491
 10
-65.18578735651644
 20
35.99883263174002
 10
-65.69030387697454
 20
35.15709766980398
 10
-66.27489546637263
 20
34.36886715836354
 10
-66.93393218813452
 20
33.641732188134526
 10
-67.66106715836354
 20
32.98269546637263
 10
-68.44929766980397
 20
32.398103876974545
 10
-69.29103263174002
 20
31.893587356516452
 10
-70.1781656763491
 20
31.474004674887134
 10
-71.10215322745537
 20
31.143396642677914
 10
-72.05409677983872
 20
30.904947195967697
 10
-73.02482859670438
 20
30.76095273327803
 10
-74.005
 20
30.7128
 10
-74.006
 20
30.7128
 10
-74.9861714032956
 20
30.76095273327803
 10
-75.95690322016128
 20
30.904947195967697
 10
-76.90884677254462
 20
31.143396642677914
 10
-77.8328343236509
 20
31.474004674887134
 10
-78.71996736825997
 20
31.89358735651645
 10
-79.56170233019603
 20
32.398103876974545
 10
-80.34993284163646
 20
32.98269546637263
 10
-81.07706781186548
 20
33.641732188134526
 10
-81.73610453362737
 20
34.36886715836354
 10
-82.32069612302546
 20
35.15709766980398
 10
-82.82521264348355
 20
35.99883263174002
 10
-83.24479532511288
 20
36.8859656763491
 10
-83.57540335732209
 20
37.80995322745538
 10
-83.81385280403231
 20
38.761896779838715
 10
-83.95784726672197
 20
39.732628596704394
 10
-84.006
 20
40.7128
  0
TEXT
  5
BE
330
17
100
AcDbEntity
  8
buffered_commercial
 62
7
100
AcDbText
 10
-74.00551226919504
 20
40.713300000000004
 30
0.0
 40
4.0
  1
Commercial Building A
  7
Arial
 72
1
 11
-74.00551226919504
 21
40.713300000000004
 31
0.0
100
AcDbText
 73
2
  0
LWPOLYLINE
  5
BF
330
17
100
AcDbEntity
  8
study_area_boundary
100
AcDbPolyline
 90
5
 70
1
 10
-59.004999999999995
 20
25.7128
 10
-59.004999999999995
 20
55.7258
 10
-89.012
 20
55.7258
 10
-89.012
 20
25.7128
 10
-59.004999999999995
 20
25.7128
  0
ENDSEC
  0
SECTION
  2
OBJECTS
  0
DICTIONARY
  5
A
330
0
100
AcDbDictionary
280
0
281
1
  3
ACAD_COLOR
350
B
  3
ACAD_GROUP
350
C
  3
ACAD_LAYOUT
350
D
  3
ACAD_MATERIAL
350
E
  3
ACAD_MLEADERSTYLE
350
F
  3
ACAD_MLINESTYLE
350
10
  3
ACAD_PLOTSETTINGS
350
11
  3
ACAD_PLOTSTYLENAME
350
12
  3
ACAD_SCALELIST
350
14
  3
ACAD_TABLESTYLE
350
15
  3
ACAD_VISUALSTYLE
350
16
  3
EZDXF_META
350
2D
  0
DICTIONARY
  5
B
330
A
100
AcDbDictionary
280
0
281
1
  0
DICTIONARY
  5
C
330
A
100
AcDbDictionary
280
0
281
1
  0
DICTIONARY
  5
D
330
A
100
AcDbDictionary
280
0
281
1
  3
Model
350
1A
  3
Layout1
350
1E
  0
DICTIONARY
  5
E
330
A
100
AcDbDictionary
280
0
281
1
  3
ByBlock
350
1F
  3
ByLayer
350
20
  3
Global
350
21
  0
DICTIONARY
  5
F
330
A
100
AcDbDictionary
280
0
281
1
  3
Standard
350
2C
  0
DICTIONARY
  5
10
330
A
100
AcDbDictionary
280
0
281
1
  3
Standard
350
22
  0
DICTIONARY
  5
11
330
A
100
AcDbDictionary
280
0
281
1
  0
ACDBDICTIONARYWDFLT
  5
12
330
A
100
AcDbDictionary
280
0
281
1
  3
Normal
350
13
100
AcDbDictionaryWithDefault
340
13
  0
ACDBPLACEHOLDER
  5
13
330
12
  0
DICTIONARY
  5
14
330
A
100
AcDbDictionary
280
0
281
1
  0
DICTIONARY
  5
15
330
A
100
AcDbDictionary
280
0
281
1
  0
DICTIONARY
  5
16
330
A
100
AcDbDictionary
280
0
281
1
  0
LAYOUT
  5
1A
330
D
100
AcDbPlotSettings
  1

  4
A3
  6

 40
7.5
 41
20.0
 42
7.5
 43
20.0
 44
420.0
 45
297.0
 46
0.0
 47
0.0
 48
0.0
 49
0.0
140
0.0
141
0.0
142
1.0
143
1.0
 70
1024
 72
1
 73
0
 74
5
  7

 75
16
 76
0
 77
2
 78
300
147
1.0
148
0.0
149
0.0
100
AcDbLayout
  1
Model
 70
1
 71
0
 10
0.0
 20
0.0
 11
420.0
 21
297.0
 12
0.0
 22
0.0
 32
0.0
 14
1e+20
 24
1e+20
 34
1e+20
 15
-1e+20
 25
-1e+20
 35
-1e+20
146
0.0
 13
0.0
 23
0.0
 33
0.0
 16
1.0
 26
0.0
 36
0.0
 17
0.0
 27
1.0
 37
0.0
 76
1
330
17
  0
LAYOUT
  5
1E
330
D
100
AcDbPlotSettings
  1

  4
A3
  6

 40
7.5
 41
20.0
 42
7.5
 43
20.0
 44
420.0
 45
297.0
 46
0.0
 47
0.0
 48
0.0
 49
0.0
140
0.0
141
0.0
142
1.0
143
1.0
 70
0
 72
1
 73
0
 74
5
  7

 75
16
 76
0
 77
2
 78
300
147
1.0
148
0.0
149
0.0
100
AcDbLayout
  1
Layout1
 70
1
 71
1
 10
0.0
 20
0.0
 11
420.0
 21
297.0
 12
0.0
 22
0.0
 32
0.0
 14
1e+20
 24
1e+20
 34
1e+20
 15
-1e+20
 25
-1e+20
 35
-1e+20
146
0.0
 13
0.0
 23
0.0
 33
0.0
 16
1.0
 26
0.0
 36
0.0
 17
0.0
 27
1.0
 37
0.0
 76
1
330
1B
  0
MATERIAL
  5
1F
102
{ACAD_REACTORS
330
E
102
}
330
E
100
AcDbMaterial
  1
ByBlock
  2

 70
0
 40
1.0
 71
1
 41
1.0
 91
-1023410177
 42
1.0
 72
1
  3

 73
1
 74
1
 75
1
 44
0.5
 73
0
 45
1.0
 46
1.0
 77
1
  4

 78
1
 79
1
170
1
 48
1.0
171
1
  6

172
1
173
1
174
1
140
1.0
141
1.0
175
1
  7

176
1
177
1
178
1
143
1.0
179
1
  8

270
1
271
1
272
1
145
1.0
146
1.0
273
1
  9

274
1
275
1
276
1
 42
1.0
 72
1
  3

 73
1
 74
1
 75
1
 94
63
  0
MATERIAL
  5
20
102
{ACAD_REACTORS
330
E
102
}
330
E
100
AcDbMaterial
  1
ByLayer
  2

 70
0
 40
1.0
 71
1
 41
1.0
 91
-1023410177
 42
1.0
 72
1
  3

 73
1
 74
1
 75
1
 44
0.5
 73
0
 45
1.0
 46
1.0
 77
1
  4

 78
1
 79
1
170
1
 48
1.0
171
1
  6

172
1
173
1
174
1
140
1.0
141
1.0
175
1
  7

176
1
177
1
178
1
143
1.0
179
1
  8

270
1
271
1
272
1
145
1.0
146
1.0
273
1
  9

274
1
275
1
276
1
 42
1.0
 72
1
  3

 73
1
 74
1
 75
1
 94
63
  0
MATERIAL
  5
21
102
{ACAD_REACTORS
330
E
102
}
330
E
100
AcDbMaterial
  1
Global
  2

 70
0
 40
1.0
 71
1
 41
1.0
 91
-1023410177
 42
1.0
 72
1
  3

 73
1
 74
1
 75
1
 44
0.5
 73
0
 45
1.0
 46
1.0
 77
1
  4

 78
1
 79
1
170
1
 48
1.0
171
1
  6

172
1
173
1
174
1
140
1.0
141
1.0
175
1
  7

176
1
177
1
178
1
143
1.0
179
1
  8

270
1
271
1
272
1
145
1.0
146
1.0
273
1
  9

274
1
275
1
276
1
 42
1.0
 72
1
  3

 73
1
 74
1
 75
1
 94
63
  0
MLINESTYLE
  5
22
102
{ACAD_REACTORS
330
10
102
}
330
10
100
AcDbMlineStyle
  2
Standard
 70
0
  3

 62
256
 51
90.0
 52
90.0
 71
2
 49
0.5
 62
256
  6
BYLAYER
 49
-0.5
 62
256
  6
BYLAYER
  0
MLEADERSTYLE
  5
2C
102
{ACAD_REACTORS
330
F
102
}
330
F
100
AcDbMLeaderStyle
179
2
170
2
171
1
172
0
 90
2
 40
0.0
 41
0.0
173
1
 91
-1056964608
 92
-2
290
1
 42
2.0
291
1
 43
8.0
  3
Standard
 44
4.0
300

342
29
174
1
175
1
176
0
178
1
 93
-1056964608
 45
4.0
292
0
297
0
 46
4.0
 94
-1056964608
 47
1.0
 49
1.0
140
1.0
294
1
141
0.0
177
0
142
1.0
295
0
296
0
143
3.75
271
0
272
9
273
9
  0
DICTIONARY
  5
2D
330
A
100
AcDbDictionary
281
1
  3
CREATED_BY_EZDXF
350
2E
  3
WRITTEN_BY_EZDXF
350
62
  0
DICTIONARYVAR
  5
2E
330
2D
100
DictionaryVariables
280
0
  1
1.4.1 @ 2025-05-25T18:33:20.441132+00:00
  0
DICTIONARYVAR
  5
62
330
2D
100
DictionaryVariables
280
0
  1
1.4.1 @ 2025-05-25T18:41:49.422934+00:00
  0
ENDSEC
  0
EOF
