  0
SECTION
  2
HEADER
  9
$ACADVER
  1
AC1024
  9
$ACADMAINTVER
 70
6
  9
$DWGCODEPAGE
  3
ANSI_1252
  9
$LASTSAVEDBY
  1
ezdxf
  9
$INSBASE
 10
0.0
 20
0.0
 30
0.0
  9
$EXTMIN
 10
1e+20
 20
1e+20
 30
1e+20
  9
$EXTMAX
 10
-1e+20
 20
-1e+20
 30
-1e+20
  9
$LIMMIN
 10
0.0
 20
0.0
  9
$LIMMAX
 10
420.0
 20
297.0
  9
$ORTHOMODE
 70
0
  9
$REGENMODE
 70
1
  9
$FILLMODE
 70
1
  9
$QTEXTMODE
 70
0
  9
$MIRRTEXT
 70
1
  9
$LTSCALE
 40
1.0
  9
$ATTMODE
 70
1
  9
$TEXTSIZE
 40
2.5
  9
$TRACEWID
 40
1.0
  9
$TEXTSTYLE
  7
Standard
  9
$CLAYER
  8
0
  9
$CELTYPE
  6
ByLayer
  9
$CECOLOR
 62
256
  9
$CELTSCALE
 40
1.0
  9
$DISPSILH
 70
0
  9
$DIMSCALE
 40
1.0
  9
$DIMASZ
 40
2.5
  9
$DIMEXO
 40
0.625
  9
$DIMDLI
 40
3.75
  9
$DIMRND
 40
0.0
  9
$DIMDLE
 40
0.0
  9
$DIMEXE
 40
1.25
  9
$DIMTP
 40
0.0
  9
$DIMTM
 40
0.0
  9
$DIMTXT
 40
2.5
  9
$DIMCEN
 40
2.5
  9
$DIMTSZ
 40
0.0
  9
$DIMTOL
 70
0
  9
$DIMLIM
 70
0
  9
$DIMTIH
 70
0
  9
$DIMTOH
 70
0
  9
$DIMSE1
 70
0
  9
$DIMSE2
 70
0
  9
$DIMTAD
 70
1
  9
$DIMZIN
 70
8
  9
$DIMBLK
  1

  9
$DIMASO
 70
1
  9
$DIMSHO
 70
1
  9
$DIMPOST
  1

  9
$DIMAPOST
  1

  9
$DIMALT
 70
0
  9
$DIMALTD
 70
3
  9
$DIMALTF
 40
0.03937007874
  9
$DIMLFAC
 40
1.0
  9
$DIMTOFL
 70
1
  9
$DIMTVP
 40
0.0
  9
$DIMTIX
 70
0
  9
$DIMSOXD
 70
0
  9
$DIMSAH
 70
0
  9
$DIMBLK1
  1

  9
$DIMBLK2
  1

  9
$DIMSTYLE
  2
ISO-25
  9
$DIMCLRD
 70
0
  9
$DIMCLRE
 70
0
  9
$DIMCLRT
 70
0
  9
$DIMTFAC
 40
1.0
  9
$DIMGAP
 40
0.625
  9
$DIMJUST
 70
0
  9
$DIMSD1
 70
0
  9
$DIMSD2
 70
0
  9
$DIMTOLJ
 70
0
  9
$DIMTZIN
 70
8
  9
$DIMALTZ
 70
0
  9
$DIMALTTZ
 70
0
  9
$DIMUPT
 70
0
  9
$DIMDEC
 70
2
  9
$DIMTDEC
 70
2
  9
$DIMALTU
 70
2
  9
$DIMALTTD
 70
3
  9
$DIMTXSTY
  7
Standard
  9
$DIMAUNIT
 70
0
  9
$DIMADEC
 70
0
  9
$DIMALTRND
 40
0.0
  9
$DIMAZIN
 70
0
  9
$DIMDSEP
 70
44
  9
$DIMATFIT
 70
3
  9
$DIMFRAC
 70
0
  9
$DIMLDRBLK
  1

  9
$DIMLUNIT
 70
2
  9
$DIMLWD
 70
-2
  9
$DIMLWE
 70
-2
  9
$DIMTMOVE
 70
0
  9
$DIMFXL
 40
1.0
  9
$DIMFXLON
 70
0
  9
$DIMJOGANG
 40
0.785398163397
  9
$DIMTFILL
 70
0
  9
$DIMTFILLCLR
 70
0
  9
$DIMARCSYM
 70
0
  9
$DIMLTYPE
  6

  9
$DIMLTEX1
  6

  9
$DIMLTEX2
  6

  9
$DIMTXTDIRECTION
 70
0
  9
$LUNITS
 70
2
  9
$LUPREC
 70
4
  9
$SKETCHINC
 40
1.0
  9
$FILLETRAD
 40
10.0
  9
$AUNITS
 70
0
  9
$AUPREC
 70
2
  9
$MENU
  1
.
  9
$ELEVATION
 40
0.0
  9
$PELEVATION
 40
0.0
  9
$THICKNESS
 40
0.0
  9
$LIMCHECK
 70
0
  9
$CHAMFERA
 40
0.0
  9
$CHAMFERB
 40
0.0
  9
$CHAMFERC
 40
0.0
  9
$CHAMFERD
 40
0.0
  9
$SKPOLY
 70
0
  9
$TDCREATE
 40
2460829.633773148
  9
$TDUCREATE
 40
2458532.153996898
  9
$TDUPDATE
 40
2460829.633773148
  9
$TDUUPDATE
 40
2458532.1544311
  9
$TDINDWG
 40
0.0
  9
$TDUSRTIMER
 40
0.0
  9
$USRTIMER
 70
1
  9
$ANGBASE
 50
0.0
  9
$ANGDIR
 70
0
  9
$PDMODE
 70
0
  9
$PDSIZE
 40
0.0
  9
$PLINEWID
 40
0.0
  9
$SPLFRAME
 70
0
  9
$SPLINETYPE
 70
6
  9
$SPLINESEGS
 70
8
  9
$HANDSEED
  5
74
  9
$SURFTAB1
 70
6
  9
$SURFTAB2
 70
6
  9
$SURFTYPE
 70
6
  9
$SURFU
 70
6
  9
$SURFV
 70
6
  9
$UCSBASE
  2

  9
$UCSNAME
  2

  9
$UCSORG
 10
0.0
 20
0.0
 30
0.0
  9
$UCSXDIR
 10
1.0
 20
0.0
 30
0.0
  9
$UCSYDIR
 10
0.0
 20
1.0
 30
0.0
  9
$UCSORTHOREF
  2

  9
$UCSORTHOVIEW
 70
0
  9
$UCSORGTOP
 10
0.0
 20
0.0
 30
0.0
  9
$UCSORGBOTTOM
 10
0.0
 20
0.0
 30
0.0
  9
$UCSORGLEFT
 10
0.0
 20
0.0
 30
0.0
  9
$UCSORGRIGHT
 10
0.0
 20
0.0
 30
0.0
  9
$UCSORGFRONT
 10
0.0
 20
0.0
 30
0.0
  9
$UCSORGBACK
 10
0.0
 20
0.0
 30
0.0
  9
$PUCSBASE
  2

  9
$PUCSNAME
  2

  9
$PUCSORG
 10
0.0
 20
0.0
 30
0.0
  9
$PUCSXDIR
 10
1.0
 20
0.0
 30
0.0
  9
$PUCSYDIR
 10
0.0
 20
1.0
 30
0.0
  9
$PUCSORTHOREF
  2

  9
$PUCSORTHOVIEW
 70
0
  9
$PUCSORGTOP
 10
0.0
 20
0.0
 30
0.0
  9
$PUCSORGBOTTOM
 10
0.0
 20
0.0
 30
0.0
  9
$PUCSORGLEFT
 10
0.0
 20
0.0
 30
0.0
  9
$PUCSORGRIGHT
 10
0.0
 20
0.0
 30
0.0
  9
$PUCSORGFRONT
 10
0.0
 20
0.0
 30
0.0
  9
$PUCSORGBACK
 10
0.0
 20
0.0
 30
0.0
  9
$USERI1
 70
0
  9
$USERI2
 70
0
  9
$USERI3
 70
0
  9
$USERI4
 70
0
  9
$USERI5
 70
0
  9
$USERR1
 40
0.0
  9
$USERR2
 40
0.0
  9
$USERR3
 40
0.0
  9
$USERR4
 40
0.0
  9
$USERR5
 40
0.0
  9
$WORLDVIEW
 70
1
  9
$SHADEDGE
 70
3
  9
$SHADEDIF
 70
70
  9
$TILEMODE
 70
1
  9
$MAXACTVP
 70
64
  9
$PINSBASE
 10
0.0
 20
0.0
 30
0.0
  9
$PLIMCHECK
 70
0
  9
$PEXTMIN
 10
1e+20
 20
1e+20
 30
1e+20
  9
$PEXTMAX
 10
-1e+20
 20
-1e+20
 30
-1e+20
  9
$PLIMMIN
 10
0.0
 20
0.0
  9
$PLIMMAX
 10
420.0
 20
297.0
  9
$UNITMODE
 70
0
  9
$VISRETAIN
 70
1
  9
$PLINEGEN
 70
0
  9
$PSLTSCALE
 70
1
  9
$TREEDEPTH
 70
3020
  9
$CMLSTYLE
  2
Standard
  9
$CMLJUST
 70
0
  9
$CMLSCALE
 40
20.0
  9
$PROXYGRAPHICS
 70
1
  9
$MEASUREMENT
 70
1
  9
$CELWEIGHT
370
-1
  9
$ENDCAPS
280
0
  9
$JOINSTYLE
280
0
  9
$LWDISPLAY
290
0
  9
$INSUNITS
 70
6
  9
$HYPERLINKBASE
  1

  9
$STYLESHEET
  1

  9
$XEDIT
290
1
  9
$CEPSNTYPE
380
0
  9
$PSTYLEMODE
290
1
  9
$FINGERPRINTGUID
  2
{857B0593-DB8A-47BC-A50D-6B5FC1797A2F}
  9
$VERSIONGUID
  2
{2A04E000-80C2-488C-848B-4E509D2E8CD8}
  9
$EXTNAMES
290
1
  9
$PSVPSCALE
 40
0.0
  9
$OLESTARTUP
290
0
  9
$SORTENTS
280
127
  9
$INDEXCTL
280
0
  9
$HIDETEXT
280
1
  9
$XCLIPFRAME
280
1
  9
$HALOGAP
280
0
  9
$OBSCOLOR
 70
257
  9
$OBSLTYPE
280
0
  9
$INTERSECTIONDISPLAY
280
0
  9
$INTERSECTIONCOLOR
 70
257
  9
$DIMASSOC
280
2
  9
$PROJECTNAME
  1

  9
$CAMERADISPLAY
290
0
  9
$LENSLENGTH
 40
50.0
  9
$CAMERAHEIGHT
 40
0.0
  9
$STEPSPERSEC
 40
24.0
  9
$STEPSIZE
 40
100.0
  9
$3DDWFPREC
 40
2.0
  9
$PSOLWIDTH
 40
0.005
  9
$PSOLHEIGHT
 40
0.08
  9
$LOFTANG1
 40
1.570796326795
  9
$LOFTANG2
 40
1.570796326795
  9
$LOFTMAG1
 40
0.0
  9
$LOFTMAG2
 40
0.0
  9
$LOFTPARAM
 70
7
  9
$LOFTNORMALS
280
1
  9
$LATITUDE
 40
37.795
  9
$LONGITUDE
 40
-122.394
  9
$NORTHDIRECTION
 40
0.0
  9
$TIMEZONE
 70
-8000
  9
$LIGHTGLYPHDISPLAY
280
1
  9
$TILEMODELIGHTSYNCH
280
1
  9
$CMATERIAL
347
20
  9
$SOLIDHIST
280
0
  9
$SHOWHIST
280
1
  9
$DWFFRAME
280
2
  9
$DGNFRAME
280
2
  9
$REALWORLDSCALE
290
1
  9
$INTERFERECOLOR
 62
256
  9
$CSHADOW
280
0
  9
$SHADOWPLANELOCATION
 40
0.0
  0
ENDSEC
  0
SECTION
  2
CLASSES
  0
CLASS
  1
ACDBDICTIONARYWDFLT
  2
AcDbDictionaryWithDefault
  3
ObjectDBX Classes
 90
0
 91
0
280
0
281
0
  0
CLASS
  1
SUN
  2
AcDbSun
  3
SCENEOE
 90
1153
 91
0
280
0
281
0
  0
CLASS
  1
VISUALSTYLE
  2
AcDbVisualStyle
  3
ObjectDBX Classes
 90
4095
 91
0
280
0
281
0
  0
CLASS
  1
MATERIAL
  2
AcDbMaterial
  3
ObjectDBX Classes
 90
1153
 91
0
280
0
281
0
  0
CLASS
  1
SCALE
  2
AcDbScale
  3
ObjectDBX Classes
 90
1153
 91
0
280
0
281
0
  0
CLASS
  1
TABLESTYLE
  2
AcDbTableStyle
  3
ObjectDBX Classes
 90
4095
 91
0
280
0
281
0
  0
CLASS
  1
MLEADERSTYLE
  2
AcDbMLeaderStyle
  3
ACDB_MLEADERSTYLE_CLASS
 90
4095
 91
0
280
0
281
0
  0
CLASS
  1
DICTIONARYVAR
  2
AcDbDictionaryVar
  3
ObjectDBX Classes
 90
0
 91
0
280
0
281
0
  0
CLASS
  1
CELLSTYLEMAP
  2
AcDbCellStyleMap
  3
ObjectDBX Classes
 90
1152
 91
0
280
0
281
0
  0
CLASS
  1
MENTALRAYRENDERSETTINGS
  2
AcDbMentalRayRenderSettings
  3
SCENEOE
 90
1024
 91
0
280
0
281
0
  0
CLASS
  1
ACDBDETAILVIEWSTYLE
  2
AcDbDetailViewStyle
  3
ObjectDBX Classes
 90
1025
 91
0
280
0
281
0
  0
CLASS
  1
ACDBSECTIONVIEWSTYLE
  2
AcDbSectionViewStyle
  3
ObjectDBX Classes
 90
1025
 91
0
280
0
281
0
  0
CLASS
  1
RASTERVARIABLES
  2
AcDbRasterVariables
  3
ISM
 90
0
 91
0
280
0
281
0
  0
CLASS
  1
ACDBPLACEHOLDER
  2
AcDbPlaceHolder
  3
ObjectDBX Classes
 90
0
 91
0
280
0
281
0
  0
CLASS
  1
LAYOUT
  2
AcDbLayout
  3
ObjectDBX Classes
 90
0
 91
0
280
0
281
0
  0
ENDSEC
  0
SECTION
  2
TABLES
  0
TABLE
  2
VPORT
  5
8
330
0
100
AcDbSymbolTable
 70
1
  0
VPORT
  5
23
330
8
100
AcDbSymbolTableRecord
100
AcDbViewportTableRecord
  2
*Active
 70
0
 10
0.0
 20
0.0
 11
1.0
 21
1.0
 12
0.0
 22
0.0
 13
0.0
 23
0.0
 14
0.5
 24
0.5
 15
0.5
 25
0.5
 16
0.0
 26
0.0
 36
1.0
 17
0.0
 27
0.0
 37
0.0
 40
1000.0
 41
1.34
 42
50.0
 43
0.0
 44
0.0
 50
0.0
 51
0.0
 71
0
 72
1000
 73
1
 74
3
 75
0
 76
0
 77
0
 78
0
281
0
 65
0
146
0.0
  0
ENDTAB
  0
TABLE
  2
LTYPE
  5
2
330
0
100
AcDbSymbolTable
 70
3
  0
LTYPE
  5
24
330
2
100
AcDbSymbolTableRecord
100
AcDbLinetypeTableRecord
  2
ByBlock
 70
0
  3

 72
65
 73
0
 40
0.0
  0
LTYPE
  5
25
330
2
100
AcDbSymbolTableRecord
100
AcDbLinetypeTableRecord
  2
ByLayer
 70
0
  3

 72
65
 73
0
 40
0.0
  0
LTYPE
  5
26
330
2
100
AcDbSymbolTableRecord
100
AcDbLinetypeTableRecord
  2
Continuous
 70
0
  3

 72
65
 73
0
 40
0.0
  0
ENDTAB
  0
TABLE
  2
LAYER
  5
1
330
0
100
AcDbSymbolTable
 70
18
  0
LAYER
  5
27
330
1
100
AcDbSymbolTableRecord
100
AcDbLayerTableRecord
  2
0
 70
0
 62
7
  6
Continuous
370
-3
390
13
347
21
  0
LAYER
  5
28
330
1
100
AcDbSymbolTableRecord
100
AcDbLayerTableRecord
  2
Defpoints
 70
0
 62
7
  6
Continuous
290
0
370
-3
390
13
347
21
  0
LAYER
  5
2F
330
1
100
AcDbSymbolTableRecord
100
AcDbLayerTableRecord
  2
commercial_buildings
 70
0
 62
30
  6
CONTINUOUS
370
60
390
13
347
21
  0
LAYER
  5
34
330
1
100
AcDbSymbolTableRecord
100
AcDbLayerTableRecord
  2
residential_buildings
 70
0
 62
7
  6
CONTINUOUS
370
50
390
13
347
21
  0
LAYER
  5
39
330
1
100
AcDbSymbolTableRecord
100
AcDbLayerTableRecord
  2
industrial_buildings
 70
0
 62
7
  6
CONTINUOUS
370
70
390
13
347
21
  0
LAYER
  5
3C
330
1
100
AcDbSymbolTableRecord
100
AcDbLayerTableRecord
  2
public_buildings
 70
0
 62
5
  6
CONTINUOUS
370
53
390
13
347
21
  0
LAYER
  5
3F
330
1
100
AcDbSymbolTableRecord
100
AcDbLayerTableRecord
  2
recreational_facilities
 70
0
 62
3
  6
CONTINUOUS
370
40
390
13
347
21
  0
LAYER
  5
42
330
1
100
AcDbSymbolTableRecord
100
AcDbLayerTableRecord
  2
healthcare_facilities
 70
0
 62
1
  6
CONTINUOUS
370
60
390
13
347
21
  0
LAYER
  5
45
330
1
100
AcDbSymbolTableRecord
100
AcDbLayerTableRecord
  2
educational_facilities
 70
0
 62
4
  6
CONTINUOUS
370
60
390
13
347
21
  0
LAYER
  5
48
330
1
100
AcDbSymbolTableRecord
100
AcDbLayerTableRecord
  2
all_buildings
 70
0
 62
30
  6
CONTINUOUS
370
60
390
13
347
21
  0
LAYER
  5
5D
330
1
100
AcDbSymbolTableRecord
100
AcDbLayerTableRecord
  2
main_roads
 70
0
 62
190
  6
Continuous
370
40
390
13
347
21
  0
LAYER
  5
5E
330
1
100
AcDbSymbolTableRecord
100
AcDbLayerTableRecord
  2
bike_paths
 70
0
 62
190
  6
Continuous
370
40
390
13
347
21
  0
LAYER
  5
61
330
1
100
AcDbSymbolTableRecord
100
AcDbLayerTableRecord
  2
parks
 70
0
 62
60
  6
CONTINUOUS
370
30
390
13
347
21
  0
LAYER
  5
62
330
1
100
AcDbSymbolTableRecord
100
AcDbLayerTableRecord
  2
transit_stops
 70
0
 62
6
  6
CONTINUOUS
370
35
390
13
347
21
  0
LAYER
  5
65
330
1
100
AcDbSymbolTableRecord
100
AcDbLayerTableRecord
  2
amenities
 70
0
 62
2
  6
CONTINUOUS
370
25
390
13
347
21
  0
LAYER
  5
66
330
1
100
AcDbSymbolTableRecord
100
AcDbLayerTableRecord
  2
buffered_commercial
 70
0
 62
30
  6
CONTINUOUS
370
60
390
13
347
21
  0
LAYER
  5
6B
330
1
100
AcDbSymbolTableRecord
100
AcDbLayerTableRecord
  2
merged_buildings_roads
 70
0
 62
30
  6
CONTINUOUS
370
60
390
13
347
21
  0
LAYER
  5
70
330
1
100
AcDbSymbolTableRecord
100
AcDbLayerTableRecord
  2
study_area_boundary
 70
0
 62
30
  6
CONTINUOUS
370
60
390
13
347
21
  0
ENDTAB
  0
TABLE
  2
STYLE
  5
5
330
0
100
AcDbSymbolTable
 70
1
  0
STYLE
  5
29
330
5
100
AcDbSymbolTableRecord
100
AcDbTextStyleTableRecord
  2
Standard
 70
0
 40
0.0
 41
1.0
 50
0.0
 71
0
 42
2.5
  3
txt
  4

  0
ENDTAB
  0
TABLE
  2
VIEW
  5
7
330
0
100
AcDbSymbolTable
 70
0
  0
ENDTAB
  0
TABLE
  2
UCS
  5
6
330
0
100
AcDbSymbolTable
 70
0
  0
ENDTAB
  0
TABLE
  2
APPID
  5
3
330
0
100
AcDbSymbolTable
 70
3
  0
APPID
  5
2A
330
3
100
AcDbSymbolTableRecord
100
AcDbRegAppTableRecord
  2
ACAD
 70
0
  0
APPID
  5
71
330
3
100
AcDbSymbolTableRecord
100
AcDbRegAppTableRecord
  2
HATCHBACKGROUNDCOLOR
 70
0
  0
APPID
  5
72
330
3
100
AcDbSymbolTableRecord
100
AcDbRegAppTableRecord
  2
EZDXF
 70
0
  0
ENDTAB
  0
TABLE
  2
DIMSTYLE
  5
4
330
0
100
AcDbSymbolTable
 70
1
100
AcDbDimStyleTable
  0
DIMSTYLE
105
2B
330
4
100
AcDbSymbolTableRecord
100
AcDbDimStyleTableRecord
  2
Standard
 70
0
 40
1.0
 41
2.5
 42
0.625
 43
3.75
 44
1.25
 45
0.0
 46
0.0
 47
0.0
 48
0.0
 49
2.5
140
2.5
141
2.5
142
0.0
143
0.03937007874
144
1.0
145
0.0
146
1.0
147
0.625
148
0.0
 69
0
 70
0
 71
0
 72
0
 73
0
 74
0
 75
0
 76
0
 77
1
 78
8
 79
3
170
0
171
3
172
1
173
0
174
0
175
0
176
0
177
0
178
0
179
2
271
2
272
2
273
2
274
3
275
0
276
0
277
2
278
44
279
0
280
0
281
0
282
0
283
0
284
8
285
0
286
0
288
0
289
3
290
0
371
-2
372
-2
  0
ENDTAB
  0
TABLE
  2
BLOCK_RECORD
  5
9
330
0
100
AcDbSymbolTable
 70
2
  0
BLOCK_RECORD
  5
17
330
9
100
AcDbSymbolTableRecord
100
AcDbBlockTableRecord
  2
*Model_Space
340
1A
 70
0
280
1
281
0
  0
BLOCK_RECORD
  5
1B
330
9
100
AcDbSymbolTableRecord
100
AcDbBlockTableRecord
  2
*Paper_Space
340
1E
 70
0
280
1
281
0
  0
ENDTAB
  0
ENDSEC
  0
SECTION
  2
BLOCKS
  0
BLOCK
  5
18
330
17
100
AcDbEntity
  8
0
100
AcDbBlockBegin
  2
*Model_Space
 70
0
 10
0.0
 20
0.0
 30
0.0
  3
*Model_Space
  1

  0
ENDBLK
  5
19
330
17
100
AcDbEntity
  8
0
100
AcDbBlockEnd
  0
BLOCK
  5
1C
330
1B
100
AcDbEntity
  8
0
100
AcDbBlockBegin
  2
*Paper_Space
 70
0
 10
0.0
 20
0.0
 30
0.0
  3
*Paper_Space
  1

  0
ENDBLK
  5
1D
330
1B
100
AcDbEntity
  8
0
100
AcDbBlockEnd
  0
ENDSEC
  0
SECTION
  2
ENTITIES
  0
LWPOLYLINE
  5
30
330
17
100
AcDbEntity
  8
commercial_buildings
100
AcDbPolyline
 90
5
 70
1
 10
391779.2592516289
 20
5820072.159087078
 10
391813.18198162667
 20
5820071.409613729
 10
391814.4104322641
 20
5820127.020393037
 10
391780.4880876036
 20
5820127.7698628865
 10
391779.2592516289
 20
5820072.159087078
  0
TEXT
  5
31
330
17
100
AcDbEntity
  8
commercial_buildings
 62
7
100
AcDbText
 10
391796.8349370016
 20
5820099.5897400575
 30
0.0
 40
4.0
  1
Downtown Mall
 72
1
 11
391796.8349370016
 21
5820099.5897400575
 31
0.0
100
AcDbText
  0
LWPOLYLINE
  5
32
330
17
100
AcDbEntity
  8
commercial_buildings
100
AcDbPolyline
 90
5
 70
1
 10
391849.5608526722
 20
5820181.881945408
 10
391883.4828162601
 20
5820181.132949162
 10
391884.7105128451
 20
5820236.743744189
 10
391850.78893459955
 20
5820237.492736936
 10
391849.5608526722
 20
5820181.881945408
  0
TEXT
  5
33
330
17
100
AcDbEntity
  8
commercial_buildings
 62
7
100
AcDbText
 10
391867.13577781577
 20
5820209.312844798
 30
0.0
 40
4.0
  1
Office Complex
 72
1
 11
391867.13577781577
 21
5820209.312844798
 31
0.0
100
AcDbText
  0
LWPOLYLINE
  5
35
330
17
100
AcDbEntity
  8
residential_buildings
100
AcDbPolyline
 90
5
 70
1
 10
391708.9546097105
 20
5819962.437214415
 10
391742.878106106
 20
5819961.687263952
 10
391744.1073107751
 20
5820017.298027538
 10
391710.18419971183
 20
5820018.0479745
 10
391708.9546097105
 20
5819962.437214415
  0
TEXT
  5
36
330
17
100
AcDbEntity
  8
residential_buildings
 62
7
100
AcDbText
 10
391726.53105529584
 20
5819989.867620977
 30
0.0
 40
3.5
  1
4.0
 72
1
 11
391726.53105529584
 21
5819989.867620977
 31
0.0
100
AcDbText
  0
LWPOLYLINE
  5
37
330
17
100
AcDbEntity
  8
residential_buildings
100
AcDbPolyline
 90
5
 70
1
 10
391910.0410890009
 20
5819846.719488465
 10
391943.965368851
 20
5819845.970941367
 10
391945.1922449163
 20
5819901.581717204
 10
391911.2683503926
 20
5819902.33026081
 10
391910.0410890009
 20
5819846.719488465
  0
TEXT
  5
38
330
17
100
AcDbEntity
  8
residential_buildings
 62
7
100
AcDbText
 10
391927.6167620125
 20
5819874.150602834
 30
0.0
 40
3.5
  1
6.0
 72
1
 11
391927.6167620125
 21
5819874.150602834
 31
0.0
100
AcDbText
  0
LWPOLYLINE
  5
3A
330
17
100
AcDbEntity
  8
industrial_buildings
100
AcDbPolyline
 90
5
 70
1
 10
391987.70180923736
 20
5820290.108986136
 10
392055.54421422374
 20
5820288.613123097
 10
392057.99579546304
 20
5820399.834769903
 10
391990.1549318697
 20
5820401.330618972
 10
391987.70180923736
 20
5820290.108986136
  0
TEXT
  5
3B
330
17
100
AcDbEntity
  8
industrial_buildings
 62
7
100
AcDbText
 10
392022.8491825918
 20
5820344.971878019
 30
0.0
 40
3.0
  1
15000.0
 72
1
 11
392022.8491825918
 21
5820344.971878019
 31
0.0
100
AcDbText
  0
LWPOLYLINE
  5
3D
330
17
100
AcDbEntity
  8
public_buildings
100
AcDbPolyline
 90
5
 70
1
 10
-5821270.788372164
 20
9870017.241391782
 10
-5821267.381949312
 20
9869888.178616317
 10
-5821097.755021483
 20
9869892.657884458
 10
-5821101.161257943
 20
9870021.716148514
 10
-5821270.788372164
 20
9870017.241391782
  0
TEXT
  5
3E
330
17
100
AcDbEntity
  8
public_buildings
 62
7
100
AcDbText
 10
-5821184.271680577
 20
9869954.94963812
 30
0.0
 40
4.0
  1
City Library
 72
1
 11
-5821184.271680577
 21
9869954.94963812
 31
0.0
100
AcDbText
  0
LWPOLYLINE
  5
40
330
17
100
AcDbEntity
  8
recreational_facilities
100
AcDbPolyline
 90
5
 70
1
 10
391636.1862639572
 20
5819741.494851804
 10
391704.03633294895
 20
5819739.994217694
 10
391706.49545468076
 20
5819851.215707331
 10
391638.64692698256
 20
5819852.716327436
 10
391636.1862639572
 20
5819741.494851804
  0
TEXT
  5
41
330
17
100
AcDbEntity
  8
recreational_facilities
 62
7
100
AcDbText
 10
391671.3412395199
 20
5819796.355279568
 30
0.0
 40
3.5
  1
Sports Complex
 72
1
 11
391671.3412395199
 21
5819796.355279568
 31
0.0
100
AcDbText
  0
LWPOLYLINE
  5
43
330
17
100
AcDbEntity
  8
healthcare_facilities
100
AcDbPolyline
 90
5
 70
1
 10
-5820599.101142669
 20
9870293.229242885
 10
-5820595.70232901
 20
9870164.18422872
 10
-5820426.088473495
 20
9870168.653766388
 10
-5820429.487101192
 20
9870297.694269836
 10
-5820599.101142669
 20
9870293.229242885
  0
TEXT
  5
44
330
17
100
AcDbEntity
  8
healthcare_facilities
 62
7
100
AcDbText
 10
-5820512.594791873
 20
9870230.941504637
 30
0.0
 40
3.5
  1
Medical Center
 72
1
 11
-5820512.594791873
 21
9870230.941504637
 31
0.0
100
AcDbText
  0
LWPOLYLINE
  5
46
330
17
100
AcDbEntity
  8
educational_facilities
100
AcDbPolyline
 90
5
 70
1
 10
391565.8740325316
 20
5819631.77498199
 10
391633.7256342513
 20
5819630.273393616
 10
391636.1862639572
 20
5819741.494851804
 10
391568.3362035111
 20
5819742.996426167
 10
391565.8740325316
 20
5819631.77498199
  0
TEXT
  5
47
330
17
100
AcDbEntity
  8
educational_facilities
 62
7
100
AcDbText
 10
391601.0305284372
 20
5819686.634916898
 30
0.0
 40
3.5
  1
School Campus
 72
1
 11
391601.0305284372
 21
5819686.634916898
 31
0.0
100
AcDbText
  0
LWPOLYLINE
  5
49
330
17
100
AcDbEntity
  8
all_buildings
100
AcDbPolyline
 90
5
 70
1
 10
391779.2592516289
 20
5820072.159087078
 10
391813.18198162667
 20
5820071.409613729
 10
391814.4104322641
 20
5820127.020393037
 10
391780.4880876036
 20
5820127.7698628865
 10
391779.2592516289
 20
5820072.159087078
  0
TEXT
  5
4A
330
17
100
AcDbEntity
  8
all_buildings
 62
7
100
AcDbText
 10
391796.8349370016
 20
5820099.5897400575
 30
0.0
 40
4.0
  1
123 Main St
 72
1
 11
391796.8349370016
 21
5820099.5897400575
 31
0.0
100
AcDbText
  0
LWPOLYLINE
  5
4B
330
17
100
AcDbEntity
  8
all_buildings
100
AcDbPolyline
 90
5
 70
1
 10
391849.5608526722
 20
5820181.881945408
 10
391883.4828162601
 20
5820181.132949162
 10
391884.7105128451
 20
5820236.743744189
 10
391850.78893459955
 20
5820237.492736936
 10
391849.5608526722
 20
5820181.881945408
  0
TEXT
  5
4C
330
17
100
AcDbEntity
  8
all_buildings
 62
7
100
AcDbText
 10
391867.13577781577
 20
5820209.312844798
 30
0.0
 40
4.0
  1
456 Business Ave
 72
1
 11
391867.13577781577
 21
5820209.312844798
 31
0.0
100
AcDbText
  0
LWPOLYLINE
  5
4D
330
17
100
AcDbEntity
  8
all_buildings
100
AcDbPolyline
 90
5
 70
1
 10
391708.9546097105
 20
5819962.437214415
 10
391742.878106106
 20
5819961.687263952
 10
391744.1073107751
 20
5820017.298027538
 10
391710.18419971183
 20
5820018.0479745
 10
391708.9546097105
 20
5819962.437214415
  0
TEXT
  5
4E
330
17
100
AcDbEntity
  8
all_buildings
 62
7
100
AcDbText
 10
391726.53105529584
 20
5819989.867620977
 30
0.0
 40
4.0
  1
789 Home St
 72
1
 11
391726.53105529584
 21
5819989.867620977
 31
0.0
100
AcDbText
  0
LWPOLYLINE
  5
4F
330
17
100
AcDbEntity
  8
all_buildings
100
AcDbPolyline
 90
5
 70
1
 10
391910.0410890009
 20
5819846.719488465
 10
391943.965368851
 20
5819845.970941367
 10
391945.1922449163
 20
5819901.581717204
 10
391911.2683503926
 20
5819902.33026081
 10
391910.0410890009
 20
5819846.719488465
  0
TEXT
  5
50
330
17
100
AcDbEntity
  8
all_buildings
 62
7
100
AcDbText
 10
391927.6167620125
 20
5819874.150602834
 30
0.0
 40
4.0
  1
321 Residential Dr
 72
1
 11
391927.6167620125
 21
5819874.150602834
 31
0.0
100
AcDbText
  0
LWPOLYLINE
  5
51
330
17
100
AcDbEntity
  8
all_buildings
100
AcDbPolyline
 90
5
 70
1
 10
391987.70180923736
 20
5820290.108986136
 10
392055.54421422374
 20
5820288.613123097
 10
392057.99579546304
 20
5820399.834769903
 10
391990.1549318697
 20
5820401.330618972
 10
391987.70180923736
 20
5820290.108986136
  0
TEXT
  5
52
330
17
100
AcDbEntity
  8
all_buildings
 62
7
100
AcDbText
 10
392022.8491825918
 20
5820344.971878019
 30
0.0
 40
4.0
  1
555 Industrial Way
 72
1
 11
392022.8491825918
 21
5820344.971878019
 31
0.0
100
AcDbText
  0
LWPOLYLINE
  5
53
330
17
100
AcDbEntity
  8
all_buildings
100
AcDbPolyline
 90
5
 70
1
 10
391636.1862639572
 20
5819741.494851804
 10
391704.03633294895
 20
5819739.994217694
 10
391706.49545468076
 20
5819851.215707331
 10
391638.64692698256
 20
5819852.716327436
 10
391636.1862639572
 20
5819741.494851804
  0
TEXT
  5
54
330
17
100
AcDbEntity
  8
all_buildings
 62
7
100
AcDbText
 10
391671.3412395199
 20
5819796.355279568
 30
0.0
 40
4.0
  1
777 Sports Blvd
 72
1
 11
391671.3412395199
 21
5819796.355279568
 31
0.0
100
AcDbText
  0
LWPOLYLINE
  5
55
330
17
100
AcDbEntity
  8
all_buildings
100
AcDbPolyline
 90
5
 70
1
 10
391565.8740325316
 20
5819631.77498199
 10
391633.7256342513
 20
5819630.273393616
 10
391636.1862639572
 20
5819741.494851804
 10
391568.3362035111
 20
5819742.996426167
 10
391565.8740325316
 20
5819631.77498199
  0
TEXT
  5
56
330
17
100
AcDbEntity
  8
all_buildings
 62
7
100
AcDbText
 10
391601.0305284372
 20
5819686.634916898
 30
0.0
 40
4.0
  1
999 Education Ave
 72
1
 11
391601.0305284372
 21
5819686.634916898
 31
0.0
100
AcDbText
  0
LWPOLYLINE
  5
57
330
17
100
AcDbEntity
  8
all_buildings
100
AcDbPolyline
 90
2
 70
0
 10
391427.70563460095
 20
5819523.559580836
 10
392130.7368467763
 20
5820620.783234933
  0
TEXT
  5
58
330
17
100
AcDbEntity
  8
all_buildings
 62
7
100
AcDbText
 10
391779.2212406886
 20
5820072.171407885
 30
0.0
 40
4.0
  1
Main Highway
 72
1
 11
391779.2212406886
 21
5820072.171407885
 31
0.0
100
AcDbText
  0
LWPOLYLINE
  5
59
330
17
100
AcDbEntity
  8
all_buildings
100
AcDbPolyline
 90
2
 70
0
 10
391498.022439362
 20
5819633.277510625
 10
392060.4474098923
 20
5820511.056434163
  0
TEXT
  5
5A
330
17
100
AcDbEntity
  8
all_buildings
 62
7
100
AcDbText
 10
391779.2349246271
 20
5820072.166972394
 30
0.0
 40
4.0
  1
Bike Path
 72
1
 11
391779.2349246271
 21
5820072.166972394
 31
0.0
100
AcDbText
  0
POINT
  5
5B
330
17
100
AcDbEntity
  8
all_buildings
100
AcDbPoint
 10
391779.2592516289
 20
5820072.159087078
 30
0.0
  0
TEXT
  5
5C
330
17
100
AcDbEntity
  8
all_buildings
 62
7
100
AcDbText
 10
391779.35925162886
 20
5820072.259087077
 30
0.0
 40
4.0
  1
Bus Stop Central
 72
1
 11
391779.35925162886
 21
5820072.259087077
 31
0.0
100
AcDbText
  0
LWPOLYLINE
  5
5F
330
17
100
AcDbEntity
  8
bike_paths
100
AcDbPolyline
 90
2
 70
0
 10
391498.022439362
 20
5819633.277510625
 10
392060.4474098923
 20
5820511.056434163
  0
TEXT
  5
60
330
17
100
AcDbEntity
  8
bike_paths
 62
7
100
AcDbText
 10
391779.2349246271
 20
5820072.166972394
 30
0.0
 40
3.0
  1
concrete
 72
1
 11
391779.2349246271
 21
5820072.166972394
 31
0.0
100
AcDbText
  0
POINT
  5
63
330
17
100
AcDbEntity
  8
transit_stops
100
AcDbPoint
 10
391779.2592516289
 20
5820072.159087078
 30
0.0
  0
TEXT
  5
64
330
17
100
AcDbEntity
  8
transit_stops
 62
7
100
AcDbText
 10
391779.35925162886
 20
5820072.259087077
 30
0.0
 40
2.0
  1
Bus 1, Bus 3
 72
1
 11
391779.35925162886
 21
5820072.259087077
 31
0.0
100
AcDbText
  0
LWPOLYLINE
  5
67
330
17
100
AcDbEntity
  8
buffered_commercial
100
AcDbPolyline
 90
69
 70
1
 10
391769.2616921408
 20
5820072.380003988
 10
391770.4905281155
 20
5820127.990779797
 10
391770.5603224866
 20
5820128.969646109
 10
391770.72572625056
 20
5820129.936957903
 10
391770.98514648556
 20
5820130.883399478
 10
391771.3360848437
 20
5820131.799856123
 10
391771.7751616113
 20
5820132.677501896
 10
391772.2981482573
 20
5820133.507884628
 10
391772.9000081562
 20
5820134.283007312
 10
391773.574945093
 20
5820134.9954051245
 10
391774.3164590843
 20
5820135.638217315
 10
391775.11740897555
 20
5820136.205253279
 10
391775.9700812149
 20
5820136.691052172
 10
391776.86626413796
 20
5820137.090935506
 10
391777.7973270504
 20
5820137.401052203
 10
391778.7543033462
 20
5820137.618415681
 10
391779.72797686013
 20
5820137.740932621
 10
391780.7089706245
 20
5820137.767423123
 10
391814.631315285
 20
5820137.017953274
 10
391815.61018174264
 20
5820136.9481622325
 10
391816.57749400893
 20
5820136.782761776
 10
391817.52393637993
 20
5820136.523344795
 10
391818.44039413927
 20
5820136.172409606
 10
391819.31804133736
 20
5820135.733335892
 10
391820.14842579
 20
5820135.210352152
 10
391820.92355047696
 20
5820134.608494983
 10
391821.6359505574
 20
5820133.933560574
 10
391822.27876526
 20
5820133.192048882
 10
391822.84580395557
 20
5820132.391101038
 10
391823.3316057761
 20
5820131.5384305725
 10
391823.7314922056
 20
5820130.642249132
 10
391824.0416121364
 20
5820129.711187393
 10
391824.25897895754
 20
5820128.754211951
 10
391824.38149931707
 20
5820127.78053896
 10
391824.4079932823
 20
5820126.799545382
 10
391823.1795426449
 20
5820071.188766074
 10
391823.1097545462
 20
5820070.209895072
 10
391822.94435615494
 20
5820069.242578065
 10
391822.68494035484
 20
5820068.296130887
 10
391822.3340054727
 20
5820067.37966838
 10
391821.89493121783
 20
5820066.502016617
 10
391821.3719461335
 20
5820065.671627901
 10
391820.7700868738
 20
5820064.896499363
 10
391820.0951496973
 20
5820064.184095947
 10
391819.3536346461
 20
5820063.541278518
 10
391818.5526829462
 20
5820062.974237785
 10
391817.70000823366
 20
5820062.488434683
 10
391816.8038222674
 20
5820062.088547783
 10
391815.8727558455
 20
5820061.778428231
 10
391814.91577568516
 20
5820061.56106266
 10
391813.94209806825
 20
5820061.438544429
 10
391812.9611000829
 20
5820061.41205346
 10
391779.0383700851
 20
5820062.1615268085
 10
391778.05949922727
 20
5820062.231318236
 10
391777.0921826929
 20
5820062.396719935
 10
391776.1457363109
 20
5820062.65613899
 10
391775.22927491844
 20
5820063.007077041
 10
391774.35162457934
 20
5820063.446154349
 10
391773.52123758424
 20
5820063.969142339
 10
391772.74611104984
 20
5820064.571004329
 10
391772.0337099019
 20
5820065.245944033
 10
391771.39089498384
 20
5820065.987461383
 10
391770.82385698264
 20
5820066.788415131
 10
391770.3380568087
 20
5820067.641091618
 10
391769.9381730043
 20
5820068.537279066
 10
391769.62805668655
 20
5820069.468346662
 10
391769.41069445846
 20
5820070.425327676
 10
391769.28817964654
 20
5820071.399005816
 10
391769.2616921408
 20
5820072.380003988
  0
TEXT
  5
68
330
17
100
AcDbEntity
  8
buffered_commercial
 62
7
100
AcDbText
 10
391796.83493700123
 20
5820099.589774685
 30
0.0
 40
4.0
  1
Downtown Mall
 72
1
 11
391796.83493700123
 21
5820099.589774685
 31
0.0
100
AcDbText
  0
LWPOLYLINE
  5
69
330
17
100
AcDbEntity
  8
buffered_commercial
100
AcDbPolyline
 90
69
 70
1
 10
391839.5632901896
 20
5820182.102726761
 10
391840.79137211695
 20
5820237.713518289
 10
391840.86115321564
 20
5820238.692385548
 10
391841.02654386376
 20
5820239.659699584
 10
391841.28595126595
 20
5820240.606144677
 10
391841.6368771978
 20
5820241.5226060795
 10
391842.07594206533
 20
5820242.400257806
 10
391842.5989174521
 20
5820243.230647629
 10
391843.20076684095
 20
5820244.005778473
 10
391843.87569411827
 20
5820244.718185437
 10
391844.61719939345
 20
5820245.361007682
 10
391845.4181415962
 20
5820245.928054506
 10
391846.2708072484
 20
5820246.413864961
 10
391847.1669847493
 20
5820246.813760446
 10
391848.09804345673
 20
5820247.123889767
 10
391849.0550168051
 20
5820247.34126622
 10
391850.0286886577
 20
5820247.463796363
 10
391851.0096820627
 20
5820247.490300166
 10
391884.93126030825
 20
5820246.74130742
 10
391885.9101277121
 20
5820246.671529651
 10
391886.87744222104
 20
5820246.50614231
 10
391887.82388810936
 20
5820246.246738163
 10
391888.74035062693
 20
5820245.8958154
 10
391889.6180037784
 20
5820245.4567535855
 10
391890.44839532214
 20
5820244.933781104
 10
391891.2235281697
 20
5820244.3319344465
 10
391891.93593740155
 20
5820243.657009697
 10
391892.5787621583
 20
5820242.915506721
 10
391893.14581171394
 20
5820242.114566565
 10
391893.63162509585
 20
5820241.261902686
 10
391894.0315236767
 20
5820240.365726667
 10
391894.3416562318
 20
5820239.434669135
 10
391894.55903602863
 20
5820238.47769664
 10
391894.68156959023
 20
5820237.504025311
 10
391894.70807685686
 20
5820236.523032092
 10
391893.48038027185
 20
5820180.912237065
 10
391893.4106054458
 20
5820179.933365116
 10
391893.2452201704
 20
5820178.966045867
 10
391892.98581720324
 20
5820178.019595171
 10
391892.63489474746
 20
5820177.103127905
 10
391892.19583239267
 20
5820176.225470189
 10
391891.6728585677
 20
5820175.3950743815
 10
391891.07100981794
 20
5820174.619937683
 10
391890.3960823009
 20
5820173.907525116
 10
391889.65457596566
 20
5820173.264697633
 10
391888.8536319543
 20
5820172.69764604
 10
391888.0009638287
 20
5820172.211831377
 10
391887.10478328454
 20
5820171.811932325
 10
391886.1737210675
 20
5820171.501800149
 10
391885.2167438544
 20
5820171.284421602
 10
391884.24306789873
 20
5820171.161890169
 10
391883.2620702726
 20
5820171.135385899
 10
391849.3401066847
 20
5820171.884382145
 10
391848.3612348807
 20
5820171.9541603
 10
391847.39391610376
 20
5820172.119548883
 10
391846.44746620447
 20
5820172.378955104
 10
391845.53100005374
 20
5820172.72988073
 10
391844.65334376134
 20
5820173.168946138
 10
391843.8229496752
 20
5820173.691922869
 10
391843.0478149802
 20
5820174.293774349
 10
391842.3354046809
 20
5820174.968704393
 10
391841.69257970876
 20
5820175.710213028
 10
391841.12553084746
 20
5820176.511159087
 10
391840.6397191122
 20
5820177.363828986
 10
391840.2398231565
 20
5820178.260011012
 10
391839.9296942145
 20
5820179.191074404
 10
391839.7123190107
 20
5820180.148052471
 10
391839.58979099675
 20
5820181.121728949
 10
391839.5632901896
 20
5820182.102726761
  0
TEXT
  5
6A
330
17
100
AcDbEntity
  8
buffered_commercial
 62
7
100
AcDbText
 10
391867.1357778154
 20
5820209.312879426
 30
0.0
 40
4.0
  1
Office Complex
 72
1
 11
391867.1357778154
 21
5820209.312879426
 31
0.0
100
AcDbText
  0
LWPOLYLINE
  5
6C
330
17
100
AcDbEntity
  8
merged_buildings_roads
100
AcDbPolyline
 90
5
 70
1
 10
391779.2592516289
 20
5820072.159087078
 10
391813.18198162667
 20
5820071.409613729
 10
391814.4104322641
 20
5820127.020393037
 10
391780.4880876036
 20
5820127.7698628865
 10
391779.2592516289
 20
5820072.159087078
  0
TEXT
  5
6D
330
17
100
AcDbEntity
  8
merged_buildings_roads
 62
7
100
AcDbText
 10
391796.8349370016
 20
5820099.5897400575
 30
0.0
 40
4.0
  1
Downtown Mall
 72
1
 11
391796.8349370016
 21
5820099.5897400575
 31
0.0
100
AcDbText
  0
LWPOLYLINE
  5
6E
330
17
100
AcDbEntity
  8
merged_buildings_roads
100
AcDbPolyline
 90
5
 70
1
 10
391849.5608526722
 20
5820181.881945408
 10
391883.4828162601
 20
5820181.132949162
 10
391884.7105128451
 20
5820236.743744189
 10
391850.78893459955
 20
5820237.492736936
 10
391849.5608526722
 20
5820181.881945408
  0
TEXT
  5
6F
330
17
100
AcDbEntity
  8
merged_buildings_roads
 62
7
100
AcDbText
 10
391867.13577781577
 20
5820209.312844798
 30
0.0
 40
4.0
  1
Office Complex
 72
1
 11
391867.13577781577
 21
5820209.312844798
 31
0.0
100
AcDbText
  0
ENDSEC
  0
SECTION
  2
OBJECTS
  0
DICTIONARY
  5
A
330
0
100
AcDbDictionary
281
1
  3
ACAD_COLOR
350
B
  3
ACAD_GROUP
350
C
  3
ACAD_LAYOUT
350
D
  3
ACAD_MATERIAL
350
E
  3
ACAD_MLEADERSTYLE
350
F
  3
ACAD_MLINESTYLE
350
10
  3
ACAD_PLOTSETTINGS
350
11
  3
ACAD_PLOTSTYLENAME
350
12
  3
ACAD_SCALELIST
350
14
  3
ACAD_TABLESTYLE
350
15
  3
ACAD_VISUALSTYLE
350
16
  3
EZDXF_META
350
2D
  0
DICTIONARY
  5
B
330
A
100
AcDbDictionary
281
1
  0
DICTIONARY
  5
C
330
A
100
AcDbDictionary
281
1
  0
DICTIONARY
  5
D
330
A
100
AcDbDictionary
281
1
  3
Model
350
1A
  3
Layout1
350
1E
  0
DICTIONARY
  5
E
330
A
100
AcDbDictionary
281
1
  3
ByBlock
350
1F
  3
ByLayer
350
20
  3
Global
350
21
  0
DICTIONARY
  5
F
330
A
100
AcDbDictionary
281
1
  3
Standard
350
2C
  0
DICTIONARY
  5
10
330
A
100
AcDbDictionary
281
1
  3
Standard
350
22
  0
DICTIONARY
  5
11
330
A
100
AcDbDictionary
281
1
  0
ACDBDICTIONARYWDFLT
  5
12
330
A
100
AcDbDictionary
281
1
  3
Normal
350
13
100
AcDbDictionaryWithDefault
340
13
  0
ACDBPLACEHOLDER
  5
13
330
12
  0
DICTIONARY
  5
14
330
A
100
AcDbDictionary
281
1
  0
DICTIONARY
  5
15
330
A
100
AcDbDictionary
281
1
  0
DICTIONARY
  5
16
330
A
100
AcDbDictionary
281
1
  0
LAYOUT
  5
1A
330
D
100
AcDbPlotSettings
  1

  4
A3
  6

 40
7.5
 41
20.0
 42
7.5
 43
20.0
 44
420.0
 45
297.0
 46
0.0
 47
0.0
 48
0.0
 49
0.0
140
0.0
141
0.0
142
1.0
143
1.0
 70
1024
 72
1
 73
0
 74
5
  7

 75
16
 76
0
 77
2
 78
300
147
1.0
148
0.0
149
0.0
100
AcDbLayout
  1
Model
 70
1
 71
0
 10
0.0
 20
0.0
 11
420.0
 21
297.0
 12
0.0
 22
0.0
 32
0.0
 14
1e+20
 24
1e+20
 34
1e+20
 15
-1e+20
 25
-1e+20
 35
-1e+20
146
0.0
 13
0.0
 23
0.0
 33
0.0
 16
1.0
 26
0.0
 36
0.0
 17
0.0
 27
1.0
 37
0.0
 76
1
330
17
  0
LAYOUT
  5
1E
330
D
100
AcDbPlotSettings
  1

  4
A3
  6

 40
7.5
 41
20.0
 42
7.5
 43
20.0
 44
420.0
 45
297.0
 46
0.0
 47
0.0
 48
0.0
 49
0.0
140
0.0
141
0.0
142
1.0
143
1.0
 70
0
 72
1
 73
0
 74
5
  7

 75
16
 76
0
 77
2
 78
300
147
1.0
148
0.0
149
0.0
100
AcDbLayout
  1
Layout1
 70
1
 71
1
 10
0.0
 20
0.0
 11
420.0
 21
297.0
 12
0.0
 22
0.0
 32
0.0
 14
1e+20
 24
1e+20
 34
1e+20
 15
-1e+20
 25
-1e+20
 35
-1e+20
146
0.0
 13
0.0
 23
0.0
 33
0.0
 16
1.0
 26
0.0
 36
0.0
 17
0.0
 27
1.0
 37
0.0
 76
1
330
1B
  0
MATERIAL
  5
1F
102
{ACAD_REACTORS
330
E
102
}
330
E
100
AcDbMaterial
  1
ByBlock
  2

 70
0
 40
1.0
 71
1
 41
1.0
 91
-1023410177
 42
1.0
 72
1
  3

 73
1
 74
1
 75
1
 44
0.5
 73
0
 45
1.0
 46
1.0
 77
1
  4

 78
1
 79
1
170
1
 48
1.0
171
1
  6

172
1
173
1
174
1
140
1.0
141
1.0
175
1
  7

176
1
177
1
178
1
143
1.0
179
1
  8

270
1
271
1
272
1
145
1.0
146
1.0
273
1
  9

274
1
275
1
276
1
 42
1.0
 72
1
  3

 73
1
 74
1
 75
1
 94
63
  0
MATERIAL
  5
20
102
{ACAD_REACTORS
330
E
102
}
330
E
100
AcDbMaterial
  1
ByLayer
  2

 70
0
 40
1.0
 71
1
 41
1.0
 91
-1023410177
 42
1.0
 72
1
  3

 73
1
 74
1
 75
1
 44
0.5
 73
0
 45
1.0
 46
1.0
 77
1
  4

 78
1
 79
1
170
1
 48
1.0
171
1
  6

172
1
173
1
174
1
140
1.0
141
1.0
175
1
  7

176
1
177
1
178
1
143
1.0
179
1
  8

270
1
271
1
272
1
145
1.0
146
1.0
273
1
  9

274
1
275
1
276
1
 42
1.0
 72
1
  3

 73
1
 74
1
 75
1
 94
63
  0
MATERIAL
  5
21
102
{ACAD_REACTORS
330
E
102
}
330
E
100
AcDbMaterial
  1
Global
  2

 70
0
 40
1.0
 71
1
 41
1.0
 91
-1023410177
 42
1.0
 72
1
  3

 73
1
 74
1
 75
1
 44
0.5
 73
0
 45
1.0
 46
1.0
 77
1
  4

 78
1
 79
1
170
1
 48
1.0
171
1
  6

172
1
173
1
174
1
140
1.0
141
1.0
175
1
  7

176
1
177
1
178
1
143
1.0
179
1
  8

270
1
271
1
272
1
145
1.0
146
1.0
273
1
  9

274
1
275
1
276
1
 42
1.0
 72
1
  3

 73
1
 74
1
 75
1
 94
63
  0
MLINESTYLE
  5
22
102
{ACAD_REACTORS
330
10
102
}
330
10
100
AcDbMlineStyle
  2
Standard
 70
0
  3

 62
256
 51
90.0
 52
90.0
 71
2
 49
0.5
 62
256
  6
BYLAYER
 49
-0.5
 62
256
  6
BYLAYER
  0
MLEADERSTYLE
  5
2C
102
{ACAD_REACTORS
330
F
102
}
330
F
100
AcDbMLeaderStyle
179
2
170
2
171
1
172
0
 90
2
 40
0.0
 41
0.0
173
1
 91
-1056964608
 92
-2
290
1
 42
2.0
291
1
 43
8.0
  3
Standard
 44
4.0
300

342
29
174
1
175
1
176
0
178
1
 93
-1056964608
 45
4.0
292
0
297
0
 46
4.0
 94
-1056964608
 47
1.0
 49
1.0
140
1.0
294
1
141
0.0
177
0
142
1.0
295
0
296
0
143
3.75
271
0
272
9
273
9
  0
DICTIONARY
  5
2D
330
A
100
AcDbDictionary
280
1
281
1
  3
CREATED_BY_EZDXF
350
2E
  3
WRITTEN_BY_EZDXF
350
73
  0
DICTIONARYVAR
  5
2E
330
2D
100
DictionaryVariables
280
0
  1
1.4.2 @ 2025-06-02T13:12:38.912950+00:00
  0
DICTIONARYVAR
  5
73
330
2D
100
DictionaryVariables
280
0
  1
1.4.2 @ 2025-06-02T13:12:38.996343+00:00
  0
ENDSEC
  0
EOF
