  0
SECTION
  2
HEADER
  9
$ACADVER
  1
AC1024
  9
$ACADMAINTVER
 70
6
  9
$DWGCODEPAGE
  3
ANSI_1252
  9
$LASTSAVEDBY
  1
ezdxf
  9
$INSBASE
 10
0.0
 20
0.0
 30
0.0
  9
$EXTMIN
 10
1e+20
 20
1e+20
 30
1e+20
  9
$EXTMAX
 10
-1e+20
 20
-1e+20
 30
-1e+20
  9
$LIMMIN
 10
0.0
 20
0.0
  9
$LIMMAX
 10
420.0
 20
297.0
  9
$ORTHOMODE
 70
0
  9
$REGENMODE
 70
1
  9
$FILLMODE
 70
1
  9
$QTEXTMODE
 70
0
  9
$MIRRTEXT
 70
1
  9
$LTSCALE
 40
1.0
  9
$ATTMODE
 70
1
  9
$TEXTSIZE
 40
2.5
  9
$TRACEWID
 40
1.0
  9
$TEXTSTYLE
  7
Standard
  9
$CLAYER
  8
0
  9
$CELTYPE
  6
ByLayer
  9
$CECOLOR
 62
256
  9
$CELTSCALE
 40
1.0
  9
$DISPSILH
 70
0
  9
$DIMSCALE
 40
1.0
  9
$DIMASZ
 40
2.5
  9
$DIMEXO
 40
0.625
  9
$DIMDLI
 40
3.75
  9
$DIMRND
 40
0.0
  9
$DIMDLE
 40
0.0
  9
$DIMEXE
 40
1.25
  9
$DIMTP
 40
0.0
  9
$DIMTM
 40
0.0
  9
$DIMTXT
 40
2.5
  9
$DIMCEN
 40
2.5
  9
$DIMTSZ
 40
0.0
  9
$DIMTOL
 70
0
  9
$DIMLIM
 70
0
  9
$DIMTIH
 70
0
  9
$DIMTOH
 70
0
  9
$DIMSE1
 70
0
  9
$DIMSE2
 70
0
  9
$DIMTAD
 70
1
  9
$DIMZIN
 70
8
  9
$DIMBLK
  1

  9
$DIMASO
 70
1
  9
$DIMSHO
 70
1
  9
$DIMPOST
  1

  9
$DIMAPOST
  1

  9
$DIMALT
 70
0
  9
$DIMALTD
 70
3
  9
$DIMALTF
 40
0.03937007874
  9
$DIMLFAC
 40
1.0
  9
$DIMTOFL
 70
1
  9
$DIMTVP
 40
0.0
  9
$DIMTIX
 70
0
  9
$DIMSOXD
 70
0
  9
$DIMSAH
 70
0
  9
$DIMBLK1
  1

  9
$DIMBLK2
  1

  9
$DIMSTYLE
  2
ISO-25
  9
$DIMCLRD
 70
0
  9
$DIMCLRE
 70
0
  9
$DIMCLRT
 70
0
  9
$DIMTFAC
 40
1.0
  9
$DIMGAP
 40
0.625
  9
$DIMJUST
 70
0
  9
$DIMSD1
 70
0
  9
$DIMSD2
 70
0
  9
$DIMTOLJ
 70
0
  9
$DIMTZIN
 70
8
  9
$DIMALTZ
 70
0
  9
$DIMALTTZ
 70
0
  9
$DIMUPT
 70
0
  9
$DIMDEC
 70
2
  9
$DIMTDEC
 70
2
  9
$DIMALTU
 70
2
  9
$DIMALTTD
 70
3
  9
$DIMTXSTY
  7
Standard
  9
$DIMAUNIT
 70
0
  9
$DIMADEC
 70
0
  9
$DIMALTRND
 40
0.0
  9
$DIMAZIN
 70
0
  9
$DIMDSEP
 70
44
  9
$DIMATFIT
 70
3
  9
$DIMFRAC
 70
0
  9
$DIMLDRBLK
  1

  9
$DIMLUNIT
 70
2
  9
$DIMLWD
 70
-2
  9
$DIMLWE
 70
-2
  9
$DIMTMOVE
 70
0
  9
$DIMFXL
 40
1.0
  9
$DIMFXLON
 70
0
  9
$DIMJOGANG
 40
0.785398163397
  9
$DIMTFILL
 70
0
  9
$DIMTFILLCLR
 70
0
  9
$DIMARCSYM
 70
0
  9
$DIMLTYPE
  6

  9
$DIMLTEX1
  6

  9
$DIMLTEX2
  6

  9
$DIMTXTDIRECTION
 70
0
  9
$LUNITS
 70
2
  9
$LUPREC
 70
4
  9
$SKETCHINC
 40
1.0
  9
$FILLETRAD
 40
10.0
  9
$AUNITS
 70
0
  9
$AUPREC
 70
2
  9
$MENU
  1
.
  9
$ELEVATION
 40
0.0
  9
$PELEVATION
 40
0.0
  9
$THICKNESS
 40
0.0
  9
$LIMCHECK
 70
0
  9
$CHAMFERA
 40
0.0
  9
$CHAMFERB
 40
0.0
  9
$CHAMFERC
 40
0.0
  9
$CHAMFERD
 40
0.0
  9
$SKPOLY
 70
0
  9
$TDCREATE
 40
2460819.715277778
  9
$TDUCREATE
 40
2458532.153996898
  9
$TDUPDATE
 40
2460819.715277778
  9
$TDUUPDATE
 40
2458532.1544311
  9
$TDINDWG
 40
0.0
  9
$TDUSRTIMER
 40
0.0
  9
$USRTIMER
 70
1
  9
$ANGBASE
 50
0.0
  9
$ANGDIR
 70
0
  9
$PDMODE
 70
0
  9
$PDSIZE
 40
0.0
  9
$PLINEWID
 40
0.0
  9
$SPLFRAME
 70
0
  9
$SPLINETYPE
 70
6
  9
$SPLINESEGS
 70
8
  9
$HANDSEED
  5
A5
  9
$SURFTAB1
 70
6
  9
$SURFTAB2
 70
6
  9
$SURFTYPE
 70
6
  9
$SURFU
 70
6
  9
$SURFV
 70
6
  9
$UCSBASE
  2

  9
$UCSNAME
  2

  9
$UCSORG
 10
0.0
 20
0.0
 30
0.0
  9
$UCSXDIR
 10
1.0
 20
0.0
 30
0.0
  9
$UCSYDIR
 10
0.0
 20
1.0
 30
0.0
  9
$UCSORTHOREF
  2

  9
$UCSORTHOVIEW
 70
0
  9
$UCSORGTOP
 10
0.0
 20
0.0
 30
0.0
  9
$UCSORGBOTTOM
 10
0.0
 20
0.0
 30
0.0
  9
$UCSORGLEFT
 10
0.0
 20
0.0
 30
0.0
  9
$UCSORGRIGHT
 10
0.0
 20
0.0
 30
0.0
  9
$UCSORGFRONT
 10
0.0
 20
0.0
 30
0.0
  9
$UCSORGBACK
 10
0.0
 20
0.0
 30
0.0
  9
$PUCSBASE
  2

  9
$PUCSNAME
  2

  9
$PUCSORG
 10
0.0
 20
0.0
 30
0.0
  9
$PUCSXDIR
 10
1.0
 20
0.0
 30
0.0
  9
$PUCSYDIR
 10
0.0
 20
1.0
 30
0.0
  9
$PUCSORTHOREF
  2

  9
$PUCSORTHOVIEW
 70
0
  9
$PUCSORGTOP
 10
0.0
 20
0.0
 30
0.0
  9
$PUCSORGBOTTOM
 10
0.0
 20
0.0
 30
0.0
  9
$PUCSORGLEFT
 10
0.0
 20
0.0
 30
0.0
  9
$PUCSORGRIGHT
 10
0.0
 20
0.0
 30
0.0
  9
$PUCSORGFRONT
 10
0.0
 20
0.0
 30
0.0
  9
$PUCSORGBACK
 10
0.0
 20
0.0
 30
0.0
  9
$USERI1
 70
0
  9
$USERI2
 70
0
  9
$USERI3
 70
0
  9
$USERI4
 70
0
  9
$USERI5
 70
0
  9
$USERR1
 40
0.0
  9
$USERR2
 40
0.0
  9
$USERR3
 40
0.0
  9
$USERR4
 40
0.0
  9
$USERR5
 40
0.0
  9
$WORLDVIEW
 70
1
  9
$SHADEDGE
 70
3
  9
$SHADEDIF
 70
70
  9
$TILEMODE
 70
1
  9
$MAXACTVP
 70
64
  9
$PINSBASE
 10
0.0
 20
0.0
 30
0.0
  9
$PLIMCHECK
 70
0
  9
$PEXTMIN
 10
1e+20
 20
1e+20
 30
1e+20
  9
$PEXTMAX
 10
-1e+20
 20
-1e+20
 30
-1e+20
  9
$PLIMMIN
 10
0.0
 20
0.0
  9
$PLIMMAX
 10
420.0
 20
297.0
  9
$UNITMODE
 70
0
  9
$VISRETAIN
 70
1
  9
$PLINEGEN
 70
0
  9
$PSLTSCALE
 70
1
  9
$TREEDEPTH
 70
3020
  9
$CMLSTYLE
  2
Standard
  9
$CMLJUST
 70
0
  9
$CMLSCALE
 40
20.0
  9
$PROXYGRAPHICS
 70
1
  9
$MEASUREMENT
 70
1
  9
$CELWEIGHT
370
-1
  9
$ENDCAPS
280
0
  9
$JOINSTYLE
280
0
  9
$LWDISPLAY
290
0
  9
$INSUNITS
 70
6
  9
$HYPERLINKBASE
  1

  9
$STYLESHEET
  1

  9
$XEDIT
290
1
  9
$CEPSNTYPE
380
0
  9
$PSTYLEMODE
290
1
  9
$FINGERPRINTGUID
  2
{89B9F515-D6ED-4D05-9DEA-89BE43C305CE}
  9
$VERSIONGUID
  2
{27BB89ED-D6AE-4D18-88AB-FAF405A6EFAC}
  9
$EXTNAMES
290
1
  9
$PSVPSCALE
 40
0.0
  9
$OLESTARTUP
290
0
  9
$SORTENTS
280
127
  9
$INDEXCTL
280
0
  9
$HIDETEXT
280
1
  9
$XCLIPFRAME
280
1
  9
$HALOGAP
280
0
  9
$OBSCOLOR
 70
257
  9
$OBSLTYPE
280
0
  9
$INTERSECTIONDISPLAY
280
0
  9
$INTERSECTIONCOLOR
 70
257
  9
$DIMASSOC
280
2
  9
$PROJECTNAME
  1

  9
$CAMERADISPLAY
290
0
  9
$LENSLENGTH
 40
50.0
  9
$CAMERAHEIGHT
 40
0.0
  9
$STEPSPERSEC
 40
24.0
  9
$STEPSIZE
 40
100.0
  9
$3DDWFPREC
 40
2.0
  9
$PSOLWIDTH
 40
0.005
  9
$PSOLHEIGHT
 40
0.08
  9
$LOFTANG1
 40
1.570796326795
  9
$LOFTANG2
 40
1.570796326795
  9
$LOFTMAG1
 40
0.0
  9
$LOFTMAG2
 40
0.0
  9
$LOFTPARAM
 70
7
  9
$LOFTNORMALS
280
1
  9
$LATITUDE
 40
37.795
  9
$LONGITUDE
 40
-122.394
  9
$NORTHDIRECTION
 40
0.0
  9
$TIMEZONE
 70
-8000
  9
$LIGHTGLYPHDISPLAY
280
1
  9
$TILEMODELIGHTSYNCH
280
1
  9
$CMATERIAL
347
20
  9
$SOLIDHIST
280
0
  9
$SHOWHIST
280
1
  9
$DWFFRAME
280
2
  9
$DGNFRAME
280
2
  9
$REALWORLDSCALE
290
1
  9
$INTERFERECOLOR
 62
256
  9
$CSHADOW
280
0
  9
$SHADOWPLANELOCATION
 40
0.0
  0
ENDSEC
  0
SECTION
  2
CLASSES
  0
CLASS
  1
ACDBDICTIONARYWDFLT
  2
AcDbDictionaryWithDefault
  3
ObjectDBX Classes
 90
0
 91
0
280
0
281
0
  0
CLASS
  1
SUN
  2
AcDbSun
  3
SCENEOE
 90
1153
 91
0
280
0
281
0
  0
CLASS
  1
VISUALSTYLE
  2
AcDbVisualStyle
  3
ObjectDBX Classes
 90
4095
 91
0
280
0
281
0
  0
CLASS
  1
MATERIAL
  2
AcDbMaterial
  3
ObjectDBX Classes
 90
1153
 91
0
280
0
281
0
  0
CLASS
  1
SCALE
  2
AcDbScale
  3
ObjectDBX Classes
 90
1153
 91
0
280
0
281
0
  0
CLASS
  1
TABLESTYLE
  2
AcDbTableStyle
  3
ObjectDBX Classes
 90
4095
 91
0
280
0
281
0
  0
CLASS
  1
MLEADERSTYLE
  2
AcDbMLeaderStyle
  3
ACDB_MLEADERSTYLE_CLASS
 90
4095
 91
0
280
0
281
0
  0
CLASS
  1
DICTIONARYVAR
  2
AcDbDictionaryVar
  3
ObjectDBX Classes
 90
0
 91
0
280
0
281
0
  0
CLASS
  1
CELLSTYLEMAP
  2
AcDbCellStyleMap
  3
ObjectDBX Classes
 90
1152
 91
0
280
0
281
0
  0
CLASS
  1
MENTALRAYRENDERSETTINGS
  2
AcDbMentalRayRenderSettings
  3
SCENEOE
 90
1024
 91
0
280
0
281
0
  0
CLASS
  1
ACDBDETAILVIEWSTYLE
  2
AcDbDetailViewStyle
  3
ObjectDBX Classes
 90
1025
 91
0
280
0
281
0
  0
CLASS
  1
ACDBSECTIONVIEWSTYLE
  2
AcDbSectionViewStyle
  3
ObjectDBX Classes
 90
1025
 91
0
280
0
281
0
  0
CLASS
  1
RASTERVARIABLES
  2
AcDbRasterVariables
  3
ISM
 90
0
 91
0
280
0
281
0
  0
CLASS
  1
LAYOUT
  2
AcDbLayout
  3
ObjectDBX Classes
 90
0
 91
0
280
0
281
0
  0
CLASS
  1
ACDBPLACEHOLDER
  2
AcDbPlaceHolder
  3
ObjectDBX Classes
 90
0
 91
0
280
0
281
0
  0
ENDSEC
  0
SECTION
  2
TABLES
  0
TABLE
  2
VPORT
  5
8
330
0
100
AcDbSymbolTable
 70
1
  0
VPORT
  5
23
330
8
100
AcDbSymbolTableRecord
100
AcDbViewportTableRecord
  2
*Active
 70
0
 10
0.0
 20
0.0
 11
1.0
 21
1.0
 12
0.0
 22
0.0
 13
0.0
 23
0.0
 14
0.5
 24
0.5
 15
0.5
 25
0.5
 16
0.0
 26
0.0
 36
1.0
 17
0.0
 27
0.0
 37
0.0
 40
1000.0
 41
1.34
 42
50.0
 43
0.0
 44
0.0
 50
0.0
 51
0.0
 71
0
 72
1000
 73
1
 74
3
 75
0
 76
0
 77
0
 78
0
281
0
 65
0
146
0.0
  0
ENDTAB
  0
TABLE
  2
LTYPE
  5
2
330
0
100
AcDbSymbolTable
 70
4
  0
LTYPE
  5
24
330
2
100
AcDbSymbolTableRecord
100
AcDbLinetypeTableRecord
  2
ByBlock
 70
0
  3

 72
65
 73
0
 40
0.0
  0
LTYPE
  5
25
330
2
100
AcDbSymbolTableRecord
100
AcDbLinetypeTableRecord
  2
ByLayer
 70
0
  3

 72
65
 73
0
 40
0.0
  0
LTYPE
  5
26
330
2
100
AcDbSymbolTableRecord
100
AcDbLinetypeTableRecord
  2
Continuous
 70
0
  3

 72
65
 73
0
 40
0.0
  0
LTYPE
  5
45
330
2
100
AcDbSymbolTableRecord
100
AcDbLinetypeTableRecord
  2
CENTER
 70
0
  3
Center -----  -  -----  -  -----
 72
65
 73
4
 40
1.25
 49
0.625
 74
0
 49
-0.25
 74
0
 49
0.125
 74
0
 49
-0.25
 74
0
  0
ENDTAB
  0
TABLE
  2
LAYER
  5
1
330
0
100
AcDbSymbolTable
 70
5
  0
LAYER
  5
27
330
1
100
AcDbSymbolTableRecord
100
AcDbLayerTableRecord
  2
0
 70
0
 62
7
  6
Continuous
370
-3
390
13
347
21
  0
LAYER
  5
28
330
1
100
AcDbSymbolTableRecord
100
AcDbLayerTableRecord
  2
Defpoints
 70
0
 62
7
  6
Continuous
290
0
370
-3
390
13
347
21
  0
LAYER
  5
2F
330
1
100
AcDbSymbolTableRecord
100
AcDbLayerTableRecord
  2
buildings
 70
0
 62
1
  6
Continuous
370
-3
390
13
347
21
  0
LAYER
  5
33
330
1
100
AcDbSymbolTableRecord
100
AcDbLayerTableRecord
  2
roads
 70
0
 62
2
  6
Continuous
370
-3
390
13
347
21
  0
LAYER
  5
37
330
1
100
AcDbSymbolTableRecord
100
AcDbLayerTableRecord
  2
points
 70
0
 62
3
  6
Continuous
370
-3
390
13
347
21
  0
ENDTAB
  0
TABLE
  2
STYLE
  5
5
330
0
100
AcDbSymbolTable
 70
1
  0
STYLE
  5
29
330
5
100
AcDbSymbolTableRecord
100
AcDbTextStyleTableRecord
  2
Standard
 70
0
 40
0.0
 41
1.0
 50
0.0
 71
0
 42
2.5
  3
txt
  4

  0
ENDTAB
  0
TABLE
  2
VIEW
  5
7
330
0
100
AcDbSymbolTable
 70
0
  0
ENDTAB
  0
TABLE
  2
UCS
  5
6
330
0
100
AcDbSymbolTable
 70
0
  0
ENDTAB
  0
TABLE
  2
APPID
  5
3
330
0
100
AcDbSymbolTable
 70
3
  0
APPID
  5
2A
330
3
100
AcDbSymbolTableRecord
100
AcDbRegAppTableRecord
  2
ACAD
 70
0
  0
APPID
  5
3B
330
3
100
AcDbSymbolTableRecord
100
AcDbRegAppTableRecord
  2
HATCHBACKGROUNDCOLOR
 70
0
  0
APPID
  5
3C
330
3
100
AcDbSymbolTableRecord
100
AcDbRegAppTableRecord
  2
EZDXF
 70
0
  0
ENDTAB
  0
TABLE
  2
DIMSTYLE
  5
4
330
0
100
AcDbSymbolTable
 70
1
100
AcDbDimStyleTable
  0
DIMSTYLE
105
2B
330
4
100
AcDbSymbolTableRecord
100
AcDbDimStyleTableRecord
  2
Standard
 70
0
 40
1.0
 41
2.5
 42
0.625
 43
3.75
 44
1.25
 45
0.0
 46
0.0
 47
0.0
 48
0.0
 49
2.5
140
2.5
141
2.5
142
0.0
143
0.03937007874
144
1.0
145
0.0
146
1.0
147
0.625
148
0.0
 69
0
 70
0
 71
0
 72
0
 73
0
 74
0
 75
0
 76
0
 77
1
 78
8
 79
3
170
0
171
3
172
1
173
0
174
0
175
0
176
0
177
0
178
0
179
2
271
2
272
2
273
2
274
3
275
0
276
0
277
2
278
44
279
0
280
0
281
0
282
0
283
0
284
8
285
0
286
0
288
0
289
3
290
0
371
-2
372
-2
  0
ENDTAB
  0
TABLE
  2
BLOCK_RECORD
  5
9
330
0
100
AcDbSymbolTable
 70
2
  0
BLOCK_RECORD
  5
17
330
9
100
AcDbSymbolTableRecord
100
AcDbBlockTableRecord
  2
*Model_Space
340
1A
 70
0
280
1
281
0
  0
BLOCK_RECORD
  5
1B
330
9
100
AcDbSymbolTableRecord
100
AcDbBlockTableRecord
  2
*Paper_Space
340
1E
 70
0
280
1
281
0
  0
ENDTAB
  0
ENDSEC
  0
SECTION
  2
BLOCKS
  0
BLOCK
  5
18
330
17
100
AcDbEntity
  8
0
100
AcDbBlockBegin
  2
*Model_Space
 70
0
 10
0.0
 20
0.0
 30
0.0
  3
*Model_Space
  1

  0
ENDBLK
  5
19
330
17
100
AcDbEntity
  8
0
100
AcDbBlockEnd
  0
BLOCK
  5
1C
330
1B
100
AcDbEntity
  8
0
100
AcDbBlockBegin
  2
*Paper_Space
 70
0
 10
0.0
 20
0.0
 30
0.0
  3
*Paper_Space
  1

  0
ENDBLK
  5
1D
330
1B
100
AcDbEntity
  8
0
100
AcDbBlockEnd
  0
ENDSEC
  0
SECTION
  2
ENTITIES
  0
LWPOLYLINE
  5
4B
330
17
100
AcDbEntity
  8
buildings
  6
CONTINUOUS
 62
1
370
50
100
AcDbPolyline
 90
5
 70
1
 10
13.404
 20
52.52
 10
13.406
 20
52.52
 10
13.406
 20
52.522
 10
13.404
 20
52.522
 10
13.404
 20
52.52
  0
LWPOLYLINE
  5
4C
330
17
100
AcDbEntity
  8
roads
  6
CENTER
 62
2
370
100
100
AcDbPolyline
 90
2
 70
0
 10
13.4
 20
52.518
 10
13.41
 20
52.525
  0
POINT
  5
4D
330
17
100
AcDbEntity
  8
points
 62
3
370
20
100
AcDbPoint
 10
13.405
 20
52.521
 30
0.0
  0
LWPOLYLINE
  5
4E
330
17
100
AcDbEntity
  8
buildings
  6
CONTINUOUS
 62
1
370
50
100
AcDbPolyline
 90
5
 70
1
 10
13.404
 20
52.52
 10
13.406
 20
52.52
 10
13.406
 20
52.522
 10
13.404
 20
52.522
 10
13.404
 20
52.52
  0
LWPOLYLINE
  5
4F
330
17
100
AcDbEntity
  8
roads
  6
CENTER
 62
2
370
100
100
AcDbPolyline
 90
2
 70
0
 10
13.4
 20
52.518
 10
13.41
 20
52.525
  0
POINT
  5
50
330
17
100
AcDbEntity
  8
points
 62
3
370
20
100
AcDbPoint
 10
13.405
 20
52.521
 30
0.0
  0
LWPOLYLINE
  5
51
330
17
100
AcDbEntity
  8
buildings
  6
CONTINUOUS
 62
1
370
50
100
AcDbPolyline
 90
5
 70
1
 10
13.404
 20
52.52
 10
13.406
 20
52.52
 10
13.406
 20
52.522
 10
13.404
 20
52.522
 10
13.404
 20
52.52
  0
LWPOLYLINE
  5
52
330
17
100
AcDbEntity
  8
roads
  6
CENTER
 62
2
370
100
100
AcDbPolyline
 90
2
 70
0
 10
13.4
 20
52.518
 10
13.41
 20
52.525
  0
POINT
  5
53
330
17
100
AcDbEntity
  8
points
 62
3
370
20
100
AcDbPoint
 10
13.405
 20
52.521
 30
0.0
  0
LWPOLYLINE
  5
54
330
17
100
AcDbEntity
  8
buildings
  6
CONTINUOUS
 62
1
370
50
100
AcDbPolyline
 90
5
 70
1
 10
13.404
 20
52.52
 10
13.406
 20
52.52
 10
13.406
 20
52.522
 10
13.404
 20
52.522
 10
13.404
 20
52.52
  0
LWPOLYLINE
  5
55
330
17
100
AcDbEntity
  8
roads
  6
CENTER
 62
2
370
100
100
AcDbPolyline
 90
2
 70
0
 10
13.4
 20
52.518
 10
13.41
 20
52.525
  0
POINT
  5
56
330
17
100
AcDbEntity
  8
points
 62
3
370
20
100
AcDbPoint
 10
13.405
 20
52.521
 30
0.0
  0
LWPOLYLINE
  5
57
330
17
100
AcDbEntity
  8
buildings
  6
CONTINUOUS
 62
1
370
50
100
AcDbPolyline
 90
5
 70
1
 10
13.404
 20
52.52
 10
13.406
 20
52.52
 10
13.406
 20
52.522
 10
13.404
 20
52.522
 10
13.404
 20
52.52
  0
LWPOLYLINE
  5
58
330
17
100
AcDbEntity
  8
roads
  6
CENTER
 62
2
370
100
100
AcDbPolyline
 90
2
 70
0
 10
13.4
 20
52.518
 10
13.41
 20
52.525
  0
POINT
  5
59
330
17
100
AcDbEntity
  8
points
 62
3
370
20
100
AcDbPoint
 10
13.405
 20
52.521
 30
0.0
  0
LWPOLYLINE
  5
5A
330
17
100
AcDbEntity
  8
buffered_buildings
100
AcDbPolyline
 90
69
 70
1
 10
3.404
 20
52.52
 10
3.404
 20
52.522
 10
3.452152733278032
 20
53.502171403295606
 10
3.5961471959676956
 20
54.472903220161285
 10
3.834596642677912
 20
55.424846772544626
 10
4.165204674887132
 20
56.3488343236509
 10
4.5847873565164505
 20
57.23596736825998
 10
5.089303876974547
 20
58.07770233019602
 10
5.67389546637263
 20
58.86593284163645
 10
6.332932188134525
 20
59.593067811865474
 10
7.060067158363546
 20
60.25210453362737
 10
7.84829766980398
 20
60.836696123025455
 10
8.690032631740022
 20
61.34121264348355
 10
9.577165676349104
 20
61.760795325112866
 10
10.50115322745538
 20
62.091403357322086
 10
11.453096779838718
 20
62.3298528040323
 10
12.423828596704393
 20
62.47384726672197
 10
13.404
 20
62.522
 10
13.406
 20
62.522
 10
14.386171403295608
 20
62.47384726672197
 10
15.356903220161284
 20
62.3298528040323
 10
16.308846772544623
 20
62.091403357322086
 10
17.2328343236509
 20
61.760795325112866
 10
18.119967368259978
 20
61.341212643483544
 10
18.961702330196022
 20
60.83669612302545
 10
19.749932841636458
 20
60.25210453362737
 10
20.477067811865474
 20
59.593067811865474
 10
21.13610453362737
 20
58.86593284163645
 10
21.720696123025455
 20
58.07770233019602
 10
22.22521264348355
 20
57.23596736825998
 10
22.644795325112867
 20
56.3488343236509
 10
22.975403357322087
 20
55.42484677254462
 10
23.213852804032307
 20
54.47290322016128
 10
23.35784726672197
 20
53.502171403295606
 10
23.406
 20
52.522
 10
23.406
 20
52.52
 10
23.35784726672197
 20
51.539828596704396
 10
23.213852804032307
 20
50.56909677983872
 10
22.97540335732209
 20
49.61715322745538
 10
22.644795325112867
 20
48.6931656763491
 10
22.22521264348355
 20
47.806032631740024
 10
21.720696123025455
 20
46.96429766980398
 10
21.13610453362737
 20
46.17606715836355
 10
20.477067811865474
 20
45.44893218813453
 10
19.749932841636458
 20
44.789895466372634
 10
18.961702330196022
 20
44.205303876974554
 10
18.119967368259978
 20
43.70078735651646
 10
17.2328343236509
 20
43.281204674887135
 10
16.308846772544623
 20
42.950596642677915
 10
15.356903220161284
 20
42.7121471959677
 10
14.386171403295608
 20
42.56815273327803
 10
13.406
 20
42.52
 10
13.404
 20
42.52
 10
12.423828596704393
 20
42.56815273327803
 10
11.453096779838718
 20
42.7121471959677
 10
10.50115322745538
 20
42.950596642677915
 10
9.577165676349104
 20
43.281204674887135
 10
8.690032631740022
 20
43.70078735651645
 10
7.84829766980398
 20
44.20530387697455
 10
7.060067158363546
 20
44.789895466372634
 10
6.332932188134525
 20
45.44893218813453
 10
5.67389546637263
 20
46.17606715836355
 10
5.089303876974547
 20
46.96429766980398
 10
4.5847873565164505
 20
47.806032631740024
 10
4.165204674887132
 20
48.6931656763491
 10
3.834596642677912
 20
49.617153227455375
 10
3.5961471959676956
 20
50.569096779838716
 10
3.452152733278032
 20
51.539828596704396
 10
3.404
 20
52.52
  0
LWPOLYLINE
  5
5B
330
17
100
AcDbEntity
  8
roads_minus_buildings
100
AcDbPolyline
 90
2
 70
0
 10
13.4
 20
52.518
 10
13.404
 20
52.5208
  0
LWPOLYLINE
  5
5C
330
17
100
AcDbEntity
  8
roads_minus_buildings
100
AcDbPolyline
 90
2
 70
0
 10
13.405714285714284
 20
52.522
 10
13.41
 20
52.525
  0
LWPOLYLINE
  5
5D
330
17
100
AcDbEntity
  8
intersected_features
100
AcDbPolyline
 90
2
 70
0
 10
13.4
 20
52.518
 10
13.41
 20
52.525
  0
LWPOLYLINE
  5
5E
330
17
100
AcDbEntity
  8
union_features
100
AcDbPolyline
 90
5
 70
1
 10
13.404
 20
52.522
 10
13.406
 20
52.522
 10
13.406
 20
52.52
 10
13.404
 20
52.52
 10
13.404
 20
52.522
  0
LWPOLYLINE
  5
5F
330
17
100
AcDbEntity
  8
union_features
100
AcDbPolyline
 90
69
 70
1
 10
3.404
 20
52.522
 10
3.452152733278032
 20
53.502171403295606
 10
3.5961471959676956
 20
54.472903220161285
 10
3.834596642677912
 20
55.424846772544626
 10
4.165204674887132
 20
56.3488343236509
 10
4.5847873565164505
 20
57.23596736825998
 10
5.089303876974547
 20
58.07770233019602
 10
5.67389546637263
 20
58.86593284163645
 10
6.332932188134525
 20
59.593067811865474
 10
7.060067158363546
 20
60.25210453362737
 10
7.84829766980398
 20
60.836696123025455
 10
8.690032631740022
 20
61.34121264348355
 10
9.577165676349104
 20
61.760795325112866
 10
10.50115322745538
 20
62.091403357322086
 10
11.453096779838718
 20
62.3298528040323
 10
12.423828596704393
 20
62.47384726672197
 10
13.404
 20
62.522
 10
13.406
 20
62.522
 10
14.386171403295608
 20
62.47384726672197
 10
15.356903220161284
 20
62.3298528040323
 10
16.308846772544623
 20
62.091403357322086
 10
17.2328343236509
 20
61.760795325112866
 10
18.119967368259978
 20
61.341212643483544
 10
18.961702330196022
 20
60.83669612302545
 10
19.749932841636458
 20
60.25210453362737
 10
20.477067811865474
 20
59.593067811865474
 10
21.13610453362737
 20
58.86593284163645
 10
21.720696123025455
 20
58.07770233019602
 10
22.22521264348355
 20
57.23596736825998
 10
22.644795325112867
 20
56.3488343236509
 10
22.975403357322087
 20
55.42484677254462
 10
23.213852804032307
 20
54.47290322016128
 10
23.35784726672197
 20
53.502171403295606
 10
23.406
 20
52.522
 10
23.406
 20
52.52
 10
23.35784726672197
 20
51.539828596704396
 10
23.213852804032307
 20
50.56909677983872
 10
22.97540335732209
 20
49.61715322745538
 10
22.644795325112867
 20
48.6931656763491
 10
22.22521264348355
 20
47.806032631740024
 10
21.720696123025455
 20
46.96429766980398
 10
21.13610453362737
 20
46.17606715836355
 10
20.477067811865474
 20
45.44893218813453
 10
19.749932841636458
 20
44.789895466372634
 10
18.961702330196022
 20
44.205303876974554
 10
18.119967368259978
 20
43.70078735651646
 10
17.2328343236509
 20
43.281204674887135
 10
16.308846772544623
 20
42.950596642677915
 10
15.356903220161284
 20
42.7121471959677
 10
14.386171403295608
 20
42.56815273327803
 10
13.406
 20
42.52
 10
13.404
 20
42.52
 10
12.423828596704393
 20
42.56815273327803
 10
11.453096779838718
 20
42.7121471959677
 10
10.50115322745538
 20
42.950596642677915
 10
9.577165676349104
 20
43.281204674887135
 10
8.690032631740022
 20
43.70078735651645
 10
7.84829766980398
 20
44.20530387697455
 10
7.060067158363546
 20
44.789895466372634
 10
6.332932188134525
 20
45.44893218813453
 10
5.67389546637263
 20
46.17606715836355
 10
5.089303876974547
 20
46.96429766980398
 10
4.5847873565164505
 20
47.806032631740024
 10
4.165204674887132
 20
48.6931656763491
 10
3.834596642677912
 20
49.617153227455375
 10
3.5961471959676956
 20
50.569096779838716
 10
3.452152733278032
 20
51.539828596704396
 10
3.404
 20
52.52
 10
3.404
 20
52.522
  0
LWPOLYLINE
  5
60
330
17
100
AcDbEntity
  8
union_features
100
AcDbPolyline
 90
5
 70
1
 10
13.406
 20
52.52
 10
13.406
 20
52.522
 10
13.404
 20
52.522
 10
13.404
 20
52.52
 10
13.406
 20
52.52
  0
LWPOLYLINE
  5
61
330
17
100
AcDbEntity
  8
simplified_roads
100
AcDbPolyline
 90
2
 70
0
 10
13.4
 20
52.518
 10
13.41
 20
52.525
  0
LWPOLYLINE
  5
62
330
17
100
AcDbEntity
  8
dissolved_buildings
100
AcDbPolyline
 90
5
 70
1
 10
13.404
 20
52.52
 10
13.406
 20
52.52
 10
13.406
 20
52.522
 10
13.404
 20
52.522
 10
13.404
 20
52.52
  0
LWPOLYLINE
  5
63
330
17
100
AcDbEntity
  8
bounding_box
100
AcDbPolyline
 90
5
 70
1
 10
18.41
 20
47.518
 10
18.41
 20
57.525
 10
8.4
 20
57.525
 10
8.4
 20
47.518
 10
18.41
 20
47.518
  0
LWPOLYLINE
  5
64
330
17
100
AcDbEntity
  8
circles_from_points
100
AcDbPolyline
 90
65
 70
1
 10
28.405
 20
52.521
 10
28.332770900082956
 20
51.050742895056594
 10
28.116779206048456
 20
49.594645169758074
 10
27.759105035983133
 20
48.16672984118306
 10
27.2631929876693
 20
46.78074851452365
 10
26.633818965225323
 20
45.450048947610036
 10
25.87704418453818
 20
44.18744650470597
 10
25.000156800441054
 20
43.00510073754532
 10
24.011601717798214
 20
41.91439828220179
 10
22.920899262454682
 20
40.92584319955895
 10
21.738553495294035
 20
40.048955815461824
 10
20.475951052389966
 20
39.29218103477468
 10
19.145251485476347
 20
38.6628070123307
 10
17.759270158816935
 20
38.16689496401687
 10
16.331354830241924
 20
37.809220793951546
 10
14.875257104943412
 20
37.593229099917046
 10
13.405
 20
37.521
 10
11.93474289505659
 20
37.593229099917046
 10
10.478645169758076
 20
37.809220793951546
 10
9.050729841183067
 20
38.16689496401687
 10
7.664748514523653
 20
38.6628070123307
 10
6.334048947610034
 20
39.29218103477467
 10
5.071446504705969
 20
40.04895581546182
 10
3.889100737545318
 20
40.92584319955894
 10
2.798398282201788
 20
41.91439828220179
 10
1.8098431995589443
 20
43.00510073754532
 10
0.9329558154618187
 20
44.18744650470597
 10
0.17618103477467528
 20
45.450048947610036
 10
-0.4531929876693024
 20
46.78074851452365
 10
-0.9491050359831323
 20
48.16672984118306
 10
-1.306779206048457
 20
49.594645169758074
 10
-1.5227709000829535
 20
51.05074289505659
 10
-1.5950000000000006
 20
52.521
 10
-1.5227709000829552
 20
53.99125710494341
 10
-1.306779206048457
 20
55.44735483024193
 10
-0.9491050359831341
 20
56.87527015881693
 10
-0.45319298766930416
 20
58.26125148547634
 10
0.1761810347746735
 20
59.591951052389966
 10
0.9329558154618169
 20
60.85455349529403
 10
1.8098431995589426
 20
62.03689926245468
 10
2.7983982822017843
 20
63.127601717798214
 10
3.889100737545311
 20
64.11615680044105
 10
5.071446504705966
 20
64.99304418453818
 10
6.3340489476100315
 20
65.74981896522533
 10
7.6647485145236445
 20
66.3791929876693
 10
9.050729841183063
 20
66.87510503598313
 10
10.47864516975807
 20
67.23277920604846
 10
11.934742895056592
 20
67.44877090008296
 10
13.405
 20
67.521
 10
14.875257104943401
 20
67.44877090008296
 10
16.331354830241924
 20
67.23277920604846
 10
17.759270158816932
 20
66.87510503598314
 10
19.14525148547635
 20
66.3791929876693
 10
20.475951052389963
 20
65.74981896522533
 10
21.738553495294028
 20
64.99304418453818
 10
22.920899262454682
 20
64.11615680044105
 10
24.011601717798207
 20
63.127601717798214
 10
25.000156800441047
 20
62.03689926245469
 10
25.87704418453818
 20
60.854553495294034
 10
26.633818965225323
 20
59.59195105238997
 10
27.2631929876693
 20
58.26125148547636
 10
27.759105035983133
 20
56.87527015881694
 10
28.116779206048456
 20
55.447354830241935
 10
28.332770900082956
 20
53.99125710494341
 10
28.405
 20
52.521
  0
LWPOLYLINE
  5
65
330
17
100
AcDbEntity
  8
copied_buildings
100
AcDbPolyline
 90
5
 70
1
 10
13.404
 20
52.52
 10
13.406
 20
52.52
 10
13.406
 20
52.522
 10
13.404
 20
52.522
 10
13.404
 20
52.52
  0
LWPOLYLINE
  5
66
330
17
100
AcDbEntity
  8
translated_buildings
100
AcDbPolyline
 90
5
 70
1
 10
33.403999999999996
 20
62.52
 10
33.406
 20
62.52
 10
33.406
 20
62.522
 10
33.403999999999996
 20
62.522
 10
33.403999999999996
 20
62.52
  0
LWPOLYLINE
  5
67
330
17
100
AcDbEntity
  8
envelopes
100
AcDbPolyline
 90
5
 70
1
 10
13.404
 20
52.522
 10
13.406
 20
52.522
 10
13.406
 20
52.52
 10
13.404
 20
52.52
 10
13.404
 20
52.522
  0
LWPOLYLINE
  5
68
330
17
100
AcDbEntity
  8
buildings_with_area
100
AcDbPolyline
 90
5
 70
1
 10
13.404
 20
52.52
 10
13.406
 20
52.52
 10
13.406
 20
52.522
 10
13.404
 20
52.522
 10
13.404
 20
52.52
  0
LWPOLYLINE
  5
69
330
17
100
AcDbEntity
  8
buildings
  6
CONTINUOUS
 62
1
370
50
100
AcDbPolyline
 90
5
 70
1
 10
13.404
 20
52.52
 10
13.406
 20
52.52
 10
13.406
 20
52.522
 10
13.404
 20
52.522
 10
13.404
 20
52.52
  0
LWPOLYLINE
  5
6A
330
17
100
AcDbEntity
  8
roads
  6
CENTER
 62
2
370
100
100
AcDbPolyline
 90
2
 70
0
 10
13.4
 20
52.518
 10
13.41
 20
52.525
  0
POINT
  5
6B
330
17
100
AcDbEntity
  8
points
 62
3
370
20
100
AcDbPoint
 10
13.405
 20
52.521
 30
0.0
  0
LWPOLYLINE
  5
6C
330
17
100
AcDbEntity
  8
buffered_buildings
100
AcDbPolyline
 90
69
 70
1
 10
3.404
 20
52.52
 10
3.404
 20
52.522
 10
3.452152733278032
 20
53.502171403295606
 10
3.5961471959676956
 20
54.472903220161285
 10
3.834596642677912
 20
55.424846772544626
 10
4.165204674887132
 20
56.3488343236509
 10
4.5847873565164505
 20
57.23596736825998
 10
5.089303876974547
 20
58.07770233019602
 10
5.67389546637263
 20
58.86593284163645
 10
6.332932188134525
 20
59.593067811865474
 10
7.060067158363546
 20
60.25210453362737
 10
7.84829766980398
 20
60.836696123025455
 10
8.690032631740022
 20
61.34121264348355
 10
9.577165676349104
 20
61.760795325112866
 10
10.50115322745538
 20
62.091403357322086
 10
11.453096779838718
 20
62.3298528040323
 10
12.423828596704393
 20
62.47384726672197
 10
13.404
 20
62.522
 10
13.406
 20
62.522
 10
14.386171403295608
 20
62.47384726672197
 10
15.356903220161284
 20
62.3298528040323
 10
16.308846772544623
 20
62.091403357322086
 10
17.2328343236509
 20
61.760795325112866
 10
18.119967368259978
 20
61.341212643483544
 10
18.961702330196022
 20
60.83669612302545
 10
19.749932841636458
 20
60.25210453362737
 10
20.477067811865474
 20
59.593067811865474
 10
21.13610453362737
 20
58.86593284163645
 10
21.720696123025455
 20
58.07770233019602
 10
22.22521264348355
 20
57.23596736825998
 10
22.644795325112867
 20
56.3488343236509
 10
22.975403357322087
 20
55.42484677254462
 10
23.213852804032307
 20
54.47290322016128
 10
23.35784726672197
 20
53.502171403295606
 10
23.406
 20
52.522
 10
23.406
 20
52.52
 10
23.35784726672197
 20
51.539828596704396
 10
23.213852804032307
 20
50.56909677983872
 10
22.97540335732209
 20
49.61715322745538
 10
22.644795325112867
 20
48.6931656763491
 10
22.22521264348355
 20
47.806032631740024
 10
21.720696123025455
 20
46.96429766980398
 10
21.13610453362737
 20
46.17606715836355
 10
20.477067811865474
 20
45.44893218813453
 10
19.749932841636458
 20
44.789895466372634
 10
18.961702330196022
 20
44.205303876974554
 10
18.119967368259978
 20
43.70078735651646
 10
17.2328343236509
 20
43.281204674887135
 10
16.308846772544623
 20
42.950596642677915
 10
15.356903220161284
 20
42.7121471959677
 10
14.386171403295608
 20
42.56815273327803
 10
13.406
 20
42.52
 10
13.404
 20
42.52
 10
12.423828596704393
 20
42.56815273327803
 10
11.453096779838718
 20
42.7121471959677
 10
10.50115322745538
 20
42.950596642677915
 10
9.577165676349104
 20
43.281204674887135
 10
8.690032631740022
 20
43.70078735651645
 10
7.84829766980398
 20
44.20530387697455
 10
7.060067158363546
 20
44.789895466372634
 10
6.332932188134525
 20
45.44893218813453
 10
5.67389546637263
 20
46.17606715836355
 10
5.089303876974547
 20
46.96429766980398
 10
4.5847873565164505
 20
47.806032631740024
 10
4.165204674887132
 20
48.6931656763491
 10
3.834596642677912
 20
49.617153227455375
 10
3.5961471959676956
 20
50.569096779838716
 10
3.452152733278032
 20
51.539828596704396
 10
3.404
 20
52.52
  0
LWPOLYLINE
  5
6D
330
17
100
AcDbEntity
  8
merged_features
100
AcDbPolyline
 90
5
 70
1
 10
13.404
 20
52.52
 10
13.406
 20
52.52
 10
13.406
 20
52.522
 10
13.404
 20
52.522
 10
13.404
 20
52.52
  0
LWPOLYLINE
  5
6E
330
17
100
AcDbEntity
  8
merged_features
100
AcDbPolyline
 90
2
 70
0
 10
13.4
 20
52.518
 10
13.41
 20
52.525
  0
LWPOLYLINE
  5
6F
330
17
100
AcDbEntity
  8
roads_minus_buildings
100
AcDbPolyline
 90
2
 70
0
 10
13.4
 20
52.518
 10
13.404
 20
52.5208
  0
LWPOLYLINE
  5
70
330
17
100
AcDbEntity
  8
roads_minus_buildings
100
AcDbPolyline
 90
2
 70
0
 10
13.405714285714284
 20
52.522
 10
13.41
 20
52.525
  0
LWPOLYLINE
  5
71
330
17
100
AcDbEntity
  8
intersected_features
100
AcDbPolyline
 90
2
 70
0
 10
13.4
 20
52.518
 10
13.41
 20
52.525
  0
LWPOLYLINE
  5
72
330
17
100
AcDbEntity
  8
union_features
100
AcDbPolyline
 90
5
 70
1
 10
13.404
 20
52.522
 10
13.406
 20
52.522
 10
13.406
 20
52.52
 10
13.404
 20
52.52
 10
13.404
 20
52.522
  0
LWPOLYLINE
  5
73
330
17
100
AcDbEntity
  8
union_features
100
AcDbPolyline
 90
69
 70
1
 10
3.404
 20
52.522
 10
3.452152733278032
 20
53.502171403295606
 10
3.5961471959676956
 20
54.472903220161285
 10
3.834596642677912
 20
55.424846772544626
 10
4.165204674887132
 20
56.3488343236509
 10
4.5847873565164505
 20
57.23596736825998
 10
5.089303876974547
 20
58.07770233019602
 10
5.67389546637263
 20
58.86593284163645
 10
6.332932188134525
 20
59.593067811865474
 10
7.060067158363546
 20
60.25210453362737
 10
7.84829766980398
 20
60.836696123025455
 10
8.690032631740022
 20
61.34121264348355
 10
9.577165676349104
 20
61.760795325112866
 10
10.50115322745538
 20
62.091403357322086
 10
11.453096779838718
 20
62.3298528040323
 10
12.423828596704393
 20
62.47384726672197
 10
13.404
 20
62.522
 10
13.406
 20
62.522
 10
14.386171403295608
 20
62.47384726672197
 10
15.356903220161284
 20
62.3298528040323
 10
16.308846772544623
 20
62.091403357322086
 10
17.2328343236509
 20
61.760795325112866
 10
18.119967368259978
 20
61.341212643483544
 10
18.961702330196022
 20
60.83669612302545
 10
19.749932841636458
 20
60.25210453362737
 10
20.477067811865474
 20
59.593067811865474
 10
21.13610453362737
 20
58.86593284163645
 10
21.720696123025455
 20
58.07770233019602
 10
22.22521264348355
 20
57.23596736825998
 10
22.644795325112867
 20
56.3488343236509
 10
22.975403357322087
 20
55.42484677254462
 10
23.213852804032307
 20
54.47290322016128
 10
23.35784726672197
 20
53.502171403295606
 10
23.406
 20
52.522
 10
23.406
 20
52.52
 10
23.35784726672197
 20
51.539828596704396
 10
23.213852804032307
 20
50.56909677983872
 10
22.97540335732209
 20
49.61715322745538
 10
22.644795325112867
 20
48.6931656763491
 10
22.22521264348355
 20
47.806032631740024
 10
21.720696123025455
 20
46.96429766980398
 10
21.13610453362737
 20
46.17606715836355
 10
20.477067811865474
 20
45.44893218813453
 10
19.749932841636458
 20
44.789895466372634
 10
18.961702330196022
 20
44.205303876974554
 10
18.119967368259978
 20
43.70078735651646
 10
17.2328343236509
 20
43.281204674887135
 10
16.308846772544623
 20
42.950596642677915
 10
15.356903220161284
 20
42.7121471959677
 10
14.386171403295608
 20
42.56815273327803
 10
13.406
 20
42.52
 10
13.404
 20
42.52
 10
12.423828596704393
 20
42.56815273327803
 10
11.453096779838718
 20
42.7121471959677
 10
10.50115322745538
 20
42.950596642677915
 10
9.577165676349104
 20
43.281204674887135
 10
8.690032631740022
 20
43.70078735651645
 10
7.84829766980398
 20
44.20530387697455
 10
7.060067158363546
 20
44.789895466372634
 10
6.332932188134525
 20
45.44893218813453
 10
5.67389546637263
 20
46.17606715836355
 10
5.089303876974547
 20
46.96429766980398
 10
4.5847873565164505
 20
47.806032631740024
 10
4.165204674887132
 20
48.6931656763491
 10
3.834596642677912
 20
49.617153227455375
 10
3.5961471959676956
 20
50.569096779838716
 10
3.452152733278032
 20
51.539828596704396
 10
3.404
 20
52.52
 10
3.404
 20
52.522
  0
LWPOLYLINE
  5
74
330
17
100
AcDbEntity
  8
union_features
100
AcDbPolyline
 90
5
 70
1
 10
13.406
 20
52.52
 10
13.406
 20
52.522
 10
13.404
 20
52.522
 10
13.404
 20
52.52
 10
13.406
 20
52.52
  0
LWPOLYLINE
  5
75
330
17
100
AcDbEntity
  8
simplified_roads
100
AcDbPolyline
 90
2
 70
0
 10
13.4
 20
52.518
 10
13.41
 20
52.525
  0
LWPOLYLINE
  5
76
330
17
100
AcDbEntity
  8
dissolved_buildings
100
AcDbPolyline
 90
5
 70
1
 10
13.404
 20
52.52
 10
13.406
 20
52.52
 10
13.406
 20
52.522
 10
13.404
 20
52.522
 10
13.404
 20
52.52
  0
LWPOLYLINE
  5
77
330
17
100
AcDbEntity
  8
bounding_box
100
AcDbPolyline
 90
5
 70
1
 10
18.41
 20
47.518
 10
18.41
 20
57.525
 10
8.4
 20
57.525
 10
8.4
 20
47.518
 10
18.41
 20
47.518
  0
LWPOLYLINE
  5
78
330
17
100
AcDbEntity
  8
circles_from_points
100
AcDbPolyline
 90
65
 70
1
 10
28.405
 20
52.521
 10
28.332770900082956
 20
51.050742895056594
 10
28.116779206048456
 20
49.594645169758074
 10
27.759105035983133
 20
48.16672984118306
 10
27.2631929876693
 20
46.78074851452365
 10
26.633818965225323
 20
45.450048947610036
 10
25.87704418453818
 20
44.18744650470597
 10
25.000156800441054
 20
43.00510073754532
 10
24.011601717798214
 20
41.91439828220179
 10
22.920899262454682
 20
40.92584319955895
 10
21.738553495294035
 20
40.048955815461824
 10
20.475951052389966
 20
39.29218103477468
 10
19.145251485476347
 20
38.6628070123307
 10
17.759270158816935
 20
38.16689496401687
 10
16.331354830241924
 20
37.809220793951546
 10
14.875257104943412
 20
37.593229099917046
 10
13.405
 20
37.521
 10
11.93474289505659
 20
37.593229099917046
 10
10.478645169758076
 20
37.809220793951546
 10
9.050729841183067
 20
38.16689496401687
 10
7.664748514523653
 20
38.6628070123307
 10
6.334048947610034
 20
39.29218103477467
 10
5.071446504705969
 20
40.04895581546182
 10
3.889100737545318
 20
40.92584319955894
 10
2.798398282201788
 20
41.91439828220179
 10
1.8098431995589443
 20
43.00510073754532
 10
0.9329558154618187
 20
44.18744650470597
 10
0.17618103477467528
 20
45.450048947610036
 10
-0.4531929876693024
 20
46.78074851452365
 10
-0.9491050359831323
 20
48.16672984118306
 10
-1.306779206048457
 20
49.594645169758074
 10
-1.5227709000829535
 20
51.05074289505659
 10
-1.5950000000000006
 20
52.521
 10
-1.5227709000829552
 20
53.99125710494341
 10
-1.306779206048457
 20
55.44735483024193
 10
-0.9491050359831341
 20
56.87527015881693
 10
-0.45319298766930416
 20
58.26125148547634
 10
0.1761810347746735
 20
59.591951052389966
 10
0.9329558154618169
 20
60.85455349529403
 10
1.8098431995589426
 20
62.03689926245468
 10
2.7983982822017843
 20
63.127601717798214
 10
3.889100737545311
 20
64.11615680044105
 10
5.071446504705966
 20
64.99304418453818
 10
6.3340489476100315
 20
65.74981896522533
 10
7.6647485145236445
 20
66.3791929876693
 10
9.050729841183063
 20
66.87510503598313
 10
10.47864516975807
 20
67.23277920604846
 10
11.934742895056592
 20
67.44877090008296
 10
13.405
 20
67.521
 10
14.875257104943401
 20
67.44877090008296
 10
16.331354830241924
 20
67.23277920604846
 10
17.759270158816932
 20
66.87510503598314
 10
19.14525148547635
 20
66.3791929876693
 10
20.475951052389963
 20
65.74981896522533
 10
21.738553495294028
 20
64.99304418453818
 10
22.920899262454682
 20
64.11615680044105
 10
24.011601717798207
 20
63.127601717798214
 10
25.000156800441047
 20
62.03689926245469
 10
25.87704418453818
 20
60.854553495294034
 10
26.633818965225323
 20
59.59195105238997
 10
27.2631929876693
 20
58.26125148547636
 10
27.759105035983133
 20
56.87527015881694
 10
28.116779206048456
 20
55.447354830241935
 10
28.332770900082956
 20
53.99125710494341
 10
28.405
 20
52.521
  0
LWPOLYLINE
  5
79
330
17
100
AcDbEntity
  8
copied_buildings
100
AcDbPolyline
 90
5
 70
1
 10
13.404
 20
52.52
 10
13.406
 20
52.52
 10
13.406
 20
52.522
 10
13.404
 20
52.522
 10
13.404
 20
52.52
  0
LWPOLYLINE
  5
7A
330
17
100
AcDbEntity
  8
translated_buildings
100
AcDbPolyline
 90
5
 70
1
 10
33.403999999999996
 20
62.52
 10
33.406
 20
62.52
 10
33.406
 20
62.522
 10
33.403999999999996
 20
62.522
 10
33.403999999999996
 20
62.52
  0
LWPOLYLINE
  5
7B
330
17
100
AcDbEntity
  8
envelopes
100
AcDbPolyline
 90
5
 70
1
 10
13.404
 20
52.522
 10
13.406
 20
52.522
 10
13.406
 20
52.52
 10
13.404
 20
52.52
 10
13.404
 20
52.522
  0
LWPOLYLINE
  5
7C
330
17
100
AcDbEntity
  8
buildings_with_area
100
AcDbPolyline
 90
5
 70
1
 10
13.404
 20
52.52
 10
13.406
 20
52.52
 10
13.406
 20
52.522
 10
13.404
 20
52.522
 10
13.404
 20
52.52
  0
LWPOLYLINE
  5
7D
330
17
100
AcDbEntity
  8
buildings
  6
CONTINUOUS
 62
1
370
50
100
AcDbPolyline
 90
5
 70
1
 10
13.404
 20
52.52
 10
13.406
 20
52.52
 10
13.406
 20
52.522
 10
13.404
 20
52.522
 10
13.404
 20
52.52
  0
LWPOLYLINE
  5
7E
330
17
100
AcDbEntity
  8
roads
  6
CENTER
 62
2
370
100
100
AcDbPolyline
 90
2
 70
0
 10
13.4
 20
52.518
 10
13.41
 20
52.525
  0
POINT
  5
7F
330
17
100
AcDbEntity
  8
points
 62
3
370
20
100
AcDbPoint
 10
13.405
 20
52.521
 30
0.0
  0
LWPOLYLINE
  5
80
330
17
100
AcDbEntity
  8
buffered_buildings
100
AcDbPolyline
 90
69
 70
1
 10
3.404
 20
52.52
 10
3.404
 20
52.522
 10
3.452152733278032
 20
53.502171403295606
 10
3.5961471959676956
 20
54.472903220161285
 10
3.834596642677912
 20
55.424846772544626
 10
4.165204674887132
 20
56.3488343236509
 10
4.5847873565164505
 20
57.23596736825998
 10
5.089303876974547
 20
58.07770233019602
 10
5.67389546637263
 20
58.86593284163645
 10
6.332932188134525
 20
59.593067811865474
 10
7.060067158363546
 20
60.25210453362737
 10
7.84829766980398
 20
60.836696123025455
 10
8.690032631740022
 20
61.34121264348355
 10
9.577165676349104
 20
61.760795325112866
 10
10.50115322745538
 20
62.091403357322086
 10
11.453096779838718
 20
62.3298528040323
 10
12.423828596704393
 20
62.47384726672197
 10
13.404
 20
62.522
 10
13.406
 20
62.522
 10
14.386171403295608
 20
62.47384726672197
 10
15.356903220161284
 20
62.3298528040323
 10
16.308846772544623
 20
62.091403357322086
 10
17.2328343236509
 20
61.760795325112866
 10
18.119967368259978
 20
61.341212643483544
 10
18.961702330196022
 20
60.83669612302545
 10
19.749932841636458
 20
60.25210453362737
 10
20.477067811865474
 20
59.593067811865474
 10
21.13610453362737
 20
58.86593284163645
 10
21.720696123025455
 20
58.07770233019602
 10
22.22521264348355
 20
57.23596736825998
 10
22.644795325112867
 20
56.3488343236509
 10
22.975403357322087
 20
55.42484677254462
 10
23.213852804032307
 20
54.47290322016128
 10
23.35784726672197
 20
53.502171403295606
 10
23.406
 20
52.522
 10
23.406
 20
52.52
 10
23.35784726672197
 20
51.539828596704396
 10
23.213852804032307
 20
50.56909677983872
 10
22.97540335732209
 20
49.61715322745538
 10
22.644795325112867
 20
48.6931656763491
 10
22.22521264348355
 20
47.806032631740024
 10
21.720696123025455
 20
46.96429766980398
 10
21.13610453362737
 20
46.17606715836355
 10
20.477067811865474
 20
45.44893218813453
 10
19.749932841636458
 20
44.789895466372634
 10
18.961702330196022
 20
44.205303876974554
 10
18.119967368259978
 20
43.70078735651646
 10
17.2328343236509
 20
43.281204674887135
 10
16.308846772544623
 20
42.950596642677915
 10
15.356903220161284
 20
42.7121471959677
 10
14.386171403295608
 20
42.56815273327803
 10
13.406
 20
42.52
 10
13.404
 20
42.52
 10
12.423828596704393
 20
42.56815273327803
 10
11.453096779838718
 20
42.7121471959677
 10
10.50115322745538
 20
42.950596642677915
 10
9.577165676349104
 20
43.281204674887135
 10
8.690032631740022
 20
43.70078735651645
 10
7.84829766980398
 20
44.20530387697455
 10
7.060067158363546
 20
44.789895466372634
 10
6.332932188134525
 20
45.44893218813453
 10
5.67389546637263
 20
46.17606715836355
 10
5.089303876974547
 20
46.96429766980398
 10
4.5847873565164505
 20
47.806032631740024
 10
4.165204674887132
 20
48.6931656763491
 10
3.834596642677912
 20
49.617153227455375
 10
3.5961471959676956
 20
50.569096779838716
 10
3.452152733278032
 20
51.539828596704396
 10
3.404
 20
52.52
  0
LWPOLYLINE
  5
81
330
17
100
AcDbEntity
  8
merged_features
100
AcDbPolyline
 90
5
 70
1
 10
13.404
 20
52.52
 10
13.406
 20
52.52
 10
13.406
 20
52.522
 10
13.404
 20
52.522
 10
13.404
 20
52.52
  0
LWPOLYLINE
  5
82
330
17
100
AcDbEntity
  8
merged_features
100
AcDbPolyline
 90
2
 70
0
 10
13.4
 20
52.518
 10
13.41
 20
52.525
  0
LWPOLYLINE
  5
83
330
17
100
AcDbEntity
  8
roads_minus_buildings
100
AcDbPolyline
 90
2
 70
0
 10
13.4
 20
52.518
 10
13.404
 20
52.5208
  0
LWPOLYLINE
  5
84
330
17
100
AcDbEntity
  8
roads_minus_buildings
100
AcDbPolyline
 90
2
 70
0
 10
13.405714285714284
 20
52.522
 10
13.41
 20
52.525
  0
LWPOLYLINE
  5
85
330
17
100
AcDbEntity
  8
intersected_features
100
AcDbPolyline
 90
2
 70
0
 10
13.4
 20
52.518
 10
13.41
 20
52.525
  0
LWPOLYLINE
  5
86
330
17
100
AcDbEntity
  8
union_features
100
AcDbPolyline
 90
5
 70
1
 10
13.404
 20
52.522
 10
13.406
 20
52.522
 10
13.406
 20
52.52
 10
13.404
 20
52.52
 10
13.404
 20
52.522
  0
LWPOLYLINE
  5
87
330
17
100
AcDbEntity
  8
union_features
100
AcDbPolyline
 90
69
 70
1
 10
3.404
 20
52.522
 10
3.452152733278032
 20
53.502171403295606
 10
3.5961471959676956
 20
54.472903220161285
 10
3.834596642677912
 20
55.424846772544626
 10
4.165204674887132
 20
56.3488343236509
 10
4.5847873565164505
 20
57.23596736825998
 10
5.089303876974547
 20
58.07770233019602
 10
5.67389546637263
 20
58.86593284163645
 10
6.332932188134525
 20
59.593067811865474
 10
7.060067158363546
 20
60.25210453362737
 10
7.84829766980398
 20
60.836696123025455
 10
8.690032631740022
 20
61.34121264348355
 10
9.577165676349104
 20
61.760795325112866
 10
10.50115322745538
 20
62.091403357322086
 10
11.453096779838718
 20
62.3298528040323
 10
12.423828596704393
 20
62.47384726672197
 10
13.404
 20
62.522
 10
13.406
 20
62.522
 10
14.386171403295608
 20
62.47384726672197
 10
15.356903220161284
 20
62.3298528040323
 10
16.308846772544623
 20
62.091403357322086
 10
17.2328343236509
 20
61.760795325112866
 10
18.119967368259978
 20
61.341212643483544
 10
18.961702330196022
 20
60.83669612302545
 10
19.749932841636458
 20
60.25210453362737
 10
20.477067811865474
 20
59.593067811865474
 10
21.13610453362737
 20
58.86593284163645
 10
21.720696123025455
 20
58.07770233019602
 10
22.22521264348355
 20
57.23596736825998
 10
22.644795325112867
 20
56.3488343236509
 10
22.975403357322087
 20
55.42484677254462
 10
23.213852804032307
 20
54.47290322016128
 10
23.35784726672197
 20
53.502171403295606
 10
23.406
 20
52.522
 10
23.406
 20
52.52
 10
23.35784726672197
 20
51.539828596704396
 10
23.213852804032307
 20
50.56909677983872
 10
22.97540335732209
 20
49.61715322745538
 10
22.644795325112867
 20
48.6931656763491
 10
22.22521264348355
 20
47.806032631740024
 10
21.720696123025455
 20
46.96429766980398
 10
21.13610453362737
 20
46.17606715836355
 10
20.477067811865474
 20
45.44893218813453
 10
19.749932841636458
 20
44.789895466372634
 10
18.961702330196022
 20
44.205303876974554
 10
18.119967368259978
 20
43.70078735651646
 10
17.2328343236509
 20
43.281204674887135
 10
16.308846772544623
 20
42.950596642677915
 10
15.356903220161284
 20
42.7121471959677
 10
14.386171403295608
 20
42.56815273327803
 10
13.406
 20
42.52
 10
13.404
 20
42.52
 10
12.423828596704393
 20
42.56815273327803
 10
11.453096779838718
 20
42.7121471959677
 10
10.50115322745538
 20
42.950596642677915
 10
9.577165676349104
 20
43.281204674887135
 10
8.690032631740022
 20
43.70078735651645
 10
7.84829766980398
 20
44.20530387697455
 10
7.060067158363546
 20
44.789895466372634
 10
6.332932188134525
 20
45.44893218813453
 10
5.67389546637263
 20
46.17606715836355
 10
5.089303876974547
 20
46.96429766980398
 10
4.5847873565164505
 20
47.806032631740024
 10
4.165204674887132
 20
48.6931656763491
 10
3.834596642677912
 20
49.617153227455375
 10
3.5961471959676956
 20
50.569096779838716
 10
3.452152733278032
 20
51.539828596704396
 10
3.404
 20
52.52
 10
3.404
 20
52.522
  0
LWPOLYLINE
  5
88
330
17
100
AcDbEntity
  8
union_features
100
AcDbPolyline
 90
5
 70
1
 10
13.406
 20
52.52
 10
13.406
 20
52.522
 10
13.404
 20
52.522
 10
13.404
 20
52.52
 10
13.406
 20
52.52
  0
LWPOLYLINE
  5
89
330
17
100
AcDbEntity
  8
simplified_roads
100
AcDbPolyline
 90
2
 70
0
 10
13.4
 20
52.518
 10
13.41
 20
52.525
  0
LWPOLYLINE
  5
8A
330
17
100
AcDbEntity
  8
dissolved_buildings
100
AcDbPolyline
 90
5
 70
1
 10
13.404
 20
52.52
 10
13.406
 20
52.52
 10
13.406
 20
52.522
 10
13.404
 20
52.522
 10
13.404
 20
52.52
  0
LWPOLYLINE
  5
8B
330
17
100
AcDbEntity
  8
bounding_box
100
AcDbPolyline
 90
5
 70
1
 10
18.41
 20
47.518
 10
18.41
 20
57.525
 10
8.4
 20
57.525
 10
8.4
 20
47.518
 10
18.41
 20
47.518
  0
LWPOLYLINE
  5
8C
330
17
100
AcDbEntity
  8
circles_from_points
100
AcDbPolyline
 90
65
 70
1
 10
28.405
 20
52.521
 10
28.332770900082956
 20
51.050742895056594
 10
28.116779206048456
 20
49.594645169758074
 10
27.759105035983133
 20
48.16672984118306
 10
27.2631929876693
 20
46.78074851452365
 10
26.633818965225323
 20
45.450048947610036
 10
25.87704418453818
 20
44.18744650470597
 10
25.000156800441054
 20
43.00510073754532
 10
24.011601717798214
 20
41.91439828220179
 10
22.920899262454682
 20
40.92584319955895
 10
21.738553495294035
 20
40.048955815461824
 10
20.475951052389966
 20
39.29218103477468
 10
19.145251485476347
 20
38.6628070123307
 10
17.759270158816935
 20
38.16689496401687
 10
16.331354830241924
 20
37.809220793951546
 10
14.875257104943412
 20
37.593229099917046
 10
13.405
 20
37.521
 10
11.93474289505659
 20
37.593229099917046
 10
10.478645169758076
 20
37.809220793951546
 10
9.050729841183067
 20
38.16689496401687
 10
7.664748514523653
 20
38.6628070123307
 10
6.334048947610034
 20
39.29218103477467
 10
5.071446504705969
 20
40.04895581546182
 10
3.889100737545318
 20
40.92584319955894
 10
2.798398282201788
 20
41.91439828220179
 10
1.8098431995589443
 20
43.00510073754532
 10
0.9329558154618187
 20
44.18744650470597
 10
0.17618103477467528
 20
45.450048947610036
 10
-0.4531929876693024
 20
46.78074851452365
 10
-0.9491050359831323
 20
48.16672984118306
 10
-1.306779206048457
 20
49.594645169758074
 10
-1.5227709000829535
 20
51.05074289505659
 10
-1.5950000000000006
 20
52.521
 10
-1.5227709000829552
 20
53.99125710494341
 10
-1.306779206048457
 20
55.44735483024193
 10
-0.9491050359831341
 20
56.87527015881693
 10
-0.45319298766930416
 20
58.26125148547634
 10
0.1761810347746735
 20
59.591951052389966
 10
0.9329558154618169
 20
60.85455349529403
 10
1.8098431995589426
 20
62.03689926245468
 10
2.7983982822017843
 20
63.127601717798214
 10
3.889100737545311
 20
64.11615680044105
 10
5.071446504705966
 20
64.99304418453818
 10
6.3340489476100315
 20
65.74981896522533
 10
7.6647485145236445
 20
66.3791929876693
 10
9.050729841183063
 20
66.87510503598313
 10
10.47864516975807
 20
67.23277920604846
 10
11.934742895056592
 20
67.44877090008296
 10
13.405
 20
67.521
 10
14.875257104943401
 20
67.44877090008296
 10
16.331354830241924
 20
67.23277920604846
 10
17.759270158816932
 20
66.87510503598314
 10
19.14525148547635
 20
66.3791929876693
 10
20.475951052389963
 20
65.74981896522533
 10
21.738553495294028
 20
64.99304418453818
 10
22.920899262454682
 20
64.11615680044105
 10
24.011601717798207
 20
63.127601717798214
 10
25.000156800441047
 20
62.03689926245469
 10
25.87704418453818
 20
60.854553495294034
 10
26.633818965225323
 20
59.59195105238997
 10
27.2631929876693
 20
58.26125148547636
 10
27.759105035983133
 20
56.87527015881694
 10
28.116779206048456
 20
55.447354830241935
 10
28.332770900082956
 20
53.99125710494341
 10
28.405
 20
52.521
  0
LWPOLYLINE
  5
8D
330
17
100
AcDbEntity
  8
copied_buildings
100
AcDbPolyline
 90
5
 70
1
 10
13.404
 20
52.52
 10
13.406
 20
52.52
 10
13.406
 20
52.522
 10
13.404
 20
52.522
 10
13.404
 20
52.52
  0
LWPOLYLINE
  5
8E
330
17
100
AcDbEntity
  8
translated_buildings
100
AcDbPolyline
 90
5
 70
1
 10
33.403999999999996
 20
62.52
 10
33.406
 20
62.52
 10
33.406
 20
62.522
 10
33.403999999999996
 20
62.522
 10
33.403999999999996
 20
62.52
  0
LWPOLYLINE
  5
8F
330
17
100
AcDbEntity
  8
envelopes
100
AcDbPolyline
 90
5
 70
1
 10
13.404
 20
52.522
 10
13.406
 20
52.522
 10
13.406
 20
52.52
 10
13.404
 20
52.52
 10
13.404
 20
52.522
  0
LWPOLYLINE
  5
90
330
17
100
AcDbEntity
  8
buildings_with_area
100
AcDbPolyline
 90
5
 70
1
 10
13.404
 20
52.52
 10
13.406
 20
52.52
 10
13.406
 20
52.522
 10
13.404
 20
52.522
 10
13.404
 20
52.52
  0
LWPOLYLINE
  5
91
330
17
100
AcDbEntity
  8
buildings
100
AcDbPolyline
 90
5
 70
1
 10
13.404
 20
52.52
 10
13.406
 20
52.52
 10
13.406
 20
52.522
 10
13.404
 20
52.522
 10
13.404
 20
52.52
  0
LWPOLYLINE
  5
92
330
17
100
AcDbEntity
  8
roads
  6
CENTER
 62
2
370
100
100
AcDbPolyline
 90
2
 70
0
 10
13.4
 20
52.518
 10
13.41
 20
52.525
  0
POINT
  5
93
330
17
100
AcDbEntity
  8
points
 62
3
370
20
100
AcDbPoint
 10
13.405
 20
52.521
 30
0.0
  0
LWPOLYLINE
  5
94
330
17
100
AcDbEntity
  8
buffered_buildings
100
AcDbPolyline
 90
69
 70
1
 10
3.404
 20
52.52
 10
3.404
 20
52.522
 10
3.452152733278032
 20
53.502171403295606
 10
3.5961471959676956
 20
54.472903220161285
 10
3.834596642677912
 20
55.424846772544626
 10
4.165204674887132
 20
56.3488343236509
 10
4.5847873565164505
 20
57.23596736825998
 10
5.089303876974547
 20
58.07770233019602
 10
5.67389546637263
 20
58.86593284163645
 10
6.332932188134525
 20
59.593067811865474
 10
7.060067158363546
 20
60.25210453362737
 10
7.84829766980398
 20
60.836696123025455
 10
8.690032631740022
 20
61.34121264348355
 10
9.577165676349104
 20
61.760795325112866
 10
10.50115322745538
 20
62.091403357322086
 10
11.453096779838718
 20
62.3298528040323
 10
12.423828596704393
 20
62.47384726672197
 10
13.404
 20
62.522
 10
13.406
 20
62.522
 10
14.386171403295608
 20
62.47384726672197
 10
15.356903220161284
 20
62.3298528040323
 10
16.308846772544623
 20
62.091403357322086
 10
17.2328343236509
 20
61.760795325112866
 10
18.119967368259978
 20
61.341212643483544
 10
18.961702330196022
 20
60.83669612302545
 10
19.749932841636458
 20
60.25210453362737
 10
20.477067811865474
 20
59.593067811865474
 10
21.13610453362737
 20
58.86593284163645
 10
21.720696123025455
 20
58.07770233019602
 10
22.22521264348355
 20
57.23596736825998
 10
22.644795325112867
 20
56.3488343236509
 10
22.975403357322087
 20
55.42484677254462
 10
23.213852804032307
 20
54.47290322016128
 10
23.35784726672197
 20
53.502171403295606
 10
23.406
 20
52.522
 10
23.406
 20
52.52
 10
23.35784726672197
 20
51.539828596704396
 10
23.213852804032307
 20
50.56909677983872
 10
22.97540335732209
 20
49.61715322745538
 10
22.644795325112867
 20
48.6931656763491
 10
22.22521264348355
 20
47.806032631740024
 10
21.720696123025455
 20
46.96429766980398
 10
21.13610453362737
 20
46.17606715836355
 10
20.477067811865474
 20
45.44893218813453
 10
19.749932841636458
 20
44.789895466372634
 10
18.961702330196022
 20
44.205303876974554
 10
18.119967368259978
 20
43.70078735651646
 10
17.2328343236509
 20
43.281204674887135
 10
16.308846772544623
 20
42.950596642677915
 10
15.356903220161284
 20
42.7121471959677
 10
14.386171403295608
 20
42.56815273327803
 10
13.406
 20
42.52
 10
13.404
 20
42.52
 10
12.423828596704393
 20
42.56815273327803
 10
11.453096779838718
 20
42.7121471959677
 10
10.50115322745538
 20
42.950596642677915
 10
9.577165676349104
 20
43.281204674887135
 10
8.690032631740022
 20
43.70078735651645
 10
7.84829766980398
 20
44.20530387697455
 10
7.060067158363546
 20
44.789895466372634
 10
6.332932188134525
 20
45.44893218813453
 10
5.67389546637263
 20
46.17606715836355
 10
5.089303876974547
 20
46.96429766980398
 10
4.5847873565164505
 20
47.806032631740024
 10
4.165204674887132
 20
48.6931656763491
 10
3.834596642677912
 20
49.617153227455375
 10
3.5961471959676956
 20
50.569096779838716
 10
3.452152733278032
 20
51.539828596704396
 10
3.404
 20
52.52
  0
LWPOLYLINE
  5
95
330
17
100
AcDbEntity
  8
merged_features
100
AcDbPolyline
 90
5
 70
1
 10
13.404
 20
52.52
 10
13.406
 20
52.52
 10
13.406
 20
52.522
 10
13.404
 20
52.522
 10
13.404
 20
52.52
  0
LWPOLYLINE
  5
96
330
17
100
AcDbEntity
  8
merged_features
100
AcDbPolyline
 90
2
 70
0
 10
13.4
 20
52.518
 10
13.41
 20
52.525
  0
LWPOLYLINE
  5
97
330
17
100
AcDbEntity
  8
roads_minus_buildings
100
AcDbPolyline
 90
2
 70
0
 10
13.4
 20
52.518
 10
13.404
 20
52.5208
  0
LWPOLYLINE
  5
98
330
17
100
AcDbEntity
  8
roads_minus_buildings
100
AcDbPolyline
 90
2
 70
0
 10
13.405714285714284
 20
52.522
 10
13.41
 20
52.525
  0
LWPOLYLINE
  5
99
330
17
100
AcDbEntity
  8
intersected_features
100
AcDbPolyline
 90
2
 70
0
 10
13.4
 20
52.518
 10
13.41
 20
52.525
  0
LWPOLYLINE
  5
9A
330
17
100
AcDbEntity
  8
union_features
100
AcDbPolyline
 90
5
 70
1
 10
13.404
 20
52.522
 10
13.406
 20
52.522
 10
13.406
 20
52.52
 10
13.404
 20
52.52
 10
13.404
 20
52.522
  0
LWPOLYLINE
  5
9B
330
17
100
AcDbEntity
  8
union_features
100
AcDbPolyline
 90
69
 70
1
 10
3.404
 20
52.522
 10
3.452152733278032
 20
53.502171403295606
 10
3.5961471959676956
 20
54.472903220161285
 10
3.834596642677912
 20
55.424846772544626
 10
4.165204674887132
 20
56.3488343236509
 10
4.5847873565164505
 20
57.23596736825998
 10
5.089303876974547
 20
58.07770233019602
 10
5.67389546637263
 20
58.86593284163645
 10
6.332932188134525
 20
59.593067811865474
 10
7.060067158363546
 20
60.25210453362737
 10
7.84829766980398
 20
60.836696123025455
 10
8.690032631740022
 20
61.34121264348355
 10
9.577165676349104
 20
61.760795325112866
 10
10.50115322745538
 20
62.091403357322086
 10
11.453096779838718
 20
62.3298528040323
 10
12.423828596704393
 20
62.47384726672197
 10
13.404
 20
62.522
 10
13.406
 20
62.522
 10
14.386171403295608
 20
62.47384726672197
 10
15.356903220161284
 20
62.3298528040323
 10
16.308846772544623
 20
62.091403357322086
 10
17.2328343236509
 20
61.760795325112866
 10
18.119967368259978
 20
61.341212643483544
 10
18.961702330196022
 20
60.83669612302545
 10
19.749932841636458
 20
60.25210453362737
 10
20.477067811865474
 20
59.593067811865474
 10
21.13610453362737
 20
58.86593284163645
 10
21.720696123025455
 20
58.07770233019602
 10
22.22521264348355
 20
57.23596736825998
 10
22.644795325112867
 20
56.3488343236509
 10
22.975403357322087
 20
55.42484677254462
 10
23.213852804032307
 20
54.47290322016128
 10
23.35784726672197
 20
53.502171403295606
 10
23.406
 20
52.522
 10
23.406
 20
52.52
 10
23.35784726672197
 20
51.539828596704396
 10
23.213852804032307
 20
50.56909677983872
 10
22.97540335732209
 20
49.61715322745538
 10
22.644795325112867
 20
48.6931656763491
 10
22.22521264348355
 20
47.806032631740024
 10
21.720696123025455
 20
46.96429766980398
 10
21.13610453362737
 20
46.17606715836355
 10
20.477067811865474
 20
45.44893218813453
 10
19.749932841636458
 20
44.789895466372634
 10
18.961702330196022
 20
44.205303876974554
 10
18.119967368259978
 20
43.70078735651646
 10
17.2328343236509
 20
43.281204674887135
 10
16.308846772544623
 20
42.950596642677915
 10
15.356903220161284
 20
42.7121471959677
 10
14.386171403295608
 20
42.56815273327803
 10
13.406
 20
42.52
 10
13.404
 20
42.52
 10
12.423828596704393
 20
42.56815273327803
 10
11.453096779838718
 20
42.7121471959677
 10
10.50115322745538
 20
42.950596642677915
 10
9.577165676349104
 20
43.281204674887135
 10
8.690032631740022
 20
43.70078735651645
 10
7.84829766980398
 20
44.20530387697455
 10
7.060067158363546
 20
44.789895466372634
 10
6.332932188134525
 20
45.44893218813453
 10
5.67389546637263
 20
46.17606715836355
 10
5.089303876974547
 20
46.96429766980398
 10
4.5847873565164505
 20
47.806032631740024
 10
4.165204674887132
 20
48.6931656763491
 10
3.834596642677912
 20
49.617153227455375
 10
3.5961471959676956
 20
50.569096779838716
 10
3.452152733278032
 20
51.539828596704396
 10
3.404
 20
52.52
 10
3.404
 20
52.522
  0
LWPOLYLINE
  5
9C
330
17
100
AcDbEntity
  8
union_features
100
AcDbPolyline
 90
5
 70
1
 10
13.406
 20
52.52
 10
13.406
 20
52.522
 10
13.404
 20
52.522
 10
13.404
 20
52.52
 10
13.406
 20
52.52
  0
LWPOLYLINE
  5
9D
330
17
100
AcDbEntity
  8
simplified_roads
100
AcDbPolyline
 90
2
 70
0
 10
13.4
 20
52.518
 10
13.41
 20
52.525
  0
LWPOLYLINE
  5
9E
330
17
100
AcDbEntity
  8
dissolved_buildings
100
AcDbPolyline
 90
5
 70
1
 10
13.404
 20
52.52
 10
13.406
 20
52.52
 10
13.406
 20
52.522
 10
13.404
 20
52.522
 10
13.404
 20
52.52
  0
LWPOLYLINE
  5
9F
330
17
100
AcDbEntity
  8
bounding_box
100
AcDbPolyline
 90
5
 70
1
 10
18.41
 20
47.518
 10
18.41
 20
57.525
 10
8.4
 20
57.525
 10
8.4
 20
47.518
 10
18.41
 20
47.518
  0
LWPOLYLINE
  5
A0
330
17
100
AcDbEntity
  8
circles_from_points
100
AcDbPolyline
 90
65
 70
1
 10
28.405
 20
52.521
 10
28.332770900082956
 20
51.050742895056594
 10
28.116779206048456
 20
49.594645169758074
 10
27.759105035983133
 20
48.16672984118306
 10
27.2631929876693
 20
46.78074851452365
 10
26.633818965225323
 20
45.450048947610036
 10
25.87704418453818
 20
44.18744650470597
 10
25.000156800441054
 20
43.00510073754532
 10
24.011601717798214
 20
41.91439828220179
 10
22.920899262454682
 20
40.92584319955895
 10
21.738553495294035
 20
40.048955815461824
 10
20.475951052389966
 20
39.29218103477468
 10
19.145251485476347
 20
38.6628070123307
 10
17.759270158816935
 20
38.16689496401687
 10
16.331354830241924
 20
37.809220793951546
 10
14.875257104943412
 20
37.593229099917046
 10
13.405
 20
37.521
 10
11.93474289505659
 20
37.593229099917046
 10
10.478645169758076
 20
37.809220793951546
 10
9.050729841183067
 20
38.16689496401687
 10
7.664748514523653
 20
38.6628070123307
 10
6.334048947610034
 20
39.29218103477467
 10
5.071446504705969
 20
40.04895581546182
 10
3.889100737545318
 20
40.92584319955894
 10
2.798398282201788
 20
41.91439828220179
 10
1.8098431995589443
 20
43.00510073754532
 10
0.9329558154618187
 20
44.18744650470597
 10
0.17618103477467528
 20
45.450048947610036
 10
-0.4531929876693024
 20
46.78074851452365
 10
-0.9491050359831323
 20
48.16672984118306
 10
-1.306779206048457
 20
49.594645169758074
 10
-1.5227709000829535
 20
51.05074289505659
 10
-1.5950000000000006
 20
52.521
 10
-1.5227709000829552
 20
53.99125710494341
 10
-1.306779206048457
 20
55.44735483024193
 10
-0.9491050359831341
 20
56.87527015881693
 10
-0.45319298766930416
 20
58.26125148547634
 10
0.1761810347746735
 20
59.591951052389966
 10
0.9329558154618169
 20
60.85455349529403
 10
1.8098431995589426
 20
62.03689926245468
 10
2.7983982822017843
 20
63.127601717798214
 10
3.889100737545311
 20
64.11615680044105
 10
5.071446504705966
 20
64.99304418453818
 10
6.3340489476100315
 20
65.74981896522533
 10
7.6647485145236445
 20
66.3791929876693
 10
9.050729841183063
 20
66.87510503598313
 10
10.47864516975807
 20
67.23277920604846
 10
11.934742895056592
 20
67.44877090008296
 10
13.405
 20
67.521
 10
14.875257104943401
 20
67.44877090008296
 10
16.331354830241924
 20
67.23277920604846
 10
17.759270158816932
 20
66.87510503598314
 10
19.14525148547635
 20
66.3791929876693
 10
20.475951052389963
 20
65.74981896522533
 10
21.738553495294028
 20
64.99304418453818
 10
22.920899262454682
 20
64.11615680044105
 10
24.011601717798207
 20
63.127601717798214
 10
25.000156800441047
 20
62.03689926245469
 10
25.87704418453818
 20
60.854553495294034
 10
26.633818965225323
 20
59.59195105238997
 10
27.2631929876693
 20
58.26125148547636
 10
27.759105035983133
 20
56.87527015881694
 10
28.116779206048456
 20
55.447354830241935
 10
28.332770900082956
 20
53.99125710494341
 10
28.405
 20
52.521
  0
LWPOLYLINE
  5
A1
330
17
100
AcDbEntity
  8
copied_buildings
100
AcDbPolyline
 90
5
 70
1
 10
13.404
 20
52.52
 10
13.406
 20
52.52
 10
13.406
 20
52.522
 10
13.404
 20
52.522
 10
13.404
 20
52.52
  0
LWPOLYLINE
  5
A2
330
17
100
AcDbEntity
  8
translated_buildings
100
AcDbPolyline
 90
5
 70
1
 10
33.403999999999996
 20
62.52
 10
33.406
 20
62.52
 10
33.406
 20
62.522
 10
33.403999999999996
 20
62.522
 10
33.403999999999996
 20
62.52
  0
LWPOLYLINE
  5
A3
330
17
100
AcDbEntity
  8
envelopes
100
AcDbPolyline
 90
5
 70
1
 10
13.404
 20
52.522
 10
13.406
 20
52.522
 10
13.406
 20
52.52
 10
13.404
 20
52.52
 10
13.404
 20
52.522
  0
LWPOLYLINE
  5
A4
330
17
100
AcDbEntity
  8
buildings_with_area
100
AcDbPolyline
 90
5
 70
1
 10
13.404
 20
52.52
 10
13.406
 20
52.52
 10
13.406
 20
52.522
 10
13.404
 20
52.522
 10
13.404
 20
52.52
  0
ENDSEC
  0
SECTION
  2
OBJECTS
  0
DICTIONARY
  5
A
330
0
100
AcDbDictionary
280
0
281
1
  3
ACAD_COLOR
350
B
  3
ACAD_GROUP
350
C
  3
ACAD_LAYOUT
350
D
  3
ACAD_MATERIAL
350
E
  3
ACAD_MLEADERSTYLE
350
F
  3
ACAD_MLINESTYLE
350
10
  3
ACAD_PLOTSETTINGS
350
11
  3
ACAD_PLOTSTYLENAME
350
12
  3
ACAD_SCALELIST
350
14
  3
ACAD_TABLESTYLE
350
15
  3
ACAD_VISUALSTYLE
350
16
  3
EZDXF_META
350
2D
  0
DICTIONARY
  5
B
330
A
100
AcDbDictionary
280
0
281
1
  0
DICTIONARY
  5
C
330
A
100
AcDbDictionary
280
0
281
1
  0
DICTIONARY
  5
D
330
A
100
AcDbDictionary
280
0
281
1
  3
Model
350
1A
  3
Layout1
350
1E
  0
DICTIONARY
  5
E
330
A
100
AcDbDictionary
280
0
281
1
  3
ByBlock
350
1F
  3
ByLayer
350
20
  3
Global
350
21
  0
DICTIONARY
  5
F
330
A
100
AcDbDictionary
280
0
281
1
  3
Standard
350
2C
  0
DICTIONARY
  5
10
330
A
100
AcDbDictionary
280
0
281
1
  3
Standard
350
22
  0
DICTIONARY
  5
11
330
A
100
AcDbDictionary
280
0
281
1
  0
ACDBDICTIONARYWDFLT
  5
12
330
A
100
AcDbDictionary
280
0
281
1
  3
Normal
350
13
100
AcDbDictionaryWithDefault
340
13
  0
ACDBPLACEHOLDER
  5
13
330
12
  0
DICTIONARY
  5
14
330
A
100
AcDbDictionary
280
0
281
1
  0
DICTIONARY
  5
15
330
A
100
AcDbDictionary
280
0
281
1
  0
DICTIONARY
  5
16
330
A
100
AcDbDictionary
280
0
281
1
  0
LAYOUT
  5
1A
330
D
100
AcDbPlotSettings
  1

  4
A3
  6

 40
7.5
 41
20.0
 42
7.5
 43
20.0
 44
420.0
 45
297.0
 46
0.0
 47
0.0
 48
0.0
 49
0.0
140
0.0
141
0.0
142
1.0
143
1.0
 70
1024
 72
1
 73
0
 74
5
  7

 75
16
 76
0
 77
2
 78
300
147
1.0
148
0.0
149
0.0
100
AcDbLayout
  1
Model
 70
1
 71
0
 10
0.0
 20
0.0
 11
420.0
 21
297.0
 12
0.0
 22
0.0
 32
0.0
 14
1e+20
 24
1e+20
 34
1e+20
 15
-1e+20
 25
-1e+20
 35
-1e+20
146
0.0
 13
0.0
 23
0.0
 33
0.0
 16
1.0
 26
0.0
 36
0.0
 17
0.0
 27
1.0
 37
0.0
 76
1
330
17
  0
LAYOUT
  5
1E
330
D
100
AcDbPlotSettings
  1

  4
A3
  6

 40
7.5
 41
20.0
 42
7.5
 43
20.0
 44
420.0
 45
297.0
 46
0.0
 47
0.0
 48
0.0
 49
0.0
140
0.0
141
0.0
142
1.0
143
1.0
 70
0
 72
1
 73
0
 74
5
  7

 75
16
 76
0
 77
2
 78
300
147
1.0
148
0.0
149
0.0
100
AcDbLayout
  1
Layout1
 70
1
 71
1
 10
0.0
 20
0.0
 11
420.0
 21
297.0
 12
0.0
 22
0.0
 32
0.0
 14
1e+20
 24
1e+20
 34
1e+20
 15
-1e+20
 25
-1e+20
 35
-1e+20
146
0.0
 13
0.0
 23
0.0
 33
0.0
 16
1.0
 26
0.0
 36
0.0
 17
0.0
 27
1.0
 37
0.0
 76
1
330
1B
  0
MATERIAL
  5
1F
102
{ACAD_REACTORS
330
E
102
}
330
E
100
AcDbMaterial
  1
ByBlock
  2

 70
0
 40
1.0
 71
1
 41
1.0
 91
-1023410177
 42
1.0
 72
1
  3

 73
1
 74
1
 75
1
 44
0.5
 73
0
 45
1.0
 46
1.0
 77
1
  4

 78
1
 79
1
170
1
 48
1.0
171
1
  6

172
1
173
1
174
1
140
1.0
141
1.0
175
1
  7

176
1
177
1
178
1
143
1.0
179
1
  8

270
1
271
1
272
1
145
1.0
146
1.0
273
1
  9

274
1
275
1
276
1
 42
1.0
 72
1
  3

 73
1
 74
1
 75
1
 94
63
  0
MATERIAL
  5
20
102
{ACAD_REACTORS
330
E
102
}
330
E
100
AcDbMaterial
  1
ByLayer
  2

 70
0
 40
1.0
 71
1
 41
1.0
 91
-1023410177
 42
1.0
 72
1
  3

 73
1
 74
1
 75
1
 44
0.5
 73
0
 45
1.0
 46
1.0
 77
1
  4

 78
1
 79
1
170
1
 48
1.0
171
1
  6

172
1
173
1
174
1
140
1.0
141
1.0
175
1
  7

176
1
177
1
178
1
143
1.0
179
1
  8

270
1
271
1
272
1
145
1.0
146
1.0
273
1
  9

274
1
275
1
276
1
 42
1.0
 72
1
  3

 73
1
 74
1
 75
1
 94
63
  0
MATERIAL
  5
21
102
{ACAD_REACTORS
330
E
102
}
330
E
100
AcDbMaterial
  1
Global
  2

 70
0
 40
1.0
 71
1
 41
1.0
 91
-1023410177
 42
1.0
 72
1
  3

 73
1
 74
1
 75
1
 44
0.5
 73
0
 45
1.0
 46
1.0
 77
1
  4

 78
1
 79
1
170
1
 48
1.0
171
1
  6

172
1
173
1
174
1
140
1.0
141
1.0
175
1
  7

176
1
177
1
178
1
143
1.0
179
1
  8

270
1
271
1
272
1
145
1.0
146
1.0
273
1
  9

274
1
275
1
276
1
 42
1.0
 72
1
  3

 73
1
 74
1
 75
1
 94
63
  0
MLINESTYLE
  5
22
102
{ACAD_REACTORS
330
10
102
}
330
10
100
AcDbMlineStyle
  2
Standard
 70
0
  3

 62
256
 51
90.0
 52
90.0
 71
2
 49
0.5
 62
256
  6
BYLAYER
 49
-0.5
 62
256
  6
BYLAYER
  0
MLEADERSTYLE
  5
2C
102
{ACAD_REACTORS
330
F
102
}
330
F
100
AcDbMLeaderStyle
179
2
170
2
171
1
172
0
 90
2
 40
0.0
 41
0.0
173
1
 91
-1056964608
 92
-2
290
1
 42
2.0
291
1
 43
8.0
  3
Standard
 44
4.0
300

342
29
174
1
175
1
176
0
178
1
 93
-1056964608
 45
4.0
292
0
297
0
 46
4.0
 94
-1056964608
 47
1.0
 49
1.0
140
1.0
294
1
141
0.0
177
0
142
1.0
295
0
296
0
143
3.75
271
0
272
9
273
9
  0
DICTIONARY
  5
2D
330
A
100
AcDbDictionary
281
1
  3
CREATED_BY_EZDXF
350
2E
  3
WRITTEN_BY_EZDXF
350
3D
  0
DICTIONARYVAR
  5
2E
330
2D
100
DictionaryVariables
280
0
  1
1.4.1 @ 2025-05-23T13:23:04.300682+00:00
  0
DICTIONARYVAR
  5
3D
330
2D
100
DictionaryVariables
280
0
  1
1.4.1 @ 2025-05-23T15:10:00.944710+00:00
  0
ENDSEC
  0
EOF
